ArcadiaSans.glyphspackage
{
glyphname = exclam;
kernLeft = exclam;
kernRight = exclam;
layers = (
{
layerId = m01;
shapes = (
{
ref = period;
},
{
closed = 1;
nodes = (
(241,500,l),
(301,500,l),
(301,1500,l),
(241,1500,l)
);
}
);
width = 540;
},
{
layerId = m002;
shapes = (
{
ref = period;
},
{
closed = 1;
nodes = (
(183,500,l),
(358,500,l),
(358,1500,l),
(183,1500,l)
);
}
);
width = 540;
},
{
layerId = m003;
shapes = (
{
pos = (10,0);
ref = period;
},
{
closed = 1;
nodes = (
(180,500,l),
(500,500,l),
(500,1500,l),
(180,1500,l)
);
}
);
width = 680;
}
);
metricLeft = "=period";
metricRight = "=period";
unicode = 33;
}
{
glyphname = numbersign;
layers = (
{
layerId = m01;
shapes = (
{
closed = 1;
nodes = (
(472,50,l),
(644,1450,l),
(584,1450,l),
(412,50,l)
);
},
{
closed = 1;
nodes = (
(912,50,l),
(1084,1450,l),
(1024,1450,l),
(852,50,l)
);
},
{
closed = 1;
nodes = (
(204,960,l),
(1344,960,l),
(1351,1020,l),
(211,1020,l)
);
},
{
closed = 1;
nodes = (
(145,480,l),
(1285,480,l),
(1292,540,l),
(152,540,l)
);
}
);
width = 1496;
},
{
layerId = m002;
shapes = (
{
closed = 1;
nodes = (
(529,50,l),
(701,1450,l),
(527,1450,l),
(355,50,l)
);
},
{
closed = 1;
nodes = (
(969,50,l),
(1141,1450,l),
(967,1450,l),
(795,50,l)
);
},
{
closed = 1;
nodes = (
(197,903,l),
(1337,903,l),
(1358,1077,l),
(218,1077,l)
);
},
{
closed = 1;
nodes = (
(138,423,l),
(1278,423,l),
(1299,597,l),
(159,597,l)
);
}
);
width = 1496;
},
{
layerId = m003;
shapes = (
{
closed = 1;
nodes = (
(585,30,l),
(761,1470,l),
(451,1470,l),
(275,30,l)
);
},
{
closed = 1;
nodes = (
(1045,30,l),
(1221,1470,l),
(911,1470,l),
(735,30,l)
);
},
{
closed = 1;
nodes = (
(170,845,l),
(1350,845,l),
(1388,1155,l),
(208,1155,l)
);
},
{
closed = 1;
nodes = (
(108,345,l),
(1288,345,l),
(1326,655,l),
(146,655,l)
);
}
);
width = 1496;
}
);
metricRight = "=|numbersign";
unicode = 35;
}
{
glyphname = dollar;
kernLeft = S;
kernRight = S;
layers = (
{
layerId = m01;
shapes = (
{
ref = S;
},
{
closed = 1;
nodes = (
(712,-300,l),
(712,10,l),
(652,10,l),
(652,-300,l)
);
},
{
closed = 1;
nodes = (
(732,1490,l),
(732,1800,l),
(672,1800,l),
(672,1490,l)
);
}
);
width = 1383;
},
{
layerId = m002;
shapes = (
{
ref = S;
},
{
closed = 1;
nodes = (
(770,-300,l),
(770,100,l),
(596,100,l),
(596,-300,l)
);
},
{
closed = 1;
nodes = (
(790,1400,l),
(790,1800,l),
(616,1800,l),
(616,1400,l)
);
}
);
width = 1386;
},
{
layerId = m003;
shapes = (
{
ref = S;
},
{
closed = 1;
nodes = (
(868,-300,l),
(868,100,l),
(548,100,l),
(548,-300,l)
);
},
{
closed = 1;
nodes = (
(868,1400,l),
(868,1800,l),
(548,1800,l),
(548,1400,l)
);
}
);
width = 1412;
}
);
metricLeft = "=S";
metricRight = "=S";
unicode = 36;
}
{
glyphname = ampersand;
kernLeft = O;
kernRight = O;
layers = (
{
hints = (
{
name = _corner.inside_md;
origin = (0,21);
type = Corner;
},
{
name = _corner.inside_md;
options = 2;
origin = (0,20);
scale = (-1,1);
type = Corner;
},
{
name = _corner.inside_md;
origin = (0,17);
type = Corner;
},
{
name = _corner.inside_md;
options = 2;
origin = (0,16);
scale = (-1,1);
type = Corner;
},
{
name = _corner.outside_md;
options = 2;
origin = (0,9);
scale = (-1,1);
type = Corner;
},
{
name = _corner.outside_md;
origin = (0,0);
type = Corner;
},
{
name = _cap.end_md;
options = 2;
origin = (0,22);
type = Cap;
},
{
name = _corner.inside_md;
options = 2;
origin = (0,15);
scale = (-1,1);
type = Corner;
},
{
name = _corner.outside_md;
options = 2;
origin = (0,10);
scale = (-1,1);
type = Corner;
}
);
layerId = m01;
shapes = (
{
closed = 1;
nodes = (
(140,1500,l),
(140,1015,l),
(145,880,o),
(145,794,o),
(367,676,c),
(367,824,l),
(145,706,o),
(135,620,o),
(130,485,c),
(130,0,l),
(1070,0,l),
(1070,620,l),
(1150,620,l),
(1150,800,l),
(890,800,l),
(890,170,l),
(300,170,l),
(300,665,l),
(671,665,l),
(671,835,l),
(310,835,l),
(310,1330,l),
(1020,1330,l),
(1020,1500,l)
);
}
);
width = 1228;
}
);
metricLeft = "=|B";
metricRight = "=D*0.6";
unicode = 38;
}
{
glyphname = quotesingle;
kernLeft = quote;
kernRight = quote;
layers = (
{
layerId = m01;
shapes = (
{
closed = 1;
nodes = (
(100,1190,l),
(160,1190,l),
(200,1600,l),
(140,1600,l)
);
}
);
width = 300;
},
{
layerId = m002;
shapes = (
{
closed = 1;
nodes = (
(90,1190,l),
(270,1190,l),
(330,1600,l),
(150,1600,l)
);
}
);
width = 420;
}
);
metricRight = "=|quotesingle";
unicode = 39;
}
{
glyphname = parenleft;
kernLeft = parenleft;
kernRight = parenleft;
layers = (
{
layerId = m01;
shapes = (
{
closed = 1;
nodes = (
(180,122,ls),
(180,-1,o),
(214,-86,o),
(297,-175,cs),
(554,-450,l),
(686,-328,l),
(438,-62,ls),
(383,-3,o),
(360,55,o),
(360,136,cs),
(360,1364,ls),
(360,1445,o),
(383,1503,o),
(438,1562,cs),
(686,1828,l),
(554,1950,l),
(297,1675,ls),
(214,1586,o),
(180,1501,o),
(180,1378,cs)
);
}
);
width = 736;
}
);
unicode = 40;
}
{
glyphname = asterisk;
layers = (
{
layerId = m01;
shapes = (
{
closed = 1;
nodes = (
(544,1090,l),
(524,680,l),
(694,680,l),
(674,1090,l),
(694,1500,l),
(524,1500,l)
);
},
{
closed = 1;
nodes = (
(642,1146,l),
(296,1369,l),
(211,1221,l),
(577,1034,l),
(922,811,l),
(1007,959,l)
);
},
{
closed = 1;
nodes = (
(642,1034,l),
(1007,1221,l),
(922,1369,l),
(577,1146,l),
(211,959,l),
(296,811,l)
);
}
);
width = 1200;
}
);
unicode = 42;
}
{
glyphname = comma;
kernLeft = period;
kernRight = period;
layers = (
{
layerId = m01;
shapes = (
{
closed = 1;
nodes = (
(240,7,o),
(250,-57,o),
(210,-200,c),
(247,-200,l),
(310,0,l),
(310,160,l),
(240,160,l)
);
}
);
width = 540;
},
{
layerId = m002;
shapes = (
{
closed = 1;
nodes = (
(180,27,o),
(180,-127,o),
(180,-280,c),
(277,-280,l),
(360,0,l),
(360,180,l),
(180,180,l)
);
}
);
width = 540;
},
{
layerId = m003;
shapes = (
{
closed = 1;
nodes = (
(200,40,o),
(200,-140,o),
(200,-320,c),
(377,-320,l),
(460,0,l),
(460,220,l),
(200,220,l)
);
}
);
width = 660;
}
);
metricWidth = "=period";
unicode = 44;
}
{
glyphname = period;
kernLeft = period;
kernRight = period;
layers = (
{
layerId = m01;
shapes = (
{
closed = 1;
nodes = (
(230,0,l),
(310,0,l),
(310,90,l),
(230,90,l)
);
}
);
width = 540;
},
{
layerId = m002;
shapes = (
{
closed = 1;
nodes = (
(170,0,l),
(370,0,l),
(370,200,l),
(170,200,l)
);
}
);
width = 540;
},
{
layerId = m003;
shapes = (
{
closed = 1;
nodes = (
(180,0,l),
(480,0,l),
(480,280,l),
(180,280,l)
);
}
);
width = 660;
}
);
metricRight = "=|period";
unicode = 46;
}
{
glyphname = slash;
kernLeft = A;
kernRight = V;
layers = (
{
layerId = m01;
shapes = (
{
closed = 1;
nodes = (
(80,0,l),
(146,0,l),
(768,1500,l),
(702,1500,l)
);
}
);
width = 848;
},
{
layerId = m002;
shapes = (
{
closed = 1;
nodes = (
(40,0,l),
(233,0,l),
(855,1500,l),
(662,1500,l)
);
}
);
width = 895;
},
{
layerId = m003;
shapes = (
{
closed = 1;
nodes = (
(20,0,l),
(366,0,l),
(988,1500,l),
(642,1500,l)
);
}
);
width = 1008;
}
);
metricLeft = "=A";
metricRight = "=A";
unicode = 47;
}
{
glyphname = zero;
kernLeft = zero;
kernRight = zero;
layers = (
{
hints = (
{
name = _corner.outside_lg;
origin = (0,0);
type = Corner;
},
{
name = _corner.outside_lg;
options = 2;
origin = (0,1);
scale = (-1,1);
type = Corner;
},
{
name = _corner.outside_lg;
origin = (0,2);
type = Corner;
},
{
name = _corner.outside_lg;
options = 2;
origin = (0,3);
scale = (-1,1);
type = Corner;
},
{
name = _corner.inside_lg;
origin = (1,0);
type = Corner;
},
{
name = _corner.inside_lg;
options = 2;
origin = (1,1);
scale = (-1,1);
type = Corner;
},
{
name = _corner.inside_lg;
origin = (1,2);
type = Corner;
},
{
name = _corner.inside_lg;
options = 2;
origin = (1,3);
scale = (-1,1);
type = Corner;
}
);
layerId = m01;
shapes = (
{
closed = 1;
nodes = (
(90,-10,l),
(1110,-10,l),
(1110,1510,l),
(90,1510,l)
);
},
{
closed = 1;
nodes = (
(1050,1450,l),
(1050,50,l),
(150,50,l),
(150,1450,l)
);
},
{
closed = 1;
nodes = (
(232,170,l),
(278,130,l),
(968,1330,l),
(922,1370,l)
);
}
);
width = 1200;
},
{
hints = (
{
name = _corner.outside_lg;
origin = (0,0);
type = Corner;
},
{
name = _corner.outside_lg;
options = 2;
origin = (0,1);
scale = (-1,1);
type = Corner;
},
{
name = _corner.outside_lg;
origin = (0,2);
type = Corner;
},
{
name = _corner.outside_lg;
options = 2;
origin = (0,3);
scale = (-1,1);
type = Corner;
},
{
name = _corner.inside_lg;
origin = (1,0);
type = Corner;
},
{
name = _corner.inside_lg;
options = 2;
origin = (1,1);
scale = (-1,1);
type = Corner;
},
{
name = _corner.inside_lg;
origin = (1,2);
type = Corner;
},
{
name = _corner.inside_lg;
options = 2;
origin = (1,3);
scale = (-1,1);
type = Corner;
}
);
layerId = m002;
shapes = (
{
closed = 1;
nodes = (
(90,-10,l),
(1110,-10,l),
(1110,1510,l),
(90,1510,l)
);
},
{
closed = 1;
nodes = (
(930,1340,l),
(930,160,l),
(270,160,l),
(270,1340,l)
);
},
{
closed = 1;
nodes = (
(225,270,l),
(325,100,l),
(975,1230,l),
(875,1400,l)
);
}
);
width = 1200;
},
{
hints = (
{
name = _corner.outside_lg;
origin = (0,0);
type = Corner;
},
{
name = _corner.outside_lg;
options = 2;
origin = (0,1);
scale = (-1,1);
type = Corner;
},
{
name = _corner.outside_lg;
origin = (0,2);
type = Corner;
},
{
name = _corner.outside_lg;
options = 2;
origin = (0,3);
scale = (-1,1);
type = Corner;
},
{
name = _corner.inside_lg;
origin = (1,0);
type = Corner;
},
{
name = _corner.inside_lg;
options = 2;
origin = (1,1);
scale = (-1,1);
type = Corner;
},
{
name = _corner.inside_lg;
origin = (1,2);
type = Corner;
},
{
name = _corner.inside_lg;
options = 2;
origin = (1,3);
scale = (-1,1);
type = Corner;
}
);
layerId = m003;
shapes = (
{
closed = 1;
nodes = (
(140,-10,l),
(1260,-10,l),
(1260,1510,l),
(140,1510,l)
);
},
{
closed = 1;
nodes = (
(950,1190,l),
(950,310,l),
(450,310,l),
(450,1190,l)
);
},
{
closed = 1;
nodes = (
(285,230,l),
(405,140,l),
(1115,1270,l),
(995,1360,l)
);
}
);
width = 1400;
}
);
unicode = 48;
}
{
glyphname = one;
kernLeft = H;
kernRight = H;
layers = (
{
layerId = m01;
shapes = (
{
closed = 1;
nodes = (
(278,1330,l),
(538,1330,l),
(538,100,l),
(718,100,l),
(718,1500,l),
(278,1500,l)
);
},
{
closed = 1;
nodes = (
(130,0,l),
(1070,0,l),
(1070,175,l),
(130,175,l)
);
}
);
width = 1200;
}
);
unicode = 49;
}
{
glyphname = two;
kernLeft = H;
kernRight = H;
layers = (
{
hints = (
{
name = _corner.outside_md;
options = 2;
origin = (0,1);
scale = (-1,1);
type = Corner;
},
{
name = _corner.inside_md;
options = 2;
origin = (0,4);
scale = (-1,1);
type = Corner;
},
{
name = _cap.end_lg;
options = 10;
origin = (0,2);
scale = (1,-1);
type = Cap;
},
{
name = _corner.inside_sm;
origin = (0,5);
scale = (1.5,1.5);
type = Corner;
},
{
name = _corner.inside_sm;
origin = (0,11);
scale = (1.5,1.5);
type = Corner;
},
{
name = _corner.outside_sm;
origin = (0,0);
type = Corner;
},
{
name = _corner.outside_sm;
origin = (0,6);
type = Corner;
}
);
layerId = m01;
shapes = (
{
closed = 1;
nodes = (
(1070,827,l),
(1070,1510,l),
(140,1510,l),
(140,1450,l),
(1010,1450,l),
(1010,870,l),
(170,560,l),
(170,0,l),
(1060,0,l),
(1060,60,l),
(230,60,l),
(230,517,l)
);
}
);
width = 1200;
},
{
hints = (
{
name = _corner.outside_md;
options = 2;
origin = (0,1);
scale = (-1,1);
type = Corner;
},
{
name = _corner.inside_md;
options = 2;
origin = (0,4);
scale = (-1,1);
type = Corner;
},
{
name = _cap.end_lg;
options = 10;
origin = (0,2);
scale = (1,-1);
type = Cap;
},
{
name = _corner.inside_sm;
origin = (0,5);
scale = (1.5,1.5);
type = Corner;
},
{
name = _corner.inside_sm;
origin = (0,11);
scale = (1.5,1.5);
type = Corner;
},
{
name = _corner.outside_sm;
origin = (0,0);
type = Corner;
},
{
name = _corner.outside_sm;
origin = (0,6);
type = Corner;
}
);
layerId = m002;
shapes = (
{
closed = 1;
nodes = (
(1070,790,l),
(1070,1510,l),
(140,1510,l),
(140,1340,l),
(890,1340,l),
(890,910,l),
(170,630,l),
(170,0,l),
(1060,0,l),
(1060,170,l),
(350,170,l),
(350,510,l)
);
}
);
width = 1200;
},
{
hints = (
{
name = _corner.outside_md;
options = 2;
origin = (0,1);
scale = (-1,1);
type = Corner;
},
{
name = _corner.inside_md;
options = 2;
origin = (0,4);
scale = (-1,1);
type = Corner;
},
{
name = _cap.end_lg;
options = 10;
origin = (0,2);
scale = (1,-1);
type = Cap;
},
{
name = _corner.inside_sm;
origin = (0,5);
scale = (0.5,-0.5);
type = Corner;
},
{
name = _corner.inside_sm;
origin = (0,11);
scale = (0.5,1.5);
type = Corner;
},
{
name = _corner.outside_sm;
origin = (0,0);
type = Corner;
},
{
name = _corner.outside_sm;
origin = (0,6);
type = Corner;
}
);
layerId = m003;
shapes = (
{
closed = 1;
nodes = (
(1200,730,l),
(1200,1510,l),
(150,1510,l),
(150,1190,l),
(880,1190,l),
(880,940,l),
(180,680,l),
(180,0,l),
(1170,0,l),
(1170,320,l),
(500,320,l),
(500,470,l)
);
}
);
width = 1350;
}
);
unicode = 50;
}
{
glyphname = three;
layers = (
{
hints = (
{
name = _corner.inside_md;
origin = (0,1);
type = Corner;
},
{
name = _corner.inside_md;
options = 2;
origin = (0,2);
scale = (-1,1);
type = Corner;
},
{
name = _corner.inside_md;
origin = (0,5);
type = Corner;
},
{
name = _corner.inside_md;
options = 2;
origin = (0,6);
scale = (-1,1);
type = Corner;
},
{
name = _corner.outside_md;
origin = (0,17);
type = Corner;
},
{
name = _corner.outside_md;
options = 2;
origin = (0,9);
scale = (-1,1);
type = Corner;
},
{
name = _cap.end_lg;
options = 10;
origin = (0,7);
type = Cap;
},
{
name = _cap.end_lg;
options = 10;
origin = (0,18);
scale = (1,-1);
type = Cap;
}
);
layerId = m01;
shapes = (
{
closed = 1;
nodes = (
(140,1440,l),
(990,1440,l),
(990,775,l),
(559,775,l),
(559,715,l),
(1000,715,l),
(1000,60,l),
(140,60,l),
(140,0,l),
(1060,0,l),
(1060,445,ls),
(1060,571,o),
(959,676,o),
(850,750,c),
(965,824,o),
(1050,930,o),
(1050,1055,cs),
(1050,1500,l),
(140,1500,l)
);
}
);
width = 1200;
},
{
hints = (
{
name = _corner.inside_md;
origin = (0,1);
type = Corner;
},
{
name = _corner.inside_md;
options = 2;
origin = (0,2);
scale = (-1,1);
type = Corner;
},
{
name = _corner.inside_md;
origin = (0,5);
type = Corner;
},
{
name = _corner.inside_md;
options = 2;
origin = (0,6);
scale = (-1,1);
type = Corner;
},
{
name = _corner.outside_md;
origin = (0,17);
type = Corner;
},
{
name = _corner.outside_md;
options = 2;
origin = (0,9);
scale = (-1,1);
type = Corner;
},
{
name = _cap.end_lg;
options = 10;
origin = (0,7);
type = Cap;
},
{
name = _cap.end_lg;
options = 10;
origin = (0,18);
scale = (1,-1);
type = Cap;
}
);
layerId = m002;
shapes = (
{
closed = 1;
nodes = (
(150,1330,l),
(920,1330,l),
(920,835,l),
(559,835,l),
(559,665,l),
(930,665,l),
(930,170,l),
(150,170,l),
(150,0,l),
(1100,0,l),
(1100,485,ls),
(1100,591,o),
(1089,666,o),
(980,750,c),
(1085,834,o),
(1090,910,o),
(1090,1015,cs),
(1090,1500,l),
(150,1500,l)
);
}
);
width = 1200;
},
{
hints = (
{
name = _corner.inside_md;
origin = (0,1);
type = Corner;
},
{
name = _corner.inside_md;
options = 2;
origin = (0,2);
scale = (-1,1);
type = Corner;
},
{
name = _corner.inside_md;
origin = (0,5);
type = Corner;
},
{
name = _corner.inside_md;
options = 2;
origin = (0,6);
scale = (-1,1);
type = Corner;
},
{
name = _corner.outside_md;
origin = (0,17);
type = Corner;
},
{
name = _corner.outside_md;
options = 2;
origin = (0,9);
scale = (-1,1);
type = Corner;
},
{
name = _cap.end_lg;
options = 10;
origin = (0,7);
type = Cap;
},
{
name = _cap.end_lg;
options = 10;
origin = (0,18);
scale = (1,-1);
type = Cap;
}
);
layerId = m003;
shapes = (
{
closed = 1;
nodes = (
(110,1180,l),
(860,1180,l),
(860,895,l),
(609,895,l),
(609,605,l),
(870,605,l),
(870,320,l),
(110,320,l),
(110,0,l),
(1190,0,l),
(1190,485,ls),
(1190,591,o),
(1179,666,o),
(1070,750,c),
(1175,834,o),
(1180,910,o),
(1180,1015,cs),
(1180,1500,l),
(110,1500,l)
);
}
);
width = 1350;
}
);
unicode = 51;
}
{
glyphname = four;
layers = (
{
layerId = m01;
shapes = (
{
closed = 1;
nodes = (
(930,0,l),
(990,0,l),
(990,1020,l),
(930,1020,l)
);
},
{
closed = 1;
nodes = (
(1110,460,l),
(163,460,l),
(751,1500,l),
(682,1500,l),
(100,470,l),
(100,400,l),
(1110,400,l)
);
}
);
width = 1200;
},
{
layerId = m002;
shapes = (
{
closed = 1;
nodes = (
(830,0,l),
(1010,0,l),
(1010,1020,l),
(830,1020,l)
);
},
{
closed = 1;
nodes = (
(1110,570,l),
(298,570,l),
(785,1500,l),
(582,1500,l),
(100,580,l),
(100,400,l),
(1110,400,l)
);
}
);
width = 1200;
},
{
layerId = m003;
shapes = (
{
closed = 1;
nodes = (
(760,0,l),
(1080,0,l),
(1080,980,l),
(760,980,l)
);
},
{
closed = 1;
nodes = (
(1140,660,l),
(418,660,l),
(915,1500,l),
(542,1500,l),
(70,700,l),
(70,340,l),
(1140,340,l)
);
}
);
width = 1200;
}
);
unicode = 52;
}
{
glyphname = five;
layers = (
{
hints = (
{
name = _corner.inside_md;
origin = (0,4);
type = Corner;
},
{
name = _corner.inside_md;
options = 2;
origin = (0,5);
scale = (-1,1);
type = Corner;
},
{
name = _corner.outside_md;
options = 2;
origin = (0,8);
scale = (-1,1);
type = Corner;
},
{
name = _corner.outside_md;
origin = (0,9);
type = Corner;
},
{
name = _cap.end_lg_close;
options = 10;
origin = (0,6);
type = Cap;
}
);
layerId = m01;
shapes = (
{
closed = 1;
nodes = (
(1060,1440,l),
(1060,1500,l),
(190,1500,l),
(190,790,l),
(1040,790,l),
(1040,60,l),
(110,60,l),
(110,0,l),
(1100,0,l),
(1100,850,l),
(260,850,l),
(260,1440,l)
);
}
);
width = 1200;
},
{
hints = (
{
name = _corner.inside_md;
origin = (0,4);
type = Corner;
},
{
name = _corner.inside_md;
options = 2;
origin = (0,5);
scale = (-1,1);
type = Corner;
},
{
name = _corner.outside_md;
options = 2;
origin = (0,8);
scale = (-1,1);
type = Corner;
},
{
name = _corner.outside_md;
origin = (0,9);
type = Corner;
},
{
name = _cap.end_lg_close;
options = 2;
origin = (0,6);
type = Cap;
}
);
layerId = m002;
shapes = (
{
closed = 1;
nodes = (
(1060,1330,l),
(1060,1500,l),
(170,1500,l),
(170,730,l),
(930,730,l),
(930,170,l),
(130,170,l),
(130,0,l),
(1100,0,l),
(1100,900,l),
(350,900,l),
(350,1330,l)
);
}
);
width = 1200;
},
{
hints = (
{
name = _corner.inside_md;
origin = (0,4);
type = Corner;
},
{
name = _corner.inside_md;
options = 2;
origin = (0,5);
scale = (-1,1);
type = Corner;
},
{
name = _corner.outside_md;
options = 2;
origin = (0,8);
scale = (-1,1);
type = Corner;
},
{
name = _corner.outside_md;
origin = (0,9);
type = Corner;
},
{
name = _cap.end_lg_close;
options = 10;
origin = (0,6);
type = Cap;
}
);
layerId = m003;
shapes = (
{
closed = 1;
nodes = (
(1230,1180,l),
(1230,1500,l),
(180,1500,l),
(180,630,l),
(940,630,l),
(940,320,l),
(170,320,l),
(170,0,l),
(1250,0,l),
(1250,950,l),
(500,950,l),
(500,1180,l)
);
}
);
width = 1400;
}
);
unicode = 53;
}
{
glyphname = six;
layers = (
{
hints = (
{
name = _corner.outside_lg;
origin = (0,2);
type = Corner;
},
{
name = _corner.outside_lg;
options = 2;
origin = (0,3);
scale = (-1,1);
type = Corner;
},
{
name = _corner.outside_lg;
origin = (0,4);
type = Corner;
},
{
name = _corner.outside_lg;
options = 2;
origin = (0,1);
scale = (-1,1);
type = Corner;
},
{
name = _corner.inside_lg;
origin = (0,7);
type = Corner;
},
{
name = _corner.inside_lg;
options = 2;
origin = (0,8);
scale = (-1,1);
type = Corner;
},
{
name = _corner.inside_lg;
origin = (0,9);
type = Corner;
},
{
name = _corner.inside_lg;
options = 2;
origin = (0,10);
scale = (-1,1);
type = Corner;
},
{
name = _cap.shoulder_md;
options = 10;
origin = (0,5);
type = Cap;
},
{
name = _cap.end_lg;
options = 2;
origin = (0,11);
type = Cap;
}
);
layerId = m01;
shapes = (
{
closed = 1;
nodes = (
(1080,1510,l),
(100,1510,l),
(100,-10,l),
(1100,-10,l),
(1100,930,l),
(380,930,l),
(380,760,l),
(920,760,l),
(920,160,l),
(280,160,l),
(280,1340,l),
(1080,1340,l)
);
}
);
width = 1200;
}
);
unicode = 54;
}
{
glyphname = seven;
layers = (
{
layerId = m01;
shapes = (
{
closed = 1;
nodes = (
(100,1240,l),
(160,1240,l),
(160,1440,l),
(1030,1440,l),
(484,0,l),
(548,0,l),
(1090,1430,l),
(1090,1500,l),
(100,1500,l)
);
}
);
width = 1200;
},
{
layerId = m002;
shapes = (
{
closed = 1;
nodes = (
(100,1200,l),
(280,1200,l),
(280,1330,l),
(903,1330,l),
(437,0,l),
(628,0,l),
(1090,1320,l),
(1090,1500,l),
(100,1500,l)
);
}
);
width = 1200;
},
{
layerId = m003;
shapes = (
{
closed = 1;
nodes = (
(80,1050,l),
(380,1050,l),
(380,1180,l),
(813,1180,l),
(367,0,l),
(708,0,l),
(1150,1170,l),
(1150,1500,l),
(80,1500,l)
);
}
);
width = 1200;
}
);
unicode = 55;
}
{
glyphname = eight;
kernLeft = zero;
kernRight = zero;
layers = (
{
hints = (
{
name = _corner.inside_md;
origin = (0,1);
type = Corner;
},
{
name = _corner.inside_md;
options = 2;
origin = (0,2);
scale = (-1,1);
type = Corner;
},
{
name = _corner.inside_md;
origin = (1,1);
type = Corner;
},
{
name = _corner.inside_md;
options = 2;
origin = (1,2);
scale = (-1,1);
type = Corner;
},
{
name = _corner.outside_md;
origin = (2,9);
type = Corner;
},
{
name = _corner.inside_md;
origin = (0,3);
type = Corner;
},
{
name = _corner.inside_md;
options = 2;
origin = (0,0);
scale = (-1,1);
type = Corner;
},
{
name = _corner.inside_md;
options = 2;
origin = (1,3);
scale = (-1,1);
type = Corner;
},
{
name = _corner.inside_md;
origin = (1,0);
type = Corner;
},
{
name = _corner.outside_md;
options = 2;
origin = (2,19);
scale = (-1,1);
type = Corner;
},
{
name = _corner.outside_md;
origin = (2,10);
type = Corner;
},
{
name = _corner.outside_md;
options = 2;
origin = (2,0);
scale = (-1,1);
type = Corner;
}
);
layerId = m01;
shapes = (
{
closed = 1;
nodes = (
(260,1330,l),
(930,1330,l),
(930,835,l),
(260,835,l)
);
},
{
closed = 1;
nodes = (
(260,665,l),
(940,665,l),
(940,170,l),
(260,170,l)
);
},
{
closed = 1;
nodes = (
(1110,0,l),
(1110,485,l),
(1105,620,o),
(1065,706,o),
(843,824,c),
(843,676,l),
(1065,794,o),
(1105,880,o),
(1110,1015,c),
(1110,1500,l),
(90,1500,l),
(90,1015,l),
(95,880,o),
(135,794,o),
(357,676,c),
(357,824,l),
(135,706,o),
(95,620,o),
(90,485,c),
(90,0,l)
);
}
);
width = 1200;
}
);
unicode = 56;
}
{
glyphname = less;
layers = (
{
hints = (
{
name = _corner.letter_v;
options = 2;
origin = (0,3);
type = Corner;
}
);
layerId = m01;
shapes = (
{
closed = 1;
nodes = (
(150,623,l),
(1050,200,l),
(1050,266,l),
(235,650,l),
(1050,1034,l),
(1050,1100,l),
(150,677,l)
);
}
);
width = 1200;
},
{
hints = (
{
name = _corner.letter_v;
options = 2;
origin = (0,3);
type = Corner;
}
);
layerId = m002;
shapes = (
{
closed = 1;
nodes = (
(150,563,l),
(1050,200,l),
(1050,388,l),
(385,650,l),
(1050,912,l),
(1050,1100,l),
(150,737,l)
);
}
);
width = 1200;
}
);
unicode = 60;
}
{
glyphname = question;
layers = (
{
hints = (
{
name = _corner.outside_md;
options = 2;
origin = (1,3);
scale = (-1,1);
type = Corner;
},
{
name = _cap.end_lg;
options = 10;
origin = (1,4);
scale = (1,-1);
type = Cap;
},
{
name = _corner.inside_md;
options = 2;
origin = (1,6);
scale = (-1,1);
type = Corner;
},
{
name = _corner.outside_sm;
origin = (1,2);
type = Corner;
},
{
name = _corner.outside_sm;
origin = (1,8);
type = Corner;
},
{
name = _corner.inside_sm;
origin = (1,1);
scale = (1.5,1.5);
type = Corner;
},
{
name = _corner.inside_sm;
origin = (1,7);
scale = (1.5,1.5);
type = Corner;
}
);
layerId = m01;
shapes = (
{
pos = (330,0);
ref = period;
},
{
closed = 1;
nodes = (
(630,320,l),
(630,600,l),
(1080,820,l),
(1080,1500,l),
(120,1500,l),
(120,1440,l),
(1020,1440,l),
(1020,858,l),
(570,638,l),
(570,320,l)
);
}
);
width = 1200;
},
{
hints = (
{
name = _corner.outside_md;
options = 2;
origin = (1,3);
scale = (-1,1);
type = Corner;
},
{
name = _cap.end_lg;
options = 10;
origin = (1,4);
scale = (1,-1);
type = Cap;
},
{
name = _corner.inside_md;
options = 2;
origin = (1,6);
scale = (-1,1);
type = Corner;
},
{
name = _corner.outside_sm;
origin = (1,2);
type = Corner;
},
{
name = _corner.outside_sm;
origin = (1,8);
type = Corner;
},
{
name = _corner.inside_sm;
origin = (1,1);
scale = (1.5,1.5);
type = Corner;
},
{
name = _corner.inside_sm;
origin = (1,7);
scale = (1.5,1.5);
type = Corner;
}
);
layerId = m002;
shapes = (
{
pos = (330,0);
ref = period;
},
{
closed = 1;
nodes = (
(690,420,l),
(690,610,l),
(1080,830,l),
(1080,1500,l),
(120,1500,l),
(120,1330,l),
(900,1330,l),
(900,950,l),
(510,730,l),
(510,420,l)
);
}
);
width = 1200;
},
{
hints = (
{
name = _corner.outside_md;
options = 2;
origin = (1,3);
scale = (-1,1);
type = Corner;
},
{
name = _cap.end_lg;
options = 10;
origin = (1,4);
scale = (1,-1);
type = Cap;
},
{
name = _corner.inside_md;
options = 2;
origin = (1,6);
scale = (-1,1);
type = Corner;
},
{
name = _corner.outside_sm;
origin = (1,2);
scale = (0.7,0.7);
type = Corner;
},
{
name = _corner.outside_sm;
origin = (1,8);
scale = (0.7,0.7);
type = Corner;
},
{
name = _corner.inside_sm;
origin = (1,1);
type = Corner;
},
{
name = _corner.inside_sm;
origin = (1,7);
type = Corner;
}
);
layerId = m003;
shapes = (
{
pos = (330,0);
ref = period;
},
{
closed = 1;
nodes = (
(810,420,l),
(810,620,l),
(1130,810,l),
(1130,1500,l),
(120,1500,l),
(120,1180,l),
(800,1180,l),
(800,950,l),
(510,780,l),
(510,420,l)
);
}
);
width = 1200;
}
);
unicode = 63;
}
{
glyphname = at;
layers = (
{
hints = (
{
name = _corner.outside_md;
options = 2;
origin = (0,1);
scale = (-0.75,0.75);
type = Corner;
},
{
name = _corner.outside_md;
origin = (0,2);
scale = (0.75,0.75);
type = Corner;
},
{
name = _corner.inside_md;
origin = (0,13);
scale = (0.6,0.6);
type = Corner;
},
{
name = _corner.inside_md;
options = 2;
origin = (0,14);
scale = (-0.6,0.6);
type = Corner;
},
{
name = _cap.shoulder_sm;
options = 10;
origin = (0,15);
scale = (1,-1);
type = Cap;
},
{
name = _corner.outside_md;
origin = (0,4);
type = Corner;
},
{
name = _corner.inside_md;
origin = (0,11);
type = Corner;
},
{
name = _corner.inside_lg;
origin = (0,9);
type = Corner;
},
{
name = _corner.outside_lg;
origin = (0,5);
type = Corner;
},
{
name = _corner.outside_lg;
origin = (0,6);
type = Corner;
},
{
name = _corner.inside_lg;
origin = (0,10);
type = Corner;
},
{
name = _corner.inside_sm;
options = 2;
origin = (0,12);
scale = (-0.85,0.85);
type = Corner;
},
{
name = _corner.outside_sm;
origin = (0,3);
scale = (0.75,0.75);
type = Corner;
}
);
layerId = m01;
shapes = (
{
closed = 1;
nodes = (
(944,880,l),
(465,880,l),
(465,210,l),
(1064,210,l),
(1064,1340,l),
(125,1340,l),
(125,-230,l),
(1079,-230,l),
(1079,-170,l),
(185,-170,l),
(185,1280,l),
(1004,1280,l),
(1004,270,l),
(535,270,l),
(535,820,l),
(944,820,l)
);
}
);
width = 1204;
},
{
hints = (
{
name = _corner.outside_md;
options = 2;
origin = (0,1);
scale = (-0.75,0.75);
type = Corner;
},
{
name = _corner.outside_md;
origin = (0,2);
scale = (0.75,0.75);
type = Corner;
},
{
name = _corner.inside_md;
origin = (0,13);
scale = (0.6,0.6);
type = Corner;
},
{
name = _corner.inside_md;
options = 2;
origin = (0,14);
scale = (-0.6,0.6);
type = Corner;
},
{
name = _cap.shoulder_sm;
options = 10;
origin = (0,15);
scale = (0.97059,-1);
type = Cap;
},
{
name = _corner.outside_md;
origin = (0,4);
type = Corner;
},
{
name = _corner.inside_md;
origin = (0,11);
type = Corner;
},
{
name = _corner.inside_lg;
origin = (0,9);
type = Corner;
},
{
name = _corner.outside_lg;
origin = (0,5);
type = Corner;
},
{
name = _corner.outside_lg;
origin = (0,6);
type = Corner;
},
{
name = _corner.inside_lg;
origin = (0,10);
type = Corner;
},
{
name = _corner.inside_sm;
options = 2;
origin = (0,12);
scale = (-0.6,0.6);
type = Corner;
},
{
name = _corner.outside_sm;
origin = (0,3);
scale = (0.75,0.75);
type = Corner;
}
);
layerId = m002;
shapes = (
{
closed = 1;
nodes = (
(944,880,l),
(465,880,l),
(465,210,l),
(1179,210,l),
(1179,1340,l),
(125,1340,l),
(125,-230,l),
(1079,-230,l),
(1079,-50,l),
(305,-50,l),
(305,1180,l),
(1004,1180,l),
(1004,380,l),
(640,380,l),
(640,715,l),
(944,715,l)
);
}
);
width = 1304;
},
{
hints = (
{
name = _corner.outside_md;
options = 2;
origin = (0,1);
scale = (-0.75,0.75);
type = Corner;
},
{
name = _corner.outside_md;
origin = (0,2);
scale = (0.75,0.75);
type = Corner;
},
{
name = _corner.inside_md;
origin = (0,13);
scale = (0.6,0.6);
type = Corner;
},
{
name = _corner.inside_md;
options = 2;
origin = (0,14);
scale = (-0.6,0.6);
type = Corner;
},
{
name = _cap.shoulder_sm;
options = 10;
origin = (0,15);
scale = (1.76471,-1);
type = Cap;
},
{
name = _corner.outside_md;
origin = (0,4);
type = Corner;
},
{
name = _corner.inside_md;
origin = (0,11);
type = Corner;
},
{
name = _corner.inside_lg;
origin = (0,9);
type = Corner;
},
{
name = _corner.outside_lg;
origin = (0,5);
type = Corner;
},
{
name = _corner.outside_lg;
origin = (0,6);
type = Corner;
},
{
name = _corner.inside_lg;
origin = (0,10);
type = Corner;
},
{
name = _corner.inside_sm;
options = 2;
origin = (0,12);
scale = (-0.6,0.6);
type = Corner;
},
{
name = _corner.outside_sm;
origin = (0,3);
scale = (0.75,0.75);
type = Corner;
}
);
layerId = m003;
shapes = (
{
closed = 1;
nodes = (
(979,915,l),
(490,915,l),
(490,90,l),
(1349,90,l),
(1349,1410,l),
(70,1410,l),
(70,-370,l),
(1104,-370,l),
(1104,-60,l),
(380,-60,l),
(380,1100,l),
(1039,1100,l),
(1039,380,l),
(780,380,l),
(780,615,l),
(979,615,l)
);
}
);
width = 1419;
}
);
metricLeft = "=a";
metricRight = "=a";
unicode = 64;
}
{
glyphname = A;
kernLeft = A;
kernRight = A;
layers = (
{
anchors = (
{
name = bottom;
pos = (700,0);
},
{
name = ogonek;
pos = (1320,0);
},
{
name = top;
pos = (700,1500);
}
);
layerId = m01;
shapes = (
{
pos = (0,1500);
ref = V;
scale = (1,-1);
},
{
closed = 1;
nodes = (
(327,560,l),
(1073,560,l),
(1053,620,l),
(347,620,l)
);
}
);
width = 1400;
},
{
anchors = (
{
name = bottom;
pos = (700,0);
},
{
name = ogonek;
pos = (1360,0);
},
{
name = top;
pos = (700,1500);
}
);
layerId = m002;
shapes = (
{
pos = (0,1500);
ref = V;
scale = (1,-1);
},
{
closed = 1;
nodes = (
(257,460,l),
(1143,460,l),
(1083,640,l),
(317,640,l)
);
}
);
width = 1400;
}
);
metricRight = "=|A";
unicode = 65;
}
{
glyphname = B;
kernLeft = H;
kernRight = O;
layers = (
{
anchors = (
{
name = bottom;
pos = (600,0);
},
{
name = top;
pos = (600,1500);
}
);
hints = (
{
name = _corner.outside_md;
options = 2;
origin = (2,0);
scale = (-1,1);
type = Corner;
},
{
name = _corner.outside_md;
origin = (2,9);
type = Corner;
},
{
name = _corner.inside_md;
origin = (0,0);
type = Corner;
},
{
name = _corner.inside_md;
options = 2;
origin = (0,1);
scale = (-1,1);
type = Corner;
},
{
name = _corner.inside_md;
origin = (1,0);
type = Corner;
},
{
name = _corner.inside_md;
options = 2;
origin = (1,1);
scale = (-1,1);
type = Corner;
}
);
layerId = m01;
shapes = (
{
closed = 1;
nodes = (
(990,1330,l),
(990,835,l),
(360,835,l),
(360,1330,l)
);
},
{
closed = 1;
nodes = (
(1010,665,l),
(1010,170,l),
(360,170,l),
(360,665,l)
);
},
{
closed = 1;
nodes = (
(1180,0,l),
(1180,485,l),
(1175,620,o),
(1155,706,o),
(933,824,c),
(913,676,l),
(1135,794,o),
(1155,880,o),
(1160,1015,c),
(1160,1500,l),
(180,1500,l),
(180,0,l)
);
}
);
width = 1310;
}
);
metricLeft = "=H";
metricRight = "=D";
unicode = 66;
}
{
glyphname = C;
kernLeft = O;
kernRight = C;
layers = (
{
anchors = (
{
name = bottom;
pos = (672,0);
},
{
name = top;
pos = (665,1500);
}
);
hints = (
{
name = _corner.outside_lg;
origin = (0,2);
type = Corner;
},
{
name = _corner.outside_lg;
origin = (0,2);
type = Corner;
},
{
name = _corner.outside_lg;
options = 2;
origin = (0,1);
scale = (-1,1);
type = Corner;
},
{
name = _corner.inside_lg;
origin = (0,5);
type = Corner;
},
{
name = _corner.inside_lg;
options = 2;
origin = (0,6);
scale = (-1,1);
type = Corner;
},
{
name = _cap.end_lg_close;
options = 10;
origin = (0,7);
type = Cap;
},
{
name = _cap.end_lg_close;
options = 10;
origin = (0,3);
scale = (1,-1);
type = Cap;
}
);
layerId = m01;
shapes = (
{
closed = 1;
nodes = (
(1190,1510,l),
(150,1510,l),
(150,-10,l),
(1190,-10,l),
(1190,50,l),
(210,50,l),
(210,1450,l),
(1190,1450,l)
);
}
);
width = 1270;
},
{
anchors = (
{
name = bottom;
pos = (652,0);
},
{
name = top;
pos = (645,1500);
}
);
hints = (
{
name = _corner.outside_lg;
origin = (0,2);
type = Corner;
},
{
name = _corner.outside_lg;
origin = (0,2);
type = Corner;
},
{
name = _corner.outside_lg;
options = 2;
origin = (0,1);
scale = (-1,1);
type = Corner;
},
{
name = _corner.inside_lg;
origin = (0,5);
type = Corner;
},
{
name = _corner.inside_lg;
options = 2;
origin = (0,6);
scale = (-1,1);
type = Corner;
},
{
name = _cap.end_lg_close;
options = 10;
origin = (0,7);
type = Cap;
},
{
name = _cap.end_lg_close;
options = 10;
origin = (0,3);
scale = (1,-1);
type = Cap;
}
);
layerId = m002;
shapes = (
{
closed = 1;
nodes = (
(1170,1510,l),
(130,1510,l),
(130,-10,l),
(1170,-10,l),
(1170,160,l),
(310,160,l),
(310,1340,l),
(1170,1340,l)
);
}
);
width = 1250;
},
{
anchors = (
{
name = bottom;
pos = (607,0);
},
{
name = top;
pos = (600,1500);
}
);
hints = (
{
name = _corner.outside_lg;
origin = (0,2);
type = Corner;
},
{
name = _corner.outside_lg;
origin = (0,2);
type = Corner;
},
{
name = _corner.outside_lg;
options = 2;
origin = (0,1);
scale = (-1,1);
type = Corner;
},
{
name = _corner.inside_lg;
origin = (0,5);
type = Corner;
},
{
name = _corner.inside_lg;
options = 2;
origin = (0,6);
scale = (-1,1);
type = Corner;
},
{
name = _cap.end_lg_close;
options = 10;
origin = (0,7);
type = Cap;
},
{
name = _cap.end_lg_close;
options = 10;
origin = (0,3);
scale = (1,-1);
type = Cap;
}
);
layerId = m003;
shapes = (
{
closed = 1;
nodes = (
(1185,1510,l),
(65,1510,l),
(65,-10,l),
(1185,-10,l),
(1185,310,l),
(385,310,l),
(385,1190,l),
(1185,1190,l)
);
}
);
width = 1235;
}
);
metricLeft = "=O";
unicode = 67;
}
{
glyphname = D;
kernLeft = H;
kernRight = O;
layers = (
{
hints = (
{
name = _corner.outside_lg;
options = 2;
origin = (0,1);
scale = (-1,1);
type = Corner;
},
{
name = _corner.outside_lg;
origin = (0,2);
type = Corner;
},
{
name = _corner.inside_lg;
origin = (1,0);
type = Corner;
},
{
name = _corner.inside_lg;
options = 2;
origin = (1,1);
scale = (-1,1);
type = Corner;
}
);
layerId = m01;
shapes = (
{
closed = 1;
nodes = (
(180,0,l),
(1180,0,l),
(1180,1500,l),
(180,1500,l)
);
},
{
closed = 1;
nodes = (
(1120,1440,l),
(1120,60,l),
(240,60,l),
(240,1440,l)
);
}
);
width = 1330;
},
{
hints = (
{
name = _corner.outside_lg;
options = 2;
origin = (0,1);
scale = (-1,1);
type = Corner;
},
{
name = _corner.outside_lg;
origin = (0,2);
type = Corner;
},
{
name = _corner.inside_lg;
origin = (1,0);
type = Corner;
},
{
name = _corner.inside_lg;
options = 2;
origin = (1,1);
scale = (-1,1);
type = Corner;
}
);
layerId = m002;
shapes = (
{
closed = 1;
nodes = (
(180,0,l),
(1190,0,l),
(1190,1500,l),
(180,1500,l)
);
},
{
closed = 1;
nodes = (
(1010,1330,l),
(1010,170,l),
(360,170,l),
(360,1330,l)
);
}
);
width = 1320;
},
{
hints = (
{
name = _corner.outside_lg;
options = 2;
origin = (0,1);
scale = (-1,1);
type = Corner;
},
{
name = _corner.outside_lg;
origin = (0,2);
type = Corner;
},
{
name = _corner.inside_lg;
origin = (1,0);
type = Corner;
},
{
name = _corner.inside_lg;
options = 2;
origin = (1,1);
scale = (-1,1);
type = Corner;
}
);
layerId = m003;
shapes = (
{
closed = 1;
nodes = (
(120,0,l),
(1240,0,l),
(1240,1500,l),
(120,1500,l)
);
},
{
closed = 1;
nodes = (
(920,1180,l),
(920,320,l),
(440,320,l),
(440,1180,l)
);
}
);
width = 1305;
}
);
metricLeft = H;
metricRight = O;
unicode = 68;
}
{
glyphname = E;
kernLeft = H;
kernRight = H;
layers = (
{
anchors = (
{
name = bottom;
pos = (630,0);
},
{
name = ogonek;
pos = (1074,0);
},
{
name = top;
pos = (630,1500);
}
);
layerId = m01;
shapes = (
{
closed = 1;
nodes = (
(180,0,l),
(240,0,l),
(240,1500,l),
(180,1500,l)
);
},
{
closed = 1;
nodes = (
(198,730,l),
(1024,730,l),
(1024,790,l),
(198,790,l)
);
},
{
closed = 1;
nodes = (
(198,0,l),
(1074,0,l),
(1074,60,l),
(198,60,l)
);
},
{
closed = 1;
nodes = (
(198,1440,l),
(1074,1440,l),
(1074,1500,l),
(198,1500,l)
);
}
);
width = 1214;
},
{
anchors = (
{
name = bottom;
pos = (660,0);
},
{
name = ogonek;
pos = (1134,0);
},
{
name = top;
pos = (660,1500);
}
);
layerId = m002;
shapes = (
{
closed = 1;
nodes = (
(180,0,l),
(360,0,l),
(360,1500,l),
(180,1500,l)
);
},
{
closed = 1;
nodes = (
(198,675,l),
(1084,675,l),
(1084,845,l),
(198,845,l)
);
},
{
closed = 1;
nodes = (
(198,0,l),
(1134,0,l),
(1134,170,l),
(198,170,l)
);
},
{
closed = 1;
nodes = (
(198,1330,l),
(1134,1330,l),
(1134,1500,l),
(198,1500,l)
);
}
);
width = 1274;
}
);
metricLeft = "=H";
unicode = 69;
}
{
glyphname = F;
kernLeft = H;
kernRight = F;
layers = (
{
layerId = m01;
shapes = (
{
closed = 1;
nodes = (
(180,0,l),
(240,0,l),
(240,1500,l),
(180,1500,l)
);
},
{
closed = 1;
nodes = (
(198,730,l),
(1024,730,l),
(1024,790,l),
(198,790,l)
);
},
{
closed = 1;
nodes = (
(198,1440,l),
(1074,1440,l),
(1074,1500,l),
(198,1500,l)
);
}
);
width = 1214;
},
{
layerId = m002;
shapes = (
{
closed = 1;
nodes = (
(180,0,l),
(360,0,l),
(360,1500,l),
(180,1500,l)
);
},
{
closed = 1;
nodes = (
(198,675,l),
(1084,675,l),
(1084,845,l),
(198,845,l)
);
},
{
closed = 1;
nodes = (
(198,1330,l),
(1134,1330,l),
(1134,1500,l),
(198,1500,l)
);
}
);
width = 1274;
},
{
layerId = m003;
shapes = (
{
closed = 1;
nodes = (
(140,0,l),
(460,0,l),
(460,1500,l),
(140,1500,l)
);
},
{
closed = 1;
nodes = (
(158,605,l),
(1094,605,l),
(1094,915,l),
(158,915,l)
);
},
{
closed = 1;
nodes = (
(158,1180,l),
(1144,1180,l),
(1144,1500,l),
(158,1500,l)
);
}
);
width = 1234;
}
);
metricLeft = "=H";
metricRight = "=E";
unicode = 70;
}
{
glyphname = G;
kernLeft = O;
kernRight = O;
layers = (
{
anchors = (
{
name = bottom;
pos = (665,0);
},
{
name = top;
pos = (665,1500);
}
);
hints = (
{
name = _corner.outside_lg;
origin = (0,2);
type = Corner;
},
{
name = _corner.outside_lg;
origin = (0,2);
type = Corner;
},
{
name = _corner.outside_lg;
options = 2;
origin = (0,1);
scale = (-1,1);
type = Corner;
},
{
name = _corner.inside_lg;
origin = (0,9);
type = Corner;
},
{
name = _corner.inside_lg;
options = 2;
origin = (0,10);
scale = (-1,1);
type = Corner;
},
{
name = _cap.end_lg_close;
options = 10;
origin = (0,11);
type = Cap;
},
{
name = _corner.inside_lg;
origin = (0,8);
type = Corner;
},
{
name = _corner.outside_lg;
origin = (0,3);
type = Corner;
}
);
layerId = m01;
shapes = (
{
closed = 1;
nodes = (
(1180,1510,l),
(150,1510,l),
(150,-10,l),
(1180,-10,l),
(1180,790,l),
(730,790,l),
(730,730,l),
(1120,730,l),
(1120,50,l),
(210,50,l),
(210,1450,l),
(1180,1450,l)
);
}
);
width = 1330;
},
{
anchors = (
{
name = bottom;
pos = (655,0);
},
{
name = top;
pos = (655,1500);
}
);
hints = (
{
name = _corner.outside_lg;
origin = (0,2);
type = Corner;
},
{
name = _corner.outside_lg;
origin = (0,2);
type = Corner;
},
{
name = _corner.outside_lg;
options = 2;
origin = (0,1);
scale = (-1,1);
type = Corner;
},
{
name = _corner.inside_lg;
origin = (0,9);
type = Corner;
},
{
name = _corner.inside_lg;
options = 2;
origin = (0,10);
scale = (-1,1);
type = Corner;
},
{
name = _cap.end_lg_close;
options = 10;
origin = (0,11);
type = Cap;
},
{
name = _corner.inside_lg;
origin = (0,8);
type = Corner;
},
{
name = _corner.outside_lg;
origin = (0,3);
type = Corner;
}
);
layerId = m002;
shapes = (
{
closed = 1;
nodes = (
(1200,1510,l),
(130,1510,l),
(130,-10,l),
(1200,-10,l),
(1200,820,l),
(720,820,l),
(720,650,l),
(1020,650,l),
(1020,160,l),
(310,160,l),
(310,1340,l),
(1200,1340,l)
);
}
);
width = 1330;
},
{
anchors = (
{
name = bottom;
pos = (645,0);
},
{
name = top;
pos = (645,1500);
}
);
hints = (
{
name = _corner.outside_lg;
origin = (0,2);
type = Corner;
},
{
name = _corner.outside_lg;
origin = (0,2);
type = Corner;
},
{
name = _corner.outside_lg;
options = 2;
origin = (0,1);
scale = (-1,1);
type = Corner;
},
{
name = _corner.inside_lg;
origin = (0,9);
type = Corner;
},
{
name = _corner.inside_lg;
options = 2;
origin = (0,10);
scale = (-1,1);
type = Corner;
},
{
name = _cap.end_lg_close;
options = 10;
origin = (0,11);
scale = (0.96875,1);
type = Cap;
},
{
name = _corner.inside_lg;
origin = (0,8);
scale = (0.8,0.8);
type = Corner;
},
{
name = _corner.outside_lg;
origin = (0,3);
type = Corner;
}
);
layerId = m003;
shapes = (
{
closed = 1;
nodes = (
(1205,1510,l),
(65,1510,l),
(65,-10,l),
(1225,-10,l),
(1225,870,l),
(705,870,l),
(705,590,l),
(925,590,l),
(925,310,l),
(375,310,l),
(375,1200,l),
(1205,1200,l)
);
}
);
width = 1290;
}
);
metricLeft = "=O";
metricRight = "=O";
unicode = 71;
}
{
glyphname = H;
kernLeft = H;
kernRight = H;
layers = (
{
anchors = (
{
name = bottom;
pos = (680,0);
},
{
name = top;
pos = (680,1500);
}
);
layerId = m01;
shapes = (
{
closed = 1;
nodes = (
(180,0,l),
(240,0,l),
(240,1500,l),
(180,1500,l)
);
},
{
closed = 1;
nodes = (
(1120,0,l),
(1180,0,l),
(1180,1500,l),
(1120,1500,l)
);
},
{
closed = 1;
nodes = (
(198,740,l),
(1154,740,l),
(1154,800,l),
(198,800,l)
);
}
);
width = 1360;
},
{
anchors = (
{
name = bottom;
pos = (740,0);
},
{
name = top;
pos = (740,1500);
}
);
layerId = m002;
shapes = (
{
closed = 1;
nodes = (
(180,0,l),
(360,0,l),
(360,1500,l),
(180,1500,l)
);
},
{
closed = 1;
nodes = (
(1120,0,l),
(1300,0,l),
(1300,1500,l),
(1120,1500,l)
);
},
{
closed = 1;
nodes = (
(198,680,l),
(1284,680,l),
(1284,860,l),
(198,860,l)
);
}
);
width = 1480;
},
{
anchors = (
{
name = bottom;
pos = (770,0);
},
{
name = top;
pos = (770,1500);
}
);
layerId = m003;
shapes = (
{
closed = 1;
nodes = (
(140,0,l),
(460,0,l),
(460,1500,l),
(140,1500,l)
);
},
{
closed = 1;
nodes = (
(1080,0,l),
(1400,0,l),
(1400,1500,l),
(1080,1500,l)
);
},
{
closed = 1;
nodes = (
(158,610,l),
(1384,610,l),
(1384,930,l),
(158,930,l)
);
}
);
width = 1540;
}
);
metricRight = "=|H";
unicode = 72;
}
{
glyphname = I;
kernLeft = H;
kernRight = H;
layers = (
{
anchors = (
{
name = bottom;
pos = (550,0);
},
{
name = ogonek;
pos = (950,0);
},
{
name = top;
pos = (550,1500);
}
);
layerId = m01;
shapes = (
{
closed = 1;
nodes = (
(520,20,l),
(580,20,l),
(580,1480,l),
(520,1480,l)
);
},
{
closed = 1;
nodes = (
(150,1440,l),
(950,1440,l),
(950,1500,l),
(150,1500,l)
);
},
{
closed = 1;
nodes = (
(150,0,l),
(950,0,l),
(950,60,l),
(150,60,l)
);
}
);
width = 1100;
},
{
anchors = (
{
name = bottom;
pos = (570,0);
},
{
name = ogonek;
pos = (990,0);
},
{
name = top;
pos = (570,1500);
}
);
layerId = m002;
shapes = (
{
closed = 1;
nodes = (
(480,100,l),
(660,100,l),
(660,1400,l),
(480,1400,l)
);
},
{
closed = 1;
nodes = (
(150,1325,l),
(990,1325,l),
(990,1500,l),
(150,1500,l)
);
},
{
closed = 1;
nodes = (
(150,0,l),
(990,0,l),
(990,175,l),
(150,175,l)
);
}
);
width = 1140;
},
{
anchors = (
{
name = bottom;
pos = (550,0);
},
{
name = ogonek;
pos = (980,0);
},
{
name = top;
pos = (550,1500);
}
);
layerId = m003;
shapes = (
{
closed = 1;
nodes = (
(390,100,l),
(710,100,l),
(710,1400,l),
(390,1400,l)
);
},
{
closed = 1;
nodes = (
(120,1185,l),
(980,1185,l),
(980,1500,l),
(120,1500,l)
);
},
{
closed = 1;
nodes = (
(120,0,l),
(980,0,l),
(980,315,l),
(120,315,l)
);
}
);
width = 1100;
}
);
metricRight = "=|I";
unicode = 73;
}
{
glyphname = K;
kernLeft = H;
kernRight = K;
layers = (
{
anchors = (
{
name = bottom;
pos = (519,0);
},
{
name = top;
pos = (520,1500);
}
);
layerId = m01;
shapes = (
{
closed = 1;
nodes = (
(180,0,l),
(240,0,l),
(240,1500,l),
(180,1500,l)
);
},
{
closed = 1;
nodes = (
(209,688,l),
(209,596,l),
(384,803,l),
(408,824,l),
(1004,1500,l),
(926,1500,l)
);
},
{
closed = 1;
nodes = (
(1102,0,l),
(406,851,l),
(365,806,l),
(1027,0,l)
);
}
);
width = 1162;
},
{
anchors = (
{
name = bottom;
pos = (609,0);
},
{
name = top;
pos = (580,1500);
}
);
layerId = m002;
shapes = (
{
closed = 1;
nodes = (
(180,0,l),
(355,0,l),
(355,1500,l),
(180,1500,l)
);
},
{
closed = 1;
nodes = (
(345,817,l),
(344,547,l),
(507,742,l),
(551,780,l),
(1189,1500,l),
(950,1500,l)
);
},
{
closed = 1;
nodes = (
(1189,0,l),
(533,851,l),
(414,706,l),
(968,0,l)
);
}
);
width = 1249;
},
{
anchors = (
{
name = bottom;
pos = (714,0);
},
{
name = top;
pos = (685,1500);
}
);
layerId = m003;
shapes = (
{
closed = 1;
nodes = (
(140,0,l),
(460,0,l),
(460,1500,l),
(140,1500,l)
);
},
{
closed = 1;
nodes = (
(450,817,l),
(449,387,l),
(649,627,l),
(772,702,l),
(1434,1500,l),
(1015,1500,l)
);
},
{
closed = 1;
nodes = (
(1442,0,l),
(786,851,l),
(489,706,l),
(1043,0,l)
);
}
);
width = 1472;
}
);
metricLeft = "=H";
unicode = 75;
}
{
glyphname = L;
kernLeft = H;
kernRight = L;
layers = (
{
anchors = (
{
name = bottom;
pos = (604,0);
},
{
name = top;
pos = (210,1500);
}
);
layerId = m01;
shapes = (
{
closed = 1;
nodes = (
(180,0,l),
(240,0,l),
(240,1500,l),
(180,1500,l)
);
},
{
closed = 1;
nodes = (
(198,0,l),
(1034,0,l),
(1034,60,l),
(198,60,l)
);
}
);
width = 1094;
},
{
anchors = (
{
name = bottom;
pos = (654,0);
},
{
name = top;
pos = (270,1500);
}
);
layerId = m002;
shapes = (
{
closed = 1;
nodes = (
(180,0,l),
(360,0,l),
(360,1500,l),
(180,1500,l)
);
},
{
closed = 1;
nodes = (
(198,0,l),
(1134,0,l),
(1134,170,l),
(198,170,l)
);
}
);
width = 1194;
},
{
anchors = (
{
name = bottom;
pos = (614,0);
},
{
name = top;
pos = (300,1500);
}
);
layerId = m003;
shapes = (
{
closed = 1;
nodes = (
(140,0,l),
(460,0,l),
(460,1500,l),
(140,1500,l)
);
},
{
closed = 1;
nodes = (
(158,0,l),
(1094,0,l),
(1094,320,l),
(158,320,l)
);
}
);
width = 1114;
}
);
metricLeft = "=H";
unicode = 76;
}
{
glyphname = M;
kernLeft = H;
kernRight = H;
layers = (
{
anchors = (
{
name = top;
pos = (680,1500);
}
);
hints = (
{
name = _corner.letter_v;
origin = (0,1);
type = Corner;
},
{
name = _corner.letter_v;
origin = (0,4);
type = Corner;
}
);
layerId = m01;
shapes = (
{
closed = 1;
nodes = (
(240,0,l),
(240,1396,l),
(645,672,l),
(715,672,l),
(1120,1396,l),
(1120,0,l),
(1180,0,l),
(1180,1500,l),
(1110,1500,l),
(680,733,l),
(250,1500,l),
(180,1500,l),
(180,0,l)
);
}
);
width = 1360;
},
{
anchors = (
{
name = top;
pos = (800,1500);
}
);
hints = (
{
name = _corner.letter_v;
origin = (0,1);
type = Corner;
},
{
name = _corner.letter_v;
origin = (0,4);
type = Corner;
}
);
layerId = m002;
shapes = (
{
closed = 1;
nodes = (
(360,0,l),
(360,1156,l),
(705,542,l),
(895,542,l),
(1240,1156,l),
(1240,0,l),
(1420,0,l),
(1420,1500,l),
(1230,1500,l),
(800,735,l),
(370,1500,l),
(180,1500,l),
(180,0,l)
);
}
);
width = 1600;
}
);
metricLeft = "=H";
metricRight = "=H";
unicode = 77;
}
{
glyphname = N;
kernLeft = H;
kernRight = H;
layers = (
{
anchors = (
{
name = bottom;
pos = (605,0);
},
{
name = top;
pos = (605,1500);
}
);
hints = (
{
name = _corner.letter_v;
origin = (0,1);
type = Corner;
},
{
name = _corner.letter_v;
origin = (0,6);
type = Corner;
}
);
layerId = m01;
shapes = (
{
closed = 1;
nodes = (
(240,0,l),
(240,1388,l),
(960,0,l),
(1030,0,l),
(1030,1500,l),
(970,1500,l),
(970,112,l),
(250,1500,l),
(180,1500,l),
(180,0,l)
);
}
);
width = 1210;
},
{
anchors = (
{
name = bottom;
pos = (725,0);
},
{
name = top;
pos = (725,1500);
}
);
hints = (
{
name = _corner.letter_v;
origin = (0,1);
type = Corner;
},
{
name = _corner.letter_v;
origin = (0,6);
type = Corner;
}
);
layerId = m002;
shapes = (
{
closed = 1;
nodes = (
(360,0,l),
(360,1172,l),
(1080,0,l),
(1270,0,l),
(1270,1500,l),
(1090,1500,l),
(1090,328,l),
(370,1500,l),
(180,1500,l),
(180,0,l)
);
}
);
width = 1450;
}
);
metricLeft = "=H";
metricRight = "=H";
unicode = 78;
}
{
glyphname = O;
kernLeft = O;
kernRight = O;
layers = (
{
anchors = (
{
name = top;
pos = (690,1500);
}
);
hints = (
{
name = _corner.outside_lg;
origin = (0,0);
type = Corner;
},
{
name = _corner.outside_lg;
origin = (0,0);
type = Corner;
},
{
name = _corner.outside_lg;
options = 2;
origin = (0,1);
scale = (-1,1);
type = Corner;
},
{
name = _corner.outside_lg;
origin = (0,2);
type = Corner;
},
{
name = _corner.outside_lg;
options = 2;
origin = (0,3);
scale = (-1,1);
type = Corner;
},
{
name = _corner.inside_lg;
origin = (1,0);
type = Corner;
},
{
name = _corner.inside_lg;
options = 2;
origin = (1,1);
scale = (-1,1);
type = Corner;
},
{
name = _corner.inside_lg;
origin = (1,2);
type = Corner;
},
{
name = _corner.inside_lg;
options = 2;
origin = (1,3);
scale = (-1,1);
type = Corner;
}
);
layerId = m01;
shapes = (
{
closed = 1;
nodes = (
(150,-10,l),
(1230,-10,l),
(1230,1510,l),
(150,1510,l)
);
},
{
closed = 1;
nodes = (
(1170,1450,l),
(1170,50,l),
(210,50,l),
(210,1450,l)
);
}
);
width = 1380;
},
{
anchors = (
{
name = top;
pos = (670,1500);
}
);
hints = (
{
name = _corner.outside_lg;
origin = (0,0);
type = Corner;
},
{
name = _corner.outside_lg;
origin = (0,0);
type = Corner;
},
{
name = _corner.outside_lg;
options = 2;
origin = (0,1);
scale = (-1,1);
type = Corner;
},
{
name = _corner.outside_lg;
origin = (0,2);
type = Corner;
},
{
name = _corner.outside_lg;
options = 2;
origin = (0,3);
scale = (-1,1);
type = Corner;
},
{
name = _corner.inside_lg;
origin = (1,0);
type = Corner;
},
{
name = _corner.inside_lg;
options = 2;
origin = (1,1);
scale = (-1,1);
type = Corner;
},
{
name = _corner.inside_lg;
origin = (1,2);
type = Corner;
},
{
name = _corner.inside_lg;
options = 2;
origin = (1,3);
scale = (-1,1);
type = Corner;
}
);
layerId = m002;
shapes = (
{
closed = 1;
nodes = (
(130,-10,l),
(1210,-10,l),
(1210,1510,l),
(130,1510,l)
);
},
{
closed = 1;
nodes = (
(1030,1340,l),
(1030,160,l),
(310,160,l),
(310,1340,l)
);
}
);
width = 1340;
}
);
metricRight = "=|O";
unicode = 79;
}
{
glyphname = P;
kernLeft = H;
kernRight = P;
layers = (
{
hints = (
{
name = _corner.outside_md;
options = 2;
origin = (0,6);
scale = (-1,1);
type = Corner;
},
{
name = _corner.outside_md;
origin = (0,7);
type = Corner;
},
{
name = _corner.inside_md;
origin = (0,2);
type = Corner;
},
{
name = _corner.inside_md;
options = 2;
origin = (0,3);
scale = (-1,1);
type = Corner;
}
);
layerId = m01;
shapes = (
{
closed = 1;
nodes = (
(240,0,l),
(240,1450,l),
(1170,1450,l),
(1170,770,l),
(219,770,l),
(219,710,l),
(1230,710,l),
(1230,1510,l),
(180,1510,l),
(180,0,l)
);
}
);
width = 1380;
},
{
hints = (
{
name = _corner.outside_md;
options = 2;
origin = (0,6);
scale = (-1,1);
type = Corner;
},
{
name = _corner.outside_md;
origin = (0,7);
type = Corner;
},
{
name = _corner.inside_md;
origin = (0,2);
type = Corner;
},
{
name = _corner.inside_md;
options = 2;
origin = (0,3);
scale = (-1,1);
type = Corner;
}
);
layerId = m002;
shapes = (
{
closed = 1;
nodes = (
(360,0,l),
(360,1340,l),
(1060,1340,l),
(1060,780,l),
(339,780,l),
(339,610,l),
(1230,610,l),
(1230,1510,l),
(180,1510,l),
(180,0,l)
);
}
);
width = 1360;
}
);
metricLeft = "=H";
metricRight = "=|O";
unicode = 80;
}
{
glyphname = Q;
kernLeft = O;
kernRight = O;
layers = (
{
layerId = m01;
shapes = (
{
ref = O;
},
{
closed = 1;
nodes = (
(1118,-45,l),
(1245,82,l),
(902,425,l),
(775,298,l)
);
}
);
width = 1340;
}
);
metricLeft = O;
metricRight = "=O-35";
unicode = 81;
}
{
glyphname = R;
layers = (
{
anchors = (
{
name = top;
pos = (627,1500);
}
);
layerId = m01;
shapes = (
{
ref = P;
},
{
closed = 1;
nodes = (
(1116,0,l),
(1182,0,l),
(887,738,l),
(821,738,l)
);
}
);
width = 1380;
},
{
anchors = (
{
name = top;
pos = (627,1500);
}
);
layerId = m002;
shapes = (
{
ref = P;
},
{
closed = 1;
nodes = (
(1016,0,l),
(1210,0,l),
(949,653,l),
(755,653,l)
);
}
);
width = 1360;
},
{
anchors = (
{
name = top;
pos = (627,1500);
}
);
layerId = m003;
shapes = (
{
ref = P;
},
{
closed = 1;
nodes = (
(885,0,l),
(1230,0,l),
(989,723,l),
(644,723,l)
);
}
);
width = 1410;
}
);
metricLeft = "=P";
metricRight = "=P";
unicode = 82;
}
{
glyphname = S;
kernLeft = O;
kernRight = O;
layers = (
{
anchors = (
{
name = bottom;
pos = (683,0);
},
{
name = top;
pos = (693,1500);
}
);
hints = (
{
name = _corner.outside_lg;
options = 2;
origin = (0,1);
scale = (-1,1);
type = Corner;
},
{
name = _corner.outside_sm;
origin = (0,2);
type = Corner;
},
{
name = _corner.inside_sm;
origin = (0,3);
scale = (1.4,1.4);
type = Corner;
},
{
name = _corner.inside_lg;
options = 2;
origin = (0,4);
scale = (-1,1);
type = Corner;
},
{
name = _cap.end_lg_close;
options = 10;
origin = (0,5);
type = Cap;
},
{
name = _corner.outside_lg;
options = 2;
origin = (0,7);
scale = (-1,1);
type = Corner;
},
{
name = _corner.outside_sm;
origin = (0,8);
type = Corner;
},
{
name = _corner.inside_sm;
origin = (0,9);
scale = (1.4,1.4);
type = Corner;
},
{
name = _corner.inside_lg;
options = 2;
origin = (0,10);
scale = (-1,1);
type = Corner;
},
{
name = _cap.end_lg_close;
options = 10;
origin = (0,11);
type = Cap;
}
);
layerId = m01;
shapes = (
{
closed = 1;
nodes = (
(1246,1500,l),
(173,1500,l),
(173,802,l),
(1173,646,l),
(1173,60,l),
(120,60,l),
(120,0,l),
(1233,0,l),
(1233,698,l),
(233,854,l),
(233,1440,l),
(1246,1440,l)
);
}
);
width = 1383;
},
{
anchors = (
{
name = bottom;
pos = (693,0);
},
{
name = top;
pos = (703,1500);
}
);
hints = (
{
name = _corner.outside_lg;
options = 2;
origin = (0,1);
scale = (-1,1);
type = Corner;
},
{
name = _corner.outside_sm;
origin = (0,2);
type = Corner;
},
{
name = _corner.inside_sm;
origin = (0,3);
scale = (1.4,1.4);
type = Corner;
},
{
name = _corner.inside_lg;
options = 2;
origin = (0,4);
scale = (-1,1);
type = Corner;
},
{
name = _cap.end_lg_close;
options = 10;
origin = (0,5);
type = Cap;
},
{
name = _corner.outside_lg;
options = 2;
origin = (0,7);
scale = (-1,1);
type = Corner;
},
{
name = _corner.outside_sm;
origin = (0,8);
type = Corner;
},
{
name = _corner.inside_sm;
origin = (0,9);
scale = (1.4,1.4);
type = Corner;
},
{
name = _corner.inside_lg;
options = 2;
origin = (0,10);
scale = (-1,1);
type = Corner;
},
{
name = _cap.end_lg_close;
options = 10;
origin = (0,11);
type = Cap;
}
);
layerId = m002;
shapes = (
{
closed = 1;
nodes = (
(1256,1500,l),
(183,1500,l),
(183,755,l),
(1063,599,l),
(1063,170,l),
(130,170,l),
(130,0,l),
(1243,0,l),
(1243,745,l),
(363,901,l),
(363,1330,l),
(1256,1330,l)
);
}
);
width = 1386;
},
{
anchors = (
{
name = bottom;
pos = (696,0);
},
{
name = top;
pos = (706,1500);
}
);
hints = (
{
name = _corner.outside_lg;
options = 2;
origin = (0,1);
scale = (-1,1);
type = Corner;
},
{
name = _corner.outside_sm;
origin = (0,2);
scale = (1.5,1.5);
type = Corner;
},
{
name = _corner.inside_sm;
origin = (0,3);
scale = (1.4,1.4);
type = Corner;
},
{
name = _corner.inside_lg;
options = 2;
origin = (0,4);
scale = (-1,1);
type = Corner;
},
{
name = _cap.end_lg_close;
options = 10;
origin = (0,5);
type = Cap;
},
{
name = _corner.outside_lg;
options = 2;
origin = (0,7);
scale = (-1,1);
type = Corner;
},
{
name = _corner.outside_sm;
origin = (0,8);
scale = (1.5,1.5);
type = Corner;
},
{
name = _corner.inside_sm;
origin = (0,9);
scale = (1.4,1.4);
type = Corner;
},
{
name = _corner.inside_lg;
options = 2;
origin = (0,10);
scale = (-1,1);
type = Corner;
},
{
name = _cap.end_lg_close;
options = 10;
origin = (0,11);
type = Cap;
}
);
layerId = m003;
shapes = (
{
closed = 1;
nodes = (
(1269,1510,l),
(136,1510,l),
(136,615,l),
(976,579,l),
(976,310,l),
(123,310,l),
(123,-10,l),
(1296,-10,l),
(1296,885,l),
(456,921,l),
(456,1190,l),
(1269,1190,l)
);
}
);
width = 1416;
}
);
metricLeft = "=O";
metricRight = "=O";
unicode = 83;
}
{
glyphname = T;
kernLeft = T;
kernRight = T;
layers = (
{
anchors = (
{
name = bottom;
pos = (640,0);
},
{
name = top;
pos = (640,1500);
}
);
layerId = m01;
shapes = (
{
closed = 1;
nodes = (
(610,0,l),
(670,0,l),
(670,1480,l),
(610,1480,l)
);
},
{
closed = 1;
nodes = (
(70,1440,l),
(1210,1440,l),
(1210,1500,l),
(70,1500,l)
);
}
);
width = 1280;
},
{
anchors = (
{
name = bottom;
pos = (640,0);
},
{
name = top;
pos = (640,1500);
}
);
layerId = m002;
shapes = (
{
closed = 1;
nodes = (
(550,0,l),
(730,0,l),
(730,1400,l),
(550,1400,l)
);
},
{
closed = 1;
nodes = (
(70,1330,l),
(1210,1330,l),
(1210,1500,l),
(70,1500,l)
);
}
);
width = 1280;
},
{
anchors = (
{
name = bottom;
pos = (650,0);
},
{
name = top;
pos = (650,1500);
}
);
layerId = m003;
shapes = (
{
closed = 1;
nodes = (
(490,0,l),
(810,0,l),
(810,1400,l),
(490,1400,l)
);
},
{
closed = 1;
nodes = (
(80,1180,l),
(1220,1180,l),
(1220,1500,l),
(80,1500,l)
);
}
);
width = 1300;
}
);
metricRight = "=|T";
unicode = 84;
}
{
glyphname = U;
kernLeft = O;
kernRight = O;
layers = (
{
anchors = (
{
name = bottom;
pos = (690,0);
},
{
name = ogonek;
pos = (907,-1);
},
{
name = top;
pos = (690,1500);
}
);
hints = (
{
name = _corner.outside_lg;
origin = (0,1);
type = Corner;
},
{
name = _corner.outside_lg;
origin = (0,1);
type = Corner;
},
{
name = _corner.outside_lg;
options = 2;
origin = (0,2);
scale = (-1,1);
type = Corner;
},
{
name = _corner.inside_lg;
options = 2;
origin = (0,5);
scale = (-1,1);
type = Corner;
},
{
name = _corner.inside_lg;
origin = (0,6);
type = Corner;
}
);
layerId = m01;
shapes = (
{
closed = 1;
nodes = (
(150,1500,l),
(150,-10,l),
(1230,-10,l),
(1230,1500,l),
(1170,1500,l),
(1170,50,l),
(210,50,l),
(210,1500,l)
);
}
);
width = 1380;
},
{
anchors = (
{
name = bottom;
pos = (670,0);
},
{
name = ogonek;
pos = (887,-1);
},
{
name = top;
pos = (670,1500);
}
);
hints = (
{
name = _corner.outside_lg;
origin = (0,1);
type = Corner;
},
{
name = _corner.outside_lg;
origin = (0,1);
type = Corner;
},
{
name = _corner.outside_lg;
options = 2;
origin = (0,2);
scale = (-1,1);
type = Corner;
},
{
name = _corner.inside_lg;
options = 2;
origin = (0,5);
scale = (-1,1);
type = Corner;
},
{
name = _corner.inside_lg;
origin = (0,6);
type = Corner;
}
);
layerId = m002;
shapes = (
{
closed = 1;
nodes = (
(130,1500,l),
(130,-10,l),
(1210,-10,l),
(1210,1500,l),
(1030,1500,l),
(1030,160,l),
(310,160,l),
(310,1500,l)
);
}
);
width = 1340;
},
{
anchors = (
{
name = bottom;
pos = (690,0);
},
{
name = ogonek;
pos = (964,-1);
},
{
name = top;
pos = (690,1500);
}
);
hints = (
{
name = _corner.outside_lg;
origin = (0,1);
type = Corner;
},
{
name = _corner.outside_lg;
origin = (0,1);
type = Corner;
},
{
name = _corner.outside_lg;
options = 2;
origin = (0,2);
scale = (-1,1);
type = Corner;
},
{
name = _corner.inside_lg;
options = 2;
origin = (0,5);
scale = (-1,1);
type = Corner;
},
{
name = _corner.inside_lg;
origin = (0,6);
type = Corner;
}
);
layerId = m003;
shapes = (
{
closed = 1;
nodes = (
(90,1500,l),
(90,-10,l),
(1290,-10,l),
(1290,1500,l),
(970,1500,l),
(970,310,l),
(410,310,l),
(410,1500,l)
);
}
);
width = 1380;
}
);
metricLeft = "=O";
metricRight = "=O";
unicode = 85;
}
{
glyphname = V;
kernLeft = V;
kernRight = V;
layers = (
{
hints = (
{
name = _corner.letter_v;
options = 2;
origin = (0,3);
type = Corner;
}
);
layerId = m01;
shapes = (
{
closed = 1;
nodes = (
(737,0,l),
(1320,1500,l),
(1256,1500,l),
(700,71,l),
(144,1500,l),
(80,1500,l),
(663,0,l)
);
}
);
width = 1400;
},
{
hints = (
{
name = _corner.letter_v;
options = 2;
origin = (0,3);
type = Corner;
}
);
layerId = m002;
shapes = (
{
closed = 1;
nodes = (
(787,0,l),
(1360,1500,l),
(1168,1500,l),
(700,261,l),
(232,1500,l),
(40,1500,l),
(613,0,l)
);
}
);
width = 1400;
},
{
hints = (
{
name = _corner.letter_v;
options = 2;
origin = (0,3);
type = Corner;
}
);
layerId = m003;
shapes = (
{
closed = 1;
nodes = (
(937,0,l),
(1460,1500,l),
(1118,1500,l),
(750,443,l),
(382,1500,l),
(40,1500,l),
(563,0,l)
);
}
);
width = 1500;
}
);
metricRight = "=|V";
unicode = 86;
}
{
glyphname = W;
kernLeft = V;
kernRight = V;
layers = (
{
anchors = (
{
name = top;
pos = (1010,1500);
}
);
hints = (
{
name = _corner.letter_v;
options = 2;
origin = (0,9);
type = Corner;
},
{
name = _corner.letter_v;
options = 2;
origin = (0,6);
type = Corner;
},
{
name = _corner.letter_v;
options = 2;
origin = (0,1);
type = Corner;
}
);
layerId = m01;
shapes = (
{
closed = 1;
nodes = (
(601,0,l),
(1010,1414,l),
(1419,0,l),
(1487,0,l),
(1940,1500,l),
(1877,1500,l),
(1453,95,l),
(1048,1500,l),
(972,1500,l),
(567,95,l),
(143,1500,l),
(80,1500,l),
(533,0,l)
);
}
);
width = 2020;
},
{
anchors = (
{
name = top;
pos = (1030,1500);
}
);
hints = (
{
name = _corner.letter_v;
options = 2;
origin = (0,9);
type = Corner;
},
{
name = _corner.letter_v;
options = 2;
origin = (0,6);
type = Corner;
},
{
name = _corner.letter_v;
options = 2;
origin = (0,1);
type = Corner;
}
);
layerId = m002;
shapes = (
{
closed = 1;
nodes = (
(688,0,l),
(1030,1194,l),
(1372,0,l),
(1567,0,l),
(2020,1500,l),
(1832,1500,l),
(1473,304,l),
(1128,1500,l),
(932,1500,l),
(587,304,l),
(228,1500,l),
(40,1500,l),
(493,0,l)
);
}
);
width = 2060;
},
{
anchors = (
{
name = top;
pos = (1040,1500);
}
);
hints = (
{
name = _corner.letter_v;
options = 2;
origin = (0,9);
type = Corner;
},
{
name = _corner.letter_v;
options = 2;
origin = (0,6);
type = Corner;
},
{
name = _corner.letter_v;
options = 2;
origin = (0,1);
type = Corner;
}
);
layerId = m003;
shapes = (
{
closed = 1;
nodes = (
(858,0,l),
(1040,964,l),
(1222,0,l),
(1697,0,l),
(2040,1500,l),
(1692,1500,l),
(1473,404,l),
(1248,1500,l),
(832,1500,l),
(607,404,l),
(388,1500,l),
(40,1500,l),
(383,0,l)
);
}
);
width = 2080;
}
);
metricLeft = "=V";
metricRight = "=V";
unicode = 87;
}
{
glyphname = X;
kernLeft = X;
kernRight = X;
layers = (
{
layerId = m01;
shapes = (
{
closed = 1;
nodes = (
(1030,0,l),
(600,750,l),
(1030,1500,l),
(960,1500,l),
(560,803,l),
(160,1500,l),
(90,1500,l),
(520,750,l),
(90,0,l),
(160,0,l),
(560,697,l),
(960,0,l)
);
}
);
width = 1120;
},
{
layerId = m002;
shapes = (
{
closed = 1;
nodes = (
(1180,0,l),
(718,750,l),
(1180,1500,l),
(970,1500,l),
(610,899,l),
(250,1500,l),
(40,1500,l),
(502,750,l),
(40,0,l),
(250,0,l),
(610,601,l),
(970,0,l)
);
}
);
width = 1220;
}
);
metricLeft = "=x";
metricRight = "=x";
unicode = 88;
}
{
glyphname = Y;
layers = (
{
anchors = (
{
name = bottom;
pos = (500,0);
},
{
name = top;
pos = (500,1500);
}
);
layerId = m01;
shapes = (
{
closed = 1;
nodes = (
(960,1500,l),
(894,1500,l),
(763,1217,o),
(631,933,o),
(500,650,c),
(369,933,o),
(237,1217,o),
(106,1500,c),
(40,1500,l),
(500,512,l)
);
},
{
closed = 1;
nodes = (
(470,0,l),
(530,0,l),
(530,600,l),
(470,600,l)
);
}
);
width = 1000;
},
{
anchors = (
{
name = bottom;
pos = (600,0);
},
{
name = top;
pos = (600,1500);
}
);
layerId = m002;
shapes = (
{
closed = 1;
nodes = (
(1160,1500,l),
(959,1500,l),
(839,1260,o),
(700,980,o),
(600,750,c),
(500,980,o),
(361,1260,o),
(241,1500,c),
(40,1500,l),
(600,384,l)
);
},
{
closed = 1;
nodes = (
(510,0,l),
(690,0,l),
(690,700,l),
(510,700,l)
);
}
);
width = 1200;
}
);
metricRight = "=|Y";
unicode = 89;
}
{
glyphname = Z;
kernLeft = H;
kernRight = H;
layers = (
{
anchors = (
{
name = bottom;
pos = (668,0);
},
{
name = top;
pos = (668,1500);
}
);
layerId = m01;
shapes = (
{
closed = 1;
nodes = (
(180,1440,l),
(1068,1440,l),
(1068,1420,l),
(190,70,l),
(190,0,l),
(1156,0,l),
(1156,60,l),
(268,60,l),
(268,80,l),
(1146,1430,l),
(1146,1500,l),
(180,1500,l)
);
}
);
width = 1336;
},
{
anchors = (
{
name = bottom;
pos = (718,0);
},
{
name = top;
pos = (718,1500);
}
);
layerId = m002;
shapes = (
{
closed = 1;
nodes = (
(180,1330,l),
(1018,1330,l),
(1018,1310,l),
(190,180,l),
(190,0,l),
(1256,0,l),
(1256,170,l),
(418,170,l),
(418,190,l),
(1246,1320,l),
(1246,1500,l),
(180,1500,l)
);
}
);
width = 1436;
},
{
anchors = (
{
name = bottom;
pos = (708,0);
},
{
name = top;
pos = (708,1500);
}
);
layerId = m003;
shapes = (
{
closed = 1;
nodes = (
(120,1180,l),
(858,1180,l),
(858,1160,l),
(130,330,l),
(130,0,l),
(1296,0,l),
(1296,320,l),
(558,320,l),
(558,340,l),
(1286,1170,l),
(1286,1500,l),
(120,1500,l)
);
}
);
width = 1416;
}
);
metricLeft = "=H";
metricRight = "=H";
unicode = 90;
}
{
glyphname = bracketleft;
kernLeft = parenleft;
kernRight = parenleft;
layers = (
{
layerId = m01;
shapes = (
{
closed = 1;
nodes = (
(180,-370,l),
(614,-370,l),
(614,-310,l),
(240,-310,l),
(240,1810,l),
(614,1810,l),
(614,1870,l),
(180,1870,l)
);
}
);
width = 664;
},
{
layerId = m002;
shapes = (
{
closed = 1;
nodes = (
(180,-370,l),
(734,-370,l),
(734,-200,l),
(360,-200,l),
(360,1700,l),
(734,1700,l),
(734,1870,l),
(180,1870,l)
);
}
);
width = 784;
}
);
metricLeft = "=parenleft";
metricRight = "=parenleft";
unicode = 91;
}
{
glyphname = asciicircum;
layers = (
{
layerId = m01;
shapes = (
{
closed = 1;
nodes = (
(160,900,l),
(358,900,l),
(540,1305,l),
(722,900,l),
(920,900,l),
(627,1500,l),
(453,1500,l)
);
}
);
width = 1080;
}
);
metricRight = "=|asciicircum";
unicode = 94;
}
{
glyphname = a;
kernLeft = o;
kernRight = o;
layers = (
{
anchors = (
{
name = bottom;
pos = (522,0);
},
{
name = ogonek;
pos = (939,0);
},
{
name = top;
pos = (532,1100);
}
);
hints = (
{
name = _corner.outside_md;
options = 2;
origin = (0,0);
scale = (-0.75,0.75);
type = Corner;
},
{
name = _corner.outside_md;
origin = (0,1);
scale = (0.75,0.75);
type = Corner;
},
{
name = _corner.inside_md;
origin = (0,14);
scale = (0.75,0.75);
type = Corner;
},
{
name = _corner.inside_md;
options = 2;
origin = (0,15);
scale = (-0.75,0.75);
type = Corner;
},
{
name = _corner.outside_md;
origin = (1,1);
type = Corner;
},
{
name = _corner.inside_md;
origin = (1,10);
type = Corner;
}
);
layerId = m01;
shapes = (
{
closed = 1;
nodes = (
(125,650,l),
(125,0,l),
(619,0,l),
(736,0,o),
(759,8,o),
(865,119,c),
(879,114,l),
(879,308,l),
(879,231,o),
(866,214,o),
(800,142,c),
(761,100,o),
(711,60,o),
(639,60,c),
(190,60,l),
(190,590,l),
(789,590,l),
(840,590,o),
(879,559,o),
(879,522,c),
(879,638,l),
(865,631,l),
(837,645,o),
(811,650,o),
(759,650,c)
);
},
{
closed = 1;
nodes = (
(939,0,l),
(939,1100,l),
(486,1100,l),
(333,1100,o),
(270,1086,o),
(155,924,c),
(206,891,l),
(293,1020,o),
(346,1040,o),
(476,1040,c),
(879,1040,l),
(879,0,l)
);
}
);
width = 1064;
},
{
anchors = (
{
name = bottom;
pos = (572,0);
},
{
name = ogonek;
pos = (1039,0);
},
{
name = top;
pos = (572,1100);
}
);
hints = (
{
name = _corner.outside_md;
options = 2;
origin = (0,0);
scale = (-0.75,0.75);
type = Corner;
},
{
name = _corner.outside_md;
origin = (0,1);
scale = (0.75,0.75);
type = Corner;
},
{
name = _corner.inside_md;
origin = (0,14);
scale = (0.6,0.6);
type = Corner;
},
{
name = _corner.inside_md;
options = 2;
origin = (0,15);
scale = (-0.6,0.6);
type = Corner;
},
{
name = _corner.outside_md;
origin = (1,1);
type = Corner;
},
{
name = _corner.inside_md;
origin = (1,10);
type = Corner;
}
);
layerId = m002;
shapes = (
{
closed = 1;
nodes = (
(125,670,l),
(125,0,l),
(604,0,l),
(721,0,o),
(744,8,o),
(850,119,c),
(864,114,l),
(864,388,l),
(864,311,o),
(851,294,o),
(785,222,c),
(746,180,o),
(696,170,o),
(624,170,c),
(300,170,l),
(300,505,l),
(784,505,l),
(835,505,o),
(864,475,o),
(864,439,c),
(864,658,l),
(850,652,l),
(822,665,o),
(796,670,o),
(744,670,c)
);
},
{
closed = 1;
nodes = (
(1039,0,l),
(1039,1100,l),
(466,1100,l),
(313,1100,o),
(250,1087,o),
(135,934,c),
(287,856,l),
(356,931,o),
(382,940,o),
(456,940,c),
(864,940,l),
(864,0,l)
);
}
);
width = 1164;
},
{
anchors = (
{
name = bottom;
pos = (631,0);
},
{
name = ogonek;
pos = (1128,0);
},
{
name = top;
pos = (631,1100);
}
);
hints = (
{
name = _corner.outside_md;
options = 2;
origin = (0,0);
scale = (-0.75,0.75);
type = Corner;
},
{
name = _corner.outside_md;
origin = (0,1);
scale = (0.75,0.75);
type = Corner;
},
{
name = _corner.inside_md;
origin = (0,14);
scale = (0.3,0.3);
type = Corner;
},
{
name = _corner.inside_md;
options = 2;
origin = (0,15);
scale = (-0.3,0.3);
type = Corner;
},
{
name = _corner.outside_md;
origin = (1,1);
type = Corner;
},
{
name = _corner.inside_md;
origin = (1,10);
type = Corner;
}
);
layerId = m003;
shapes = (
{
closed = 1;
nodes = (
(94,710,l),
(94,0,l),
(653,0,ls),
(737,0,o),
(761,13,o),
(819,68,c),
(833,63,l),
(833,375,l),
(833,361,o),
(830,352,o),
(824,347,cs),
(815,341,o),
(801,340,o),
(778,340,cs),
(389,340,l),
(389,405,l),
(775,405,ls),
(811,405,o),
(833,407,o),
(833,376,cs),
(833,688,l),
(819,675,l),
(806,701,o),
(784,710,o),
(713,710,cs)
);
},
{
closed = 1;
nodes = (
(1128,0,l),
(1128,1100,l),
(435,1100,ls),
(262,1100,o),
(185,1042,o),
(70,875,c),
(238,755,l),
(259,766,o),
(283,770,o),
(335,770,cs),
(833,770,l),
(833,0,l)
);
}
);
width = 1198;
}
);
metricLeft = "=o";
metricRight = "=o";
unicode = 97;
}
{
glyphname = b;
kernLeft = H;
kernRight = o;
layers = (
{
anchors = (
{
name = bottom;
pos = (535,0);
}
);
hints = (
{
name = _corner.inside_md;
origin = (1,1);
type = Corner;
},
{
name = _corner.outside_md;
origin = (1,6);
type = Corner;
},
{
name = _cap.shoulder_md;
options = 9;
origin = (1,7);
type = Cap;
},
{
name = _cap.shoulder_md;
options = 10;
origin = (1,3);
scale = (1,-1);
type = Cap;
},
{
name = _corner.inside_md;
origin = (1,2);
type = Corner;
},
{
name = _corner.outside_md;
origin = (1,5);
type = Corner;
}
);
layerId = m01;
shapes = (
{
closed = 1;
nodes = (
(160,0,l),
(220,0,l),
(220,1500,l),
(160,1500,l)
);
},
{
closed = 1;
nodes = (
(320,1040,l),
(895,1040,l),
(895,60,l),
(320,60,l),
(320,0,l),
(955,0,l),
(955,1100,l),
(320,1100,l)
);
}
);
width = 1080;
},
{
anchors = (
{
name = bottom;
pos = (620,0);
}
);
hints = (
{
name = _corner.inside_md;
origin = (1,1);
type = Corner;
},
{
name = _corner.outside_md;
origin = (1,6);
type = Corner;
},
{
name = _cap.shoulder_md;
options = 9;
origin = (1,7);
type = Cap;
},
{
name = _cap.shoulder_md;
options = 10;
origin = (1,3);
scale = (1.02941,-1);
type = Cap;
},
{
name = _corner.inside_md;
origin = (1,2);
type = Corner;
},
{
name = _corner.outside_md;
origin = (1,5);
type = Corner;
}
);
layerId = m002;
shapes = (
{
closed = 1;
nodes = (
(160,0,l),
(335,0,l),
(335,1500,l),
(160,1500,l)
);
},
{
closed = 1;
nodes = (
(435,930,l),
(895,930,l),
(895,175,l),
(435,175,l),
(435,0,l),
(1070,0,l),
(1070,1100,l),
(435,1100,l)
);
}
);
width = 1195;
},
{
anchors = (
{
name = bottom;
pos = (570,0);
}
);
hints = (
{
name = _corner.inside_md;
origin = (1,1);
type = Corner;
},
{
name = _corner.outside_md;
origin = (1,6);
type = Corner;
},
{
name = _cap.shoulder_md;
options = 9;
origin = (1,7);
type = Cap;
},
{
name = _cap.shoulder_md;
options = 10;
origin = (1,3);
scale = (1.01563,-1);
type = Cap;
},
{
name = _corner.inside_md;
origin = (1,2);
type = Corner;
},
{
name = _corner.outside_md;
origin = (1,5);
type = Corner;
}
);
layerId = m003;
shapes = (
{
closed = 1;
nodes = (
(110,0,l),
(430,0,l),
(430,1500,l),
(110,1500,l)
);
},
{
closed = 1;
nodes = (
(530,780,l),
(800,780,l),
(800,325,l),
(530,325,l),
(530,0,l),
(1120,0,l),
(1120,1100,l),
(530,1100,l)
);
}
);
width = 1200;
}
);
metricLeft = "=n";
metricRight = "=o";
unicode = 98;
}
{
glyphname = c;
kernLeft = o;
kernRight = o;
layers = (
{
anchors = (
{
name = bottom;
pos = (532,0);
},
{
name = top;
pos = (532,1100);
}
);
hints = (
{
name = _corner.outside_md;
origin = (0,2);
type = Corner;
},
{
name = _corner.outside_md;
options = 2;
origin = (0,1);
scale = (-1,1);
type = Corner;
},
{
name = _corner.inside_md;
origin = (0,5);
type = Corner;
},
{
name = _corner.inside_md;
options = 2;
origin = (0,6);
scale = (-1,1);
type = Corner;
},
{
name = _cap.end_md;
options = 10;
origin = (0,7);
type = Cap;
},
{
name = _cap.end_md;
options = 10;
origin = (0,3);
scale = (1,-1);
type = Cap;
}
);
layerId = m01;
shapes = (
{
closed = 1;
nodes = (
(884,1100,l),
(125,1100,l),
(125,0,l),
(884,0,l),
(884,60,l),
(185,60,l),
(185,1040,l),
(884,1040,l)
);
}
);
width = 1044;
},
{
anchors = (
{
name = bottom;
pos = (562,0);
},
{
name = top;
pos = (562,1100);
}
);
hints = (
{
name = _corner.outside_md;
origin = (0,2);
type = Corner;
},
{
name = _corner.outside_md;
options = 2;
origin = (0,1);
scale = (-1,1);
type = Corner;
},
{
name = _corner.inside_md;
origin = (0,5);
type = Corner;
},
{
name = _corner.inside_md;
options = 2;
origin = (0,6);
scale = (-1,1);
type = Corner;
},
{
name = _cap.end_md;
options = 10;
origin = (0,7);
type = Cap;
},
{
name = _cap.end_md;
options = 10;
origin = (0,3);
scale = (1,-1);
type = Cap;
}
);
layerId = m002;
shapes = (
{
closed = 1;
nodes = (
(984,1100,l),
(125,1100,l),
(125,0,l),
(984,0,l),
(984,170,l),
(300,170,l),
(300,930,l),
(984,930,l)
);
}
);
width = 1044;
},
{
anchors = (
{
name = bottom;
pos = (547,0);
},
{
name = top;
pos = (547,1100);
}
);
hints = (
{
name = _corner.outside_md;
origin = (0,2);
type = Corner;
},
{
name = _corner.outside_md;
options = 2;
origin = (0,1);
scale = (-1,1);
type = Corner;
},
{
name = _corner.inside_md;
origin = (0,5);
type = Corner;
},
{
name = _corner.inside_md;
options = 2;
origin = (0,6);
scale = (-1,1);
type = Corner;
},
{
name = _cap.end_md;
options = 10;
origin = (0,7);
type = Cap;
},
{
name = _cap.end_md;
options = 10;
origin = (0,3);
scale = (1,-1);
type = Cap;
}
);
layerId = m003;
shapes = (
{
closed = 1;
nodes = (
(979,1100,l),
(80,1100,l),
(80,0,l),
(979,0,l),
(979,320,l),
(400,320,l),
(400,780,l),
(979,780,l)
);
}
);
width = 999;
}
);
metricLeft = "=o";
unicode = 99;
}
{
glyphname = e;
kernLeft = o;
kernRight = o;
layers = (
{
anchors = (
{
name = bottom;
pos = (555,0);
},
{
name = ogonek;
pos = (746,5);
},
{
name = top;
pos = (555,1100);
}
);
hints = (
{
name = _corner.outside_md;
origin = (0,5);
type = Corner;
},
{
name = _corner.outside_md;
origin = (0,3);
type = Corner;
},
{
name = _corner.outside_md;
options = 2;
origin = (0,4);
scale = (-1,1);
type = Corner;
},
{
name = _corner.inside_md;
origin = (0,10);
type = Corner;
},
{
name = _corner.inside_md;
origin = (0,8);
type = Corner;
},
{
name = _corner.inside_md;
options = 2;
origin = (0,9);
scale = (-1,1);
type = Corner;
},
{
origin = (0,4);
target = (0,9);
type = Stem;
},
{
name = _cap.end_sm;
options = 10;
origin = (0,6);
scale = (1,-1);
type = Cap;
}
);
layerId = m01;
shapes = (
{
closed = 1;
nodes = (
(138,587,l),
(138,527,l),
(985,527,l),
(985,1100,l),
(125,1100,l),
(125,0,l),
(978,0,l),
(978,60,l),
(185,60,l),
(185,1040,l),
(925,1040,l),
(925,587,l)
);
}
);
width = 1110;
},
{
anchors = (
{
name = bottom;
pos = (575,0);
},
{
name = ogonek;
pos = (815,10);
},
{
name = top;
pos = (575,1100);
}
);
hints = (
{
name = _corner.outside_md;
origin = (0,5);
type = Corner;
},
{
name = _corner.outside_md;
origin = (0,3);
type = Corner;
},
{
name = _corner.outside_md;
options = 2;
origin = (0,4);
scale = (-1,1);
type = Corner;
},
{
name = _corner.inside_md;
origin = (0,10);
type = Corner;
},
{
name = _corner.inside_md;
origin = (0,8);
type = Corner;
},
{
name = _corner.inside_md;
options = 2;
origin = (0,9);
scale = (-1,1);
type = Corner;
},
{
origin = (0,4);
target = (0,9);
type = Stem;
},
{
name = _cap.end_sm;
options = 10;
origin = (0,6);
scale = (1,-1);
type = Cap;
}
);
layerId = m002;
shapes = (
{
closed = 1;
nodes = (
(218,637,l),
(218,472,l),
(1025,472,l),
(1025,1100,l),
(125,1100,l),
(125,0,l),
(1018,0,l),
(1018,170,l),
(300,170,l),
(300,930,l),
(850,930,l),
(850,637,l)
);
}
);
width = 1150;
},
{
anchors = (
{
name = bottom;
pos = (580,0);
},
{
name = ogonek;
pos = (794,4);
},
{
name = top;
pos = (580,1100);
}
);
hints = (
{
name = _corner.outside_md;
origin = (0,5);
type = Corner;
},
{
name = _corner.outside_md;
origin = (0,3);
type = Corner;
},
{
name = _corner.outside_md;
options = 2;
origin = (0,4);
scale = (-1,1);
type = Corner;
},
{
name = _corner.inside_md;
origin = (0,10);
type = Corner;
},
{
name = _corner.inside_md;
origin = (0,8);
type = Corner;
},
{
name = _corner.inside_md;
options = 2;
origin = (0,9);
scale = (-1,1);
type = Corner;
},
{
origin = (0,4);
target = (0,9);
type = Stem;
},
{
name = _cap.end_sm;
options = 10;
origin = (0,6);
scale = (0.96875,-1);
type = Cap;
}
);
layerId = m003;
shapes = (
{
closed = 1;
nodes = (
(173,647,l),
(173,436,l),
(1060,436,l),
(1060,1100,l),
(80,1100,l),
(80,0,l),
(1053,0,l),
(1053,310,l),
(395,310,l),
(395,790,l),
(745,790,l),
(745,647,l)
);
}
);
width = 1140;
}
);
metricLeft = "=o";
metricRight = "=o";
unicode = 101;
}
{
glyphname = f;
kernLeft = f;
kernRight = f;
layers = (
{
hints = (
{
name = _corner.outside_md;
origin = (0,3);
type = Corner;
},
{
name = _corner.inside_md;
origin = (0,0);
type = Corner;
}
);
layerId = m01;
shapes = (
{
closed = 1;
nodes = (
(267,1440,l),
(743,1440,l),
(743,1500,l),
(207,1500,l),
(207,0,l),
(267,0,l)
);
},
{
closed = 1;
nodes = (
(90,1040,l),
(683,1040,l),
(683,1100,l),
(90,1100,l)
);
}
);
width = 803;
},
{
hints = (
{
name = _corner.outside_md;
origin = (0,3);
type = Corner;
},
{
name = _corner.inside_md;
origin = (0,0);
type = Corner;
}
);
layerId = m002;
shapes = (
{
closed = 1;
nodes = (
(382,1330,l),
(743,1330,l),
(743,1500,l),
(207,1500,l),
(207,0,l),
(382,0,l)
);
},
{
closed = 1;
nodes = (
(90,930,l),
(683,930,l),
(683,1100,l),
(90,1100,l)
);
}
);
width = 803;
},
{
hints = (
{
name = _corner.outside_md;
origin = (0,3);
type = Corner;
},
{
name = _corner.inside_md;
origin = (0,0);
type = Corner;
}
);
layerId = m003;
shapes = (
{
closed = 1;
nodes = (
(497,1210,l),
(798,1210,l),
(798,1500,l),
(177,1500,l),
(177,0,l),
(497,0,l)
);
},
{
closed = 1;
nodes = (
(60,780,l),
(773,780,l),
(773,1100,l),
(60,1100,l)
);
}
);
width = 818;
}
);
metricLeft = "=t";
unicode = 102;
}
{
glyphname = g;
kernLeft = o;
kernRight = q;
layers = (
{
anchors = (
{
name = top;
pos = (565,1100);
}
);
hints = (
{
name = _corner.inside_md;
options = 1;
origin = (1,5);
scale = (-1,1);
type = Corner;
},
{
name = _corner.inside_md;
options = 1;
origin = (1,4);
scale = (-1,1);
type = Corner;
},
{
name = _cap.shoulder_md;
options = 10;
origin = (1,2);
scale = (-1.08333,-1);
target = (1,1);
type = Cap;
},
{
name = _corner.outside_md;
options = 1;
origin = (1,1);
scale = (-1,1);
type = Corner;
},
{
name = _corner.outside_md;
options = 1;
origin = (1,0);
scale = (-1,1);
type = Corner;
},
{
name = _cap.shoulder_md;
options = 8;
origin = (1,6);
scale = (-1,1);
target = (1,1);
type = Cap;
},
{
name = _cap.end_sm;
options = 10;
origin = (0,2);
type = Cap;
},
{
name = _corner.inside_md;
origin = (0,1);
type = Corner;
},
{
name = _corner.outside_md;
origin = (0,4);
type = Corner;
}
);
layerId = m01;
shapes = (
{
closed = 1;
nodes = (
(860,1100,l),
(860,-400,l),
(125,-400,l),
(125,-460,l),
(920,-460,l),
(920,1100,l)
);
},
{
closed = 1;
nodes = (
(125,1100,l),
(125,0,l),
(760,0,l),
(760,65,l),
(185,65,l),
(185,1040,l),
(760,1040,l),
(760,1100,l)
);
}
);
width = 1080;
},
{
anchors = (
{
name = top;
pos = (565,1100);
}
);
hints = (
{
name = _corner.inside_md;
options = 1;
origin = (1,5);
scale = (-1,1);
type = Corner;
},
{
name = _corner.inside_md;
options = 1;
origin = (1,4);
scale = (-1,1);
type = Corner;
},
{
name = _cap.shoulder_md;
options = 10;
origin = (1,2);
scale = (-1.02941,-1);
target = (1,1);
type = Cap;
},
{
name = _corner.outside_md;
options = 1;
origin = (1,1);
scale = (-1,1);
type = Corner;
},
{
name = _corner.outside_md;
options = 1;
origin = (1,0);
scale = (-1,1);
type = Corner;
},
{
name = _cap.shoulder_md;
options = 8;
origin = (1,6);
scale = (-1,1);
target = (1,1);
type = Cap;
},
{
name = _cap.end_sm;
options = 10;
origin = (0,2);
scale = (0.94118,1);
type = Cap;
},
{
name = _corner.inside_md;
origin = (0,1);
type = Corner;
},
{
name = _corner.outside_md;
origin = (0,4);
type = Corner;
}
);
layerId = m002;
shapes = (
{
closed = 1;
nodes = (
(860,1100,l),
(860,-300,l),
(125,-300,l),
(125,-460,l),
(1035,-460,l),
(1035,1100,l)
);
},
{
closed = 1;
nodes = (
(125,1100,l),
(125,0,l),
(760,0,l),
(760,175,l),
(300,175,l),
(300,930,l),
(760,930,l),
(760,1100,l)
);
}
);
width = 1195;
},
{
anchors = (
{
name = top;
pos = (663,1100);
}
);
hints = (
{
name = _corner.inside_md;
options = 1;
origin = (1,5);
scale = (-1,1);
type = Corner;
},
{
name = _corner.inside_md;
options = 1;
origin = (1,4);
scale = (-1,1);
type = Corner;
},
{
name = _cap.shoulder_md;
options = 10;
origin = (1,2);
scale = (-0.98438,-1);
target = (1,1);
type = Cap;
},
{
name = _corner.outside_md;
options = 1;
origin = (1,1);
scale = (-1,1);
type = Corner;
},
{
name = _corner.outside_md;
options = 1;
origin = (1,0);
scale = (-1,1);
type = Corner;
},
{
name = _cap.shoulder_md;
options = 8;
origin = (1,6);
scale = (-1,1);
target = (1,1);
type = Cap;
},
{
name = _cap.end_sm;
options = 10;
origin = (0,2);
type = Cap;
},
{
name = _corner.inside_md;
origin = (0,1);
type = Corner;
},
{
name = _corner.outside_md;
origin = (0,4);
type = Corner;
}
);
layerId = m003;
shapes = (
{
closed = 1;
nodes = (
(828,1100,l),
(828,-140,l),
(73,-140,l),
(73,-460,l),
(1153,-460,l),
(1153,1100,l)
);
},
{
closed = 1;
nodes = (
(93,1100,l),
(93,0,l),
(728,0,l),
(728,315,l),
(418,315,l),
(418,780,l),
(728,780,l),
(728,1100,l)
);
}
);
width = 1233;
}
);
metricLeft = "=o";
metricRight = "=n";
unicode = 103;
}
{
glyphname = h;
kernLeft = H;
kernRight = n;
layers = (
{
anchors = (
{
name = top;
pos = (190,1500);
}
);
hints = (
{
name = _corner.inside_md;
origin = (1,1);
type = Corner;
},
{
name = _corner.outside_md;
origin = (1,4);
type = Corner;
},
{
name = _cap.letter_n;
options = 9;
origin = (1,5);
type = Cap;
}
);
layerId = m01;
shapes = (
{
closed = 1;
nodes = (
(160,0,l),
(220,0,l),
(220,1500,l),
(160,1500,l)
);
},
{
closed = 1;
nodes = (
(320,1040,l),
(875,1040,l),
(875,0,l),
(935,0,l),
(935,1100,l),
(320,1100,l)
);
}
);
width = 1095;
},
{
anchors = (
{
name = top;
pos = (247,1500);
}
);
hints = (
{
name = _corner.inside_md;
origin = (1,1);
type = Corner;
},
{
name = _corner.outside_md;
origin = (1,4);
type = Corner;
},
{
name = _cap.letter_n;
options = 9;
origin = (1,5);
type = Cap;
}
);
layerId = m002;
shapes = (
{
closed = 1;
nodes = (
(160,0,l),
(335,0,l),
(335,1500,l),
(160,1500,l)
);
},
{
closed = 1;
nodes = (
(435,930,l),
(875,930,l),
(875,0,l),
(1050,0,l),
(1050,1100,l),
(435,1100,l)
);
}
);
width = 1210;
}
);
metricLeft = "=n";
metricRight = "=n";
unicode = 104;
}
{
glyphname = k;
kernLeft = H;
kernRight = k;
layers = (
{
anchors = (
{
name = bottom;
pos = (459,0);
}
);
layerId = m01;
shapes = (
{
closed = 1;
nodes = (
(160,0,l),
(220,0,l),
(220,1500,l),
(160,1500,l)
);
},
{
closed = 1;
nodes = (
(343,615,l),
(210,615,l),
(210,545,l),
(343,545,l),
(822,0,l),
(902,0,l),
(394,579,l),
(894,1100,l),
(802,1100,l)
);
}
);
width = 952;
},
{
anchors = (
{
name = bottom;
pos = (534,0);
}
);
layerId = m002;
shapes = (
{
closed = 1;
nodes = (
(160,0,l),
(335,0,l),
(335,1500,l),
(160,1500,l)
);
},
{
closed = 1;
nodes = (
(398,685,l),
(325,685,l),
(325,475,l),
(398,475,l),
(820,0,l),
(1057,0,l),
(537,579,l),
(1049,1100,l),
(800,1100,l)
);
}
);
width = 1067;
}
);
metricLeft = "=n";
unicode = 107;
}
{
glyphname = l;
kernLeft = H;
kernRight = l;
layers = (
{
anchors = (
{
name = bottom;
pos = (294,0);
},
{
name = top;
pos = (190,1500);
},
{
name = topright;
pos = (275,1050);
}
);
layerId = m01;
shapes = (
{
closed = 1;
nodes = (
(160,1500,l),
(160,180,ls),
(160,63,o),
(223,0,o),
(340,0,cs),
(456,0,l),
(456,60,l),
(340,60,ls),
(262,60,o),
(220,102,o),
(220,180,cs),
(220,1500,l)
);
}
);
width = 576;
},
{
anchors = (
{
name = bottom;
pos = (294,0);
},
{
name = top;
pos = (247,1500);
},
{
name = topright;
pos = (435,1050);
}
);
layerId = m002;
shapes = (
{
closed = 1;
nodes = (
(160,1500,l),
(160,230,ls),
(160,80,o),
(241,0,o),
(390,0,cs),
(456,0,l),
(456,170,l),
(395,170,ls),
(356,170,o),
(335,191,o),
(335,230,cs),
(335,1500,l)
);
}
);
width = 576;
},
{
anchors = (
{
name = bottom;
pos = (379,0);
},
{
name = top;
pos = (270,1500);
},
{
name = topright;
pos = (470,1050);
}
);
layerId = m003;
shapes = (
{
closed = 1;
nodes = (
(110,1500,l),
(110,360,ls),
(110,126,o),
(236,0,o),
(470,0,cs),
(591,0,l),
(591,320,l),
(490,320,ls),
(451,320,o),
(430,341,o),
(430,380,cs),
(430,1500,l)
);
}
);
width = 631;
}
);
metricLeft = "=idotless";
unicode = 108;
}
{
glyphname = m;
kernLeft = n;
kernRight = n;
layers = (
{
anchors = (
{
name = bottom;
pos = (789,0);
},
{
name = top;
pos = (792,1100);
}
);
hints = (
{
name = _corner.inside_md;
origin = (1,1);
scale = (0.7,0.7);
type = Corner;
},
{
name = _corner.outside_md;
origin = (1,4);
scale = (0.8,0.8);
type = Corner;
},
{
name = _cap.letter_n;
options = 9;
origin = (1,5);
type = Cap;
},
{
name = _corner.inside_md;
origin = (2,1);
scale = (0.7,0.7);
type = Corner;
},
{
name = _corner.outside_md;
origin = (2,4);
scale = (0.8,0.8);
type = Corner;
},
{
name = _cap.letter_m;
options = 10;
origin = (2,5);
scale = (1.07143,1);
type = Cap;
}
);
layerId = m01;
shapes = (
{
closed = 1;
nodes = (
(160,0,l),
(220,0,l),
(220,1100,l),
(160,1100,l)
);
},
{
closed = 1;
nodes = (
(320,1040,l),
(760,1040,l),
(760,0,l),
(820,0,l),
(820,1100,l),
(320,1100,l)
);
},
{
closed = 1;
nodes = (
(920,1040,l),
(1360,1040,l),
(1360,0,l),
(1420,0,l),
(1420,1100,l),
(920,1100,l)
);
}
);
width = 1580;
},
{
anchors = (
{
name = bottom;
pos = (872,0);
},
{
name = top;
pos = (872,1100);
}
);
hints = (
{
name = _corner.inside_md;
origin = (1,1);
scale = (0.7,0.7);
type = Corner;
},
{
name = _corner.outside_md;
origin = (1,4);
scale = (0.8,0.8);
type = Corner;
},
{
name = _cap.letter_n;
options = 9;
origin = (1,5);
type = Cap;
},
{
name = _corner.inside_md;
origin = (2,1);
scale = (0.7,0.7);
type = Corner;
},
{
name = _corner.outside_md;
origin = (2,4);
scale = (0.8,0.8);
type = Corner;
},
{
name = _cap.letter_m;
options = 10;
origin = (2,5);
type = Cap;
}
);
layerId = m002;
shapes = (
{
closed = 1;
nodes = (
(160,0,l),
(335,0,l),
(335,1100,l),
(160,1100,l)
);
},
{
closed = 1;
nodes = (
(435,930,l),
(775,930,l),
(775,0,l),
(950,0,l),
(950,1100,l),
(435,1100,l)
);
},
{
closed = 1;
nodes = (
(1050,930,l),
(1390,930,l),
(1390,0,l),
(1565,0,l),
(1565,1100,l),
(1050,1100,l)
);
}
);
width = 1725;
},
{
anchors = (
{
name = bottom;
pos = (882,0);
},
{
name = top;
pos = (932,1100);
}
);
hints = (
{
name = _corner.inside_md;
origin = (1,1);
type = Corner;
},
{
name = _corner.outside_md;
origin = (1,4);
scale = (0.8,0.8);
type = Corner;
},
{
name = _cap.letter_n;
options = 9;
origin = (1,5);
type = Cap;
},
{
name = _corner.inside_md;
origin = (2,1);
type = Corner;
},
{
name = _corner.outside_md;
origin = (2,4);
scale = (0.8,0.8);
type = Corner;
},
{
name = _cap.letter_m;
options = 10;
origin = (2,5);
type = Cap;
}
);
layerId = m003;
shapes = (
{
closed = 1;
nodes = (
(80,0,l),
(395,0,l),
(395,1100,l),
(80,1100,l)
);
},
{
closed = 1;
nodes = (
(495,780,l),
(725,780,l),
(725,0,l),
(1040,0,l),
(1040,1100,l),
(495,1100,l)
);
},
{
closed = 1;
nodes = (
(1140,780,l),
(1370,780,l),
(1370,0,l),
(1685,0,l),
(1685,1100,l),
(1140,1100,l)
);
}
);
width = 1765;
}
);
metricLeft = "=n";
metricRight = "=n";
unicode = 109;
}
{
glyphname = n;
kernLeft = n;
kernRight = n;
layers = (
{
anchors = (
{
name = top;
pos = (515,1100);
}
);
hints = (
{
name = _corner.inside_md;
origin = (1,1);
type = Corner;
},
{
name = _corner.outside_md;
origin = (1,4);
type = Corner;
},
{
name = _cap.letter_n;
options = 9;
origin = (1,5);
type = Cap;
}
);
layerId = m01;
shapes = (
{
closed = 1;
nodes = (
(160,0,l),
(220,0,l),
(220,1100,l),
(160,1100,l)
);
},
{
closed = 1;
nodes = (
(320,1040,l),
(860,1040,l),
(860,0,l),
(920,0,l),
(920,1100,l),
(320,1100,l)
);
}
);
width = 1080;
},
{
anchors = (
{
name = top;
pos = (625,1100);
}
);
hints = (
{
name = _corner.inside_md;
origin = (1,1);
type = Corner;
},
{
name = _corner.outside_md;
origin = (1,4);
type = Corner;
},
{
name = _cap.letter_n;
options = 9;
origin = (1,5);
type = Cap;
}
);
layerId = m002;
shapes = (
{
closed = 1;
nodes = (
(160,0,l),
(335,0,l),
(335,1100,l),
(160,1100,l)
);
},
{
closed = 1;
nodes = (
(435,930,l),
(875,930,l),
(875,0,l),
(1050,0,l),
(1050,1100,l),
(435,1100,l)
);
}
);
width = 1210;
},
{
anchors = (
{
name = top;
pos = (605,1100);
}
);
hints = (
{
name = _corner.inside_md;
origin = (1,1);
type = Corner;
},
{
name = _corner.outside_md;
origin = (1,4);
type = Corner;
},
{
name = _cap.letter_n;
options = 9;
origin = (1,5);
type = Cap;
}
);
layerId = m003;
shapes = (
{
closed = 1;
nodes = (
(110,0,l),
(435,0,l),
(435,1100,l),
(110,1100,l)
);
},
{
closed = 1;
nodes = (
(535,780,l),
(785,780,l),
(785,0,l),
(1110,0,l),
(1110,1100,l),
(535,1100,l)
);
}
);
width = 1220;
}
);
metricRight = "=|n";
unicode = 110;
}
{
glyphname = o;
kernLeft = o;
kernRight = o;
layers = (
{
anchors = (
{
name = top;
pos = (575,1100);
}
);
hints = (
{
name = _corner.outside_md;
origin = (0,0);
type = Corner;
},
{
name = _corner.outside_md;
options = 2;
origin = (0,1);
scale = (-1,1);
type = Corner;
},
{
name = _corner.outside_md;
origin = (0,2);
type = Corner;
},
{
name = _corner.outside_md;
options = 2;
origin = (0,3);
scale = (-1,1);
type = Corner;
},
{
name = _corner.inside_md;
origin = (1,0);
type = Corner;
},
{
name = _corner.inside_md;
options = 2;
origin = (1,1);
scale = (-1,1);
type = Corner;
},
{
name = _corner.inside_md;
origin = (1,2);
type = Corner;
},
{
name = _corner.inside_md;
options = 2;
origin = (1,3);
scale = (-1,1);
type = Corner;
}
);
layerId = m01;
shapes = (
{
closed = 1;
nodes = (
(125,-10,l),
(1025,-10,l),
(1025,1110,l),
(125,1110,l)
);
},
{
closed = 1;
nodes = (
(965,1050,l),
(965,50,l),
(185,50,l),
(185,1050,l)
);
}
);
width = 1150;
},
{
anchors = (
{
name = top;
pos = (575,1100);
}
);
hints = (
{
name = _corner.outside_md;
origin = (0,0);
type = Corner;
},
{
name = _corner.outside_md;
options = 2;
origin = (0,1);
scale = (-1,1);
type = Corner;
},
{
name = _corner.outside_md;
origin = (0,2);
type = Corner;
},
{
name = _corner.outside_md;
options = 2;
origin = (0,3);
scale = (-1,1);
type = Corner;
},
{
name = _corner.inside_md;
origin = (1,0);
type = Corner;
},
{
name = _corner.inside_md;
options = 2;
origin = (1,1);
scale = (-1,1);
type = Corner;
},
{
name = _corner.inside_md;
origin = (1,2);
type = Corner;
},
{
name = _corner.inside_md;
options = 2;
origin = (1,3);
scale = (-1,1);
type = Corner;
}
);
layerId = m002;
shapes = (
{
closed = 1;
nodes = (
(125,-10,l),
(1025,-10,l),
(1025,1110,l),
(125,1110,l)
);
},
{
closed = 1;
nodes = (
(850,940,l),
(850,160,l),
(300,160,l),
(300,940,l)
);
}
);
width = 1150;
}
);
metricRight = "=|o";
unicode = 111;
}
{
glyphname = p;
kernLeft = p;
kernRight = o;
layers = (
{
hints = (
{
name = _corner.inside_md;
origin = (1,1);
type = Corner;
},
{
name = _corner.inside_md;
origin = (1,2);
type = Corner;
},
{
name = _cap.shoulder_md;
options = 10;
origin = (1,3);
scale = (1.08333,-1);
type = Cap;
},
{
name = _corner.outside_md;
origin = (1,5);
type = Corner;
},
{
name = _corner.outside_md;
origin = (1,6);
type = Corner;
},
{
name = _cap.shoulder_md;
options = 9;
origin = (1,7);
type = Cap;
}
);
layerId = m01;
shapes = (
{
closed = 1;
nodes = (
(160,-420,l),
(220,-420,l),
(220,1100,l),
(160,1100,l)
);
},
{
closed = 1;
nodes = (
(320,1040,l),
(895,1040,l),
(895,65,l),
(320,65,l),
(320,0,l),
(955,0,l),
(955,1100,l),
(320,1100,l)
);
}
);
width = 1080;
},
{
hints = (
{
name = _corner.inside_md;
origin = (1,1);
type = Corner;
},
{
name = _corner.inside_md;
origin = (1,2);
type = Corner;
},
{
name = _cap.shoulder_md;
options = 10;
origin = (1,3);
scale = (1.02941,-1);
type = Cap;
},
{
name = _corner.outside_md;
origin = (1,5);
type = Corner;
},
{
name = _corner.outside_md;
origin = (1,6);
type = Corner;
},
{
name = _cap.shoulder_md;
options = 9;
origin = (1,7);
type = Cap;
}
);
layerId = m002;
shapes = (
{
closed = 1;
nodes = (
(160,-420,l),
(335,-420,l),
(335,1100,l),
(160,1100,l)
);
},
{
closed = 1;
nodes = (
(435,930,l),
(895,930,l),
(895,175,l),
(435,175,l),
(435,0,l),
(1070,0,l),
(1070,1100,l),
(435,1100,l)
);
}
);
width = 1195;
},
{
hints = (
{
name = _corner.inside_md;
origin = (1,1);
type = Corner;
},
{
name = _corner.inside_md;
origin = (1,2);
type = Corner;
},
{
name = _cap.shoulder_md;
options = 10;
origin = (1,3);
scale = (1.01563,-1);
type = Cap;
},
{
name = _corner.outside_md;
origin = (1,5);
type = Corner;
},
{
name = _corner.outside_md;
origin = (1,6);
type = Corner;
},
{
name = _cap.shoulder_md;
options = 9;
origin = (1,7);
type = Cap;
}
);
layerId = m003;
shapes = (
{
closed = 1;
nodes = (
(80,-420,l),
(399,-420,l),
(399,1100,l),
(80,1100,l)
);
},
{
closed = 1;
nodes = (
(499,780,l),
(814,780,l),
(814,325,l),
(499,325,l),
(499,0,l),
(1134,0,l),
(1134,1100,l),
(499,1100,l)
);
}
);
width = 1204;
}
);
metricLeft = "=b";
metricRight = "=b";
unicode = 112;
}
{
glyphname = r;
kernLeft = n;
kernRight = r;
layers = (
{
anchors = (
{
name = bottom;
pos = (190,0);
},
{
name = top;
pos = (400,1100);
}
);
hints = (
{
name = _cap.letter_n;
options = 9;
origin = (1,3);
type = Cap;
},
{
name = _cap.letter_r;
options = 10;
origin = (1,1);
type = Cap;
}
);
layerId = m01;
shapes = (
{
closed = 1;
nodes = (
(160,0,l),
(220,0,l),
(220,1100,l),
(160,1100,l)
);
},
{
closed = 1;
nodes = (
(320,1040,l),
(673,1040,l),
(673,1100,l),
(320,1100,l)
);
}
);
width = 833;
},
{
anchors = (
{
name = bottom;
pos = (247,0);
},
{
name = top;
pos = (515,1100);
}
);
hints = (
{
name = _cap.letter_n;
options = 9;
origin = (1,3);
type = Cap;
},
{
name = _cap.letter_r;
options = 2;
origin = (1,1);
type = Cap;
}
);
layerId = m002;
shapes = (
{
closed = 1;
nodes = (
(160,0,l),
(335,0,l),
(335,1100,l),
(160,1100,l)
);
},
{
closed = 1;
nodes = (
(435,930,l),
(788,930,l),
(788,1100,l),
(435,1100,l)
);
}
);
width = 948;
},
{
anchors = (
{
name = bottom;
pos = (270,0);
},
{
name = top;
pos = (610,1100);
}
);
hints = (
{
name = _cap.letter_n;
options = 9;
origin = (1,3);
type = Cap;
},
{
name = _cap.letter_r;
options = 10;
origin = (1,1);
type = Cap;
}
);
layerId = m003;
shapes = (
{
closed = 1;
nodes = (
(110,0,l),
(430,0,l),
(430,1100,l),
(110,1100,l)
);
},
{
closed = 1;
nodes = (
(530,780,l),
(953,780,l),
(953,1100,l),
(530,1100,l)
);
}
);
width = 1081;
}
);
metricLeft = "=n";
unicode = 114;
}
{
glyphname = s;
kernLeft = o;
kernRight = o;
layers = (
{
anchors = (
{
name = top;
pos = (585,1100);
}
);
hints = (
{
name = _corner.outside_md;
options = 2;
origin = (0,1);
scale = (-0.8,0.8);
type = Corner;
},
{
name = _corner.inside_md;
options = 2;
origin = (0,10);
scale = (-0.75,0.75);
type = Corner;
},
{
name = _cap.end_md;
options = 10;
origin = (0,11);
type = Cap;
},
{
name = _corner.outside_md;
options = 2;
origin = (0,7);
scale = (-0.8,0.8);
type = Corner;
},
{
name = _corner.inside_md;
options = 2;
origin = (0,4);
scale = (-0.75,0.75);
type = Corner;
},
{
name = _cap.end_md;
options = 10;
origin = (0,5);
type = Cap;
},
{
name = _corner.inside_sm;
origin = (0,3);
scale = (1.3,1.3);
type = Corner;
},
{
name = _corner.inside_sm;
origin = (0,9);
scale = (1.3,1.3);
type = Corner;
},
{
name = _corner.outside_sm;
origin = (0,2);
type = Corner;
},
{
name = _corner.outside_sm;
origin = (0,8);
type = Corner;
}
);
layerId = m01;
shapes = (
{
closed = 1;
nodes = (
(1041,1100,l),
(158,1100,l),
(158,565,l),
(988,480,l),
(988,60,l),
(125,60,l),
(125,0,l),
(1048,0,l),
(1048,535,l),
(218,620,l),
(218,1040,l),
(1041,1040,l)
);
}
);
width = 1173;
},
{
anchors = (
{
name = top;
pos = (585,1100);
}
);
hints = (
{
name = _corner.outside_md;
options = 2;
origin = (0,1);
scale = (-0.8,0.8);
type = Corner;
},
{
name = _corner.inside_md;
options = 2;
origin = (0,10);
scale = (-0.6,0.6);
type = Corner;
},
{
name = _cap.end_md;
options = 10;
origin = (0,11);
type = Cap;
},
{
name = _corner.outside_md;
options = 2;
origin = (0,7);
scale = (-0.8,0.8);
type = Corner;
},
{
name = _corner.inside_md;
options = 2;
origin = (0,4);
scale = (-0.6,0.6);
type = Corner;
},
{
name = _cap.end_md;
options = 10;
origin = (0,5);
type = Cap;
},
{
name = _corner.inside_sm;
origin = (0,3);
type = Corner;
},
{
name = _corner.inside_sm;
origin = (0,9);
type = Corner;
},
{
name = _corner.outside_sm;
origin = (0,2);
type = Corner;
},
{
name = _corner.outside_sm;
origin = (0,8);
type = Corner;
}
);
layerId = m002;
shapes = (
{
closed = 1;
nodes = (
(1041,1100,l),
(158,1100,l),
(158,485,l),
(873,452,l),
(873,170,l),
(125,170,l),
(125,0,l),
(1048,0,l),
(1048,615,l),
(333,648,l),
(333,930,l),
(1041,930,l)
);
}
);
width = 1173;
}
);
metricLeft = "=o";
metricRight = "=o";
unicode = 115;
}
{
glyphname = t;
kernLeft = t;
kernRight = t;
layers = (
{
anchors = (
{
name = bottom;
pos = (512,0);
},
{
name = top;
pos = (265,1500);
},
{
name = topright;
pos = (392,1200);
}
);
hints = (
{
name = _corner.outside_md;
origin = (0,1);
type = Corner;
},
{
name = _corner.inside_md;
origin = (0,4);
type = Corner;
}
);
layerId = m01;
shapes = (
{
closed = 1;
nodes = (
(237,1500,l),
(237,0,l),
(753,0,l),
(753,60,l),
(297,60,l),
(297,1500,l)
);
},
{
closed = 1;
nodes = (
(90,1040,l),
(753,1040,l),
(753,1100,l),
(90,1100,l)
);
}
);
width = 883;
},
{
anchors = (
{
name = bottom;
pos = (512,0);
},
{
name = top;
pos = (324,1500);
},
{
name = topright;
pos = (512,1200);
}
);
hints = (
{
name = _corner.outside_md;
origin = (0,1);
type = Corner;
},
{
name = _corner.inside_md;
origin = (0,4);
type = Corner;
}
);
layerId = m002;
shapes = (
{
closed = 1;
nodes = (
(237,1500,l),
(237,0,l),
(793,0,l),
(793,170,l),
(412,170,l),
(412,1500,l)
);
},
{
closed = 1;
nodes = (
(90,930,l),
(793,930,l),
(793,1100,l),
(90,1100,l)
);
}
);
width = 923;
},
{
anchors = (
{
name = bottom;
pos = (482,0);
},
{
name = top;
pos = (367,1500);
},
{
name = topright;
pos = (532,1220);
}
);
hints = (
{
name = _corner.outside_md;
origin = (0,1);
type = Corner;
},
{
name = _corner.inside_md;
origin = (0,4);
type = Corner;
}
);
layerId = m003;
shapes = (
{
closed = 1;
nodes = (
(207,1500,l),
(207,0,l),
(793,0,l),
(793,310,l),
(527,310,l),
(527,1500,l)
);
},
{
closed = 1;
nodes = (
(60,780,l),
(793,780,l),
(793,1100,l),
(60,1100,l)
);
}
);
width = 873;
}
);
unicode = 116;
}
{
glyphname = v;
kernLeft = v;
kernRight = v;
layers = (
{
hints = (
{
name = _corner.letter_v;
options = 2;
origin = (0,3);
type = Corner;
}
);
layerId = m01;
shapes = (
{
closed = 1;
nodes = (
(607,0,l),
(1050,1100,l),
(985,1100,l),
(570,68,l),
(155,1100,l),
(90,1100,l),
(533,0,l)
);
}
);
width = 1140;
},
{
hints = (
{
name = _corner.letter_v;
options = 2;
origin = (0,3);
type = Corner;
}
);
layerId = m002;
shapes = (
{
closed = 1;
nodes = (
(657,0,l),
(1100,1100,l),
(912,1100,l),
(570,235,l),
(228,1100,l),
(40,1100,l),
(483,0,l)
);
}
);
width = 1140;
},
{
hints = (
{
name = _corner.letter_v;
options = 2;
origin = (0,3);
type = Corner;
}
);
layerId = m003;
shapes = (
{
closed = 1;
nodes = (
(877,0,l),
(1300,1100,l),
(962,1100,l),
(670,335,l),
(378,1100,l),
(40,1100,l),
(463,0,l)
);
}
);
width = 1340;
}
);
metricLeft = "=x";
metricRight = "=x";
unicode = 118;
}
{
glyphname = w;
kernLeft = v;
kernRight = v;
layers = (
{
anchors = (
{
name = top;
pos = (800,1100);
}
);
hints = (
{
name = _corner.letter_v;
options = 2;
origin = (0,9);
type = Corner;
},
{
name = _corner.letter_v;
options = 2;
origin = (0,6);
type = Corner;
},
{
name = _corner.letter_v;
options = 2;
origin = (0,1);
type = Corner;
}
);
layerId = m01;
shapes = (
{
closed = 1;
nodes = (
(498,0,l),
(800,1014,l),
(1102,0,l),
(1167,0,l),
(1510,1100,l),
(1445,1100,l),
(1135,104,l),
(838,1100,l),
(762,1100,l),
(464,104,l),
(155,1100,l),
(90,1100,l),
(433,0,l)
);
}
);
width = 1600;
},
{
anchors = (
{
name = top;
pos = (830,1100);
}
);
hints = (
{
name = _corner.letter_v;
options = 2;
origin = (0,9);
type = Corner;
},
{
name = _corner.letter_v;
options = 2;
origin = (0,6);
type = Corner;
},
{
name = _corner.letter_v;
options = 2;
origin = (0,1);
type = Corner;
}
);
layerId = m002;
shapes = (
{
closed = 1;
nodes = (
(578,0,l),
(830,834,l),
(1082,0,l),
(1277,0,l),
(1620,1100,l),
(1435,1100,l),
(1183,284,l),
(928,1100,l),
(732,1100,l),
(477,284,l),
(225,1100,l),
(40,1100,l),
(383,0,l)
);
}
);
width = 1660;
},
{
anchors = (
{
name = top;
pos = (980,1100);
}
);
hints = (
{
name = _corner.letter_v;
options = 2;
origin = (0,9);
type = Corner;
},
{
name = _corner.letter_v;
options = 2;
origin = (0,6);
type = Corner;
},
{
name = _corner.letter_v;
options = 2;
origin = (0,1);
type = Corner;
}
);
layerId = m003;
shapes = (
{
closed = 1;
nodes = (
(778,0,l),
(980,664,l),
(1162,0,l),
(1627,0,l),
(1920,1100,l),
(1595,1100,l),
(1393,354,l),
(1178,1100,l),
(782,1100,l),
(567,354,l),
(365,1100,l),
(40,1100,l),
(333,0,l)
);
}
);
width = 1960;
}
);
metricLeft = "=v";
metricRight = "=v";
unicode = 119;
}
{
glyphname = x;
kernLeft = x;
kernRight = x;
layers = (
{
layerId = m01;
shapes = (
{
closed = 1;
nodes = (
(870,0,l),
(526,550,l),
(870,1100,l),
(797,1100,l),
(480,589,l),
(163,1100,l),
(90,1100,l),
(434,550,l),
(90,0,l),
(163,0,l),
(480,511,l),
(797,0,l)
);
}
);
width = 960;
},
{
layerId = m002;
shapes = (
{
closed = 1;
nodes = (
(980,0,l),
(621,550,l),
(980,1100,l),
(770,1100,l),
(510,686,l),
(250,1100,l),
(40,1100,l),
(399,550,l),
(40,0,l),
(250,0,l),
(510,414,l),
(770,0,l)
);
}
);
width = 1020;
}
);
metricRight = "=|x";
unicode = 120;
}
{
glyphname = y;
kernLeft = v;
kernRight = v;
layers = (
{
anchors = (
{
name = bottom;
pos = (863,-110);
},
{
name = top;
pos = (590,1100);
}
);
layerId = m01;
shapes = (
{
closed = 1;
nodes = (
(1022,1100,l),
(1093,1100,l),
(465,-460,l),
(403,-460,l),
(593,0,l),
(533,0,l),
(90,1100,l),
(155,1100,l),
(564,67,l),
(613,67,l)
);
}
);
width = 1183;
},
{
anchors = (
{
name = bottom;
pos = (930,-110);
},
{
name = top;
pos = (600,1100);
}
);
layerId = m002;
shapes = (
{
closed = 1;
nodes = (
(972,1100,l),
(1160,1100,l),
(532,-460,l),
(353,-460,l),
(543,0,l),
(483,0,l),
(40,1100,l),
(228,1100,l),
(588,191,l),
(612,191,l)
);
}
);
width = 1200;
}
);
metricLeft = "=v";
metricRight = "=v";
unicode = 121;
}
{
glyphname = z;
kernLeft = h;
kernRight = h;
layers = (
{
anchors = (
{
name = top;
pos = (593,1100);
}
);
layerId = m01;
shapes = (
{
closed = 1;
nodes = (
(160,1040,l),
(908,1040,l),
(908,1020,l),
(170,70,l),
(170,0,l),
(1006,0,l),
(1006,60,l),
(258,60,l),
(258,80,l),
(996,1030,l),
(996,1100,l),
(160,1100,l)
);
}
);
width = 1166;
},
{
anchors = (
{
name = top;
pos = (593,1100);
}
);
layerId = m002;
shapes = (
{
closed = 1;
nodes = (
(160,930,l),
(768,930,l),
(768,910,l),
(170,180,l),
(170,0,l),
(1006,0,l),
(1006,170,l),
(398,170,l),
(398,190,l),
(996,920,l),
(996,1100,l),
(160,1100,l)
);
}
);
width = 1166;
},
{
anchors = (
{
name = top;
pos = (583,1100);
}
);
layerId = m003;
shapes = (
{
closed = 1;
nodes = (
(110,780,l),
(578,780,l),
(578,760,l),
(120,330,l),
(120,0,l),
(1056,0,l),
(1056,320,l),
(588,320,l),
(588,340,l),
(1046,770,l),
(1046,1100,l),
(110,1100,l)
);
}
);
width = 1166;
}
);
metricLeft = "=n";
metricRight = "=n";
unicode = 122;
}
{
glyphname = braceleft;
kernLeft = parenleft;
kernRight = parenleft;
layers = (
{
hints = (
{
name = _corner.outside_lg;
options = 2;
origin = (0,1);
scale = (-1,1);
type = Corner;
},
{
name = _corner.inside_lg;
options = 2;
origin = (0,17);
scale = (-1,1);
type = Corner;
},
{
name = _corner.inside_sm;
origin = (0,2);
scale = (2,2);
type = Corner;
},
{
name = _corner.outside_lg;
options = 2;
origin = (0,6);
scale = (-1,1);
type = Corner;
},
{
name = _corner.inside_sm;
origin = (0,5);
scale = (2,2);
type = Corner;
},
{
name = _corner.inside_lg;
options = 2;
origin = (0,9);
scale = (-1,1);
type = Corner;
}
);
layerId = m01;
shapes = (
{
closed = 1;
nodes = (
(930,1920,l),
(460,1920,l),
(460,780,l),
(180,780,l),
(180,720,l),
(460,720,l),
(460,-410,l),
(930,-410,l),
(930,-350,l),
(520,-350,l),
(520,480,ls),
(520,620,o),
(420,716,o),
(330,749,c),
(420,779,o),
(520,870,o),
(520,1010,cs),
(520,1860,l),
(930,1860,l)
);
}
);
width = 980;
},
{
hints = (
{
name = _corner.outside_lg;
options = 2;
origin = (0,1);
scale = (-1,1);
type = Corner;
},
{
name = _corner.inside_lg;
options = 2;
origin = (0,17);
scale = (-1,1);
type = Corner;
},
{
name = _corner.inside_sm;
origin = (0,2);
scale = (2,2);
type = Corner;
},
{
name = _corner.outside_lg;
options = 2;
origin = (0,6);
scale = (-1,1);
type = Corner;
},
{
name = _corner.inside_sm;
origin = (0,5);
scale = (2,2);
type = Corner;
},
{
name = _corner.inside_lg;
options = 2;
origin = (0,9);
scale = (-1,1);
type = Corner;
}
);
layerId = m002;
shapes = (
{
closed = 1;
nodes = (
(1050,1920,l),
(460,1920,l),
(460,840,l),
(180,840,l),
(180,660,l),
(460,660,l),
(460,-410,l),
(1050,-410,l),
(1050,-240,l),
(640,-240,l),
(640,500,ls),
(640,620,o),
(610,696,o),
(530,749,c),
(610,799,o),
(640,870,o),
(640,990,cs),
(640,1750,l),
(1050,1750,l)
);
}
);
width = 1100;
},
{
hints = (
{
name = _corner.outside_lg;
options = 2;
origin = (0,1);
scale = (-1,1);
type = Corner;
},
{
name = _corner.inside_lg;
options = 2;
origin = (0,17);
scale = (-1,1);
type = Corner;
},
{
name = _corner.inside_sm;
origin = (0,2);
scale = (2,2);
type = Corner;
},
{
name = _corner.outside_lg;
options = 2;
origin = (0,6);
scale = (-1,1);
type = Corner;
},
{
name = _corner.inside_sm;
origin = (0,5);
scale = (2,2);
type = Corner;
},
{
name = _corner.inside_lg;
options = 2;
origin = (0,9);
scale = (-1,1);
type = Corner;
}
);
layerId = m003;
shapes = (
{
closed = 1;
nodes = (
(1100,1960,l),
(460,1960,l),
(460,900,l),
(180,900,l),
(180,600,l),
(460,600,l),
(460,-450,l),
(1100,-450,l),
(1100,-130,l),
(790,-130,l),
(790,500,ls),
(790,620,o),
(760,696,o),
(680,749,c),
(760,799,o),
(790,870,o),
(790,990,cs),
(790,1640,l),
(1100,1640,l)
);
}
);
width = 1150;
}
);
metricLeft = "=parenleft";
metricRight = "=parenleft";
unicode = 123;
}
{
glyphname = bar;
kernLeft = H;
kernRight = H;
layers = (
{
layerId = m01;
shapes = (
{
closed = 1;
nodes = (
(290,-300,l),
(290,1800,l),
(230,1800,l),
(230,-300,l)
);
}
);
width = 520;
},
{
layerId = m002;
shapes = (
{
closed = 1;
nodes = (
(344,-300,l),
(344,1800,l),
(170,1800,l),
(170,-300,l)
);
}
);
width = 514;
}
);
metricLeft = "=period";
metricRight = "=period";
unicode = 124;
}
{
glyphname = asciitilde;
layers = (
{
layerId = m01;
shapes = (
{
closed = 1;
nodes = (
(192,547,l),
(363,744,o),
(514,740,o),
(682,625,cs),
(896,475,o),
(1065,509,o),
(1246,717,c),
(1204,753,l),
(1033,556,o),
(882,560,o),
(714,675,cs),
(500,825,o),
(331,791,o),
(150,583,c)
);
}
);
width = 1396;
},
{
layerId = m002;
shapes = (
{
closed = 1;
nodes = (
(248,501,l),
(394,659,o),
(504,680,o),
(658,575,cs),
(872,425,o),
(1095,479,o),
(1276,687,c),
(1148,799,l),
(1002,641,o),
(892,620,o),
(738,725,cs),
(524,875,o),
(301,821,o),
(120,613,c)
);
}
);
width = 1396;
},
{
layerId = m003;
shapes = (
{
closed = 1;
nodes = (
(288,451,l),
(434,609,o),
(584,610,o),
(738,505,cs),
(952,355,o),
(1315,409,o),
(1496,617,c),
(1308,849,l),
(1162,691,o),
(1012,690,o),
(858,795,cs),
(644,945,o),
(281,891,o),
(100,683,c)
);
}
);
width = 1596;
}
);
metricRight = "=|asciitilde";
unicode = 126;
}
{
glyphname = cent;
kernLeft = o;
kernRight = o;
layers = (
{
layerId = m01;
shapes = (
{
ref = c;
},
{
closed = 1;
nodes = (
(563,-250,l),
(563,10,l),
(503,10,l),
(503,-250,l)
);
},
{
closed = 1;
nodes = (
(563,1090,l),
(563,1350,l),
(503,1350,l),
(503,1090,l)
);
}
);
width = 1044;
},
{
layerId = m002;
shapes = (
{
ref = c;
},
{
closed = 1;
nodes = (
(660,-250,l),
(660,50,l),
(486,50,l),
(486,-250,l)
);
},
{
closed = 1;
nodes = (
(660,1050,l),
(660,1350,l),
(486,1350,l),
(486,1050,l)
);
}
);
width = 1044;
},
{
layerId = m003;
shapes = (
{
ref = c;
},
{
closed = 1;
nodes = (
(713,-250,l),
(713,50,l),
(393,50,l),
(393,-250,l)
);
},
{
closed = 1;
nodes = (
(713,1050,l),
(713,1350,l),
(393,1350,l),
(393,1050,l)
);
}
);
width = 999;
}
);
metricLeft = "=c";
metricRight = "=c";
unicode = 162;
}
{
glyphname = sterling;
kernLeft = O;
kernRight = O;
layers = (
{
hints = (
{
name = _corner.outside_lg;
options = 2;
origin = (1,1);
scale = (-1,1);
type = Corner;
},
{
name = _corner.inside_lg;
options = 2;
origin = (1,13);
scale = (-1,1);
type = Corner;
},
{
name = _cap.end_md;
options = 10;
origin = (1,14);
type = Cap;
}
);
layerId = m01;
shapes = (
{
piece = {
Width = 800;
};
pos = (150,0);
ref = _part.dash;
},
{
closed = 1;
nodes = (
(1140,1510,l),
(280,1510,l),
(380,520,ls),
(404,285,o),
(321,172,o),
(180,80,c),
(180,0,l),
(1220,0,l),
(1220,60,l),
(254,60,l),
(351,128,o),
(468,247,o),
(439,528,cs),
(343,1450,l),
(1140,1450,l)
);
}
);
width = 1330;
},
{
hints = (
{
name = _corner.outside_lg;
options = 2;
origin = (1,1);
scale = (-1,1);
type = Corner;
},
{
name = _corner.inside_lg;
options = 2;
origin = (1,13);
scale = (-1,1);
type = Corner;
},
{
name = _cap.end_md;
options = 10;
origin = (1,14);
type = Cap;
}
);
layerId = m002;
shapes = (
{
piece = {
Width = 800;
};
pos = (130,0);
ref = _part.dash;
},
{
closed = 1;
nodes = (
(1120,1510,l),
(260,1510,l),
(360,520,ls),
(373,392,o),
(288,279,o),
(160,190,c),
(160,0,l),
(1200,0,l),
(1200,170,l),
(404,170,l),
(491,251,o),
(554,408,o),
(539,529,cs),
(440,1340,l),
(1120,1340,l)
);
}
);
width = 1280;
},
{
hints = (
{
name = _corner.outside_lg;
options = 2;
origin = (1,1);
scale = (-1,1);
type = Corner;
},
{
name = _corner.inside_lg;
options = 2;
origin = (1,13);
scale = (-1,1);
type = Corner;
},
{
name = _cap.end_md;
options = 10;
origin = (1,14);
type = Cap;
}
);
layerId = m003;
shapes = (
{
piece = {
Width = 800;
};
pos = (120,0);
ref = _part.dash;
},
{
closed = 1;
nodes = (
(1260,1510,l),
(250,1510,l),
(350,520,ls),
(363,392,o),
(278,279,o),
(150,190,c),
(150,0,l),
(1340,0,l),
(1340,320,l),
(642,320,l),
(675,374,o),
(684,436,o),
(674,529,cs),
(605,1190,l),
(1260,1190,l)
);
}
);
width = 1410;
}
);
metricLeft = "=C";
metricRight = "=C";
unicode = 163;
}
{
glyphname = currency;
layers = (
{
layerId = m01;
shapes = (
{
closed = 1;
nodes = (
(901,390,o),
(1061,550,o),
(1061,750,cs),
(1061,950,o),
(901,1110,o),
(701,1110,cs),
(501,1110,o),
(341,950,o),
(341,750,cs),
(341,550,o),
(501,390,o),
(701,390,cs)
);
},
{
closed = 1;
nodes = (
(590,550,o),
(501,639,o),
(501,750,cs),
(501,861,o),
(590,950,o),
(701,950,cs),
(812,950,o),
(901,861,o),
(901,750,cs),
(901,639,o),
(812,550,o),
(701,550,cs)
);
},
{
closed = 1;
nodes = (
(303,229,l),
(586,512,l),
(463,635,l),
(180,352,l)
);
},
{
closed = 1;
nodes = (
(939,865,l),
(1222,1148,l),
(1099,1271,l),
(816,988,l)
);
},
{
closed = 1;
nodes = (
(180,1148,l),
(463,865,l),
(586,988,l),
(303,1271,l)
);
},
{
closed = 1;
nodes = (
(816,512,l),
(1099,229,l),
(1222,352,l),
(939,635,l)
);
}
);
width = 1402;
}
);
metricRight = "=|currency";
unicode = 164;
}
{
glyphname = brokenbar;
kernLeft = bar;
kernRight = bar;
layers = (
{
layerId = m01;
shapes = (
{
ref = bar;
},
{
attr = {
mask = 1;
};
closed = 1;
nodes = (
(0,570,l),
(514,570,l),
(514,930,l),
(0,930,l)
);
}
);
width = 520;
},
{
layerId = m002;
shapes = (
{
ref = bar;
},
{
attr = {
mask = 1;
};
closed = 1;
nodes = (
(0,570,l),
(514,570,l),
(514,930,l),
(0,930,l)
);
}
);
width = 514;
},
{
layerId = m003;
shapes = (
{
ref = bar;
},
{
attr = {
mask = 1;
};
closed = 1;
nodes = (
(0,570,l),
(684,570,l),
(684,930,l),
(0,930,l)
);
}
);
width = 680;
}
);
metricLeft = "=bar";
metricRight = "=bar";
unicode = 166;
}
{
glyphname = copyright;
layers = (
{
hints = (
{
name = _corner.outside_md;
options = 2;
origin = (2,1);
scale = (-1,1);
type = Corner;
},
{
name = _corner.outside_md;
origin = (2,2);
type = Corner;
},
{
name = _cap.end_md;
options = 10;
origin = (2,3);
scale = (1,-1);
type = Cap;
},
{
name = _corner.inside_md;
origin = (2,5);
type = Corner;
},
{
name = _corner.inside_md;
options = 2;
origin = (2,6);
scale = (-1,1);
type = Corner;
},
{
name = _cap.end_md;
options = 10;
origin = (2,7);
type = Cap;
}
);
layerId = m01;
shapes = (
{
closed = 1;
nodes = (
(1212,30,o),
(1535,352,o),
(1535,750,cs),
(1535,1147,o),
(1212,1470,o),
(815,1470,cs),
(417,1470,o),
(95,1147,o),
(95,750,cs),
(95,352,o),
(417,30,o),
(815,30,cs)
);
},
{
closed = 1;
nodes = (
(450,90,o),
(155,385,o),
(155,750,cs),
(155,1115,o),
(450,1410,o),
(815,1410,cs),
(1180,1410,o),
(1475,1115,o),
(1475,750,cs),
(1475,385,o),
(1180,90,o),
(815,90,cs)
);
},
{
closed = 1;
nodes = (
(1154,1200,l),
(415,1200,l),
(415,300,l),
(1154,300,l),
(1154,360,l),
(475,360,l),
(475,1140,l),
(1154,1140,l)
);
}
);
width = 1630;
},
{
hints = (
{
name = _corner.outside_md;
options = 2;
origin = (2,1);
scale = (-1,1);
type = Corner;
},
{
name = _corner.outside_md;
origin = (2,2);
type = Corner;
},
{
name = _cap.end_md;
options = 10;
origin = (2,3);
scale = (1,-1);
type = Cap;
},
{
name = _corner.inside_md;
origin = (2,5);
type = Corner;
},
{
name = _corner.inside_md;
options = 2;
origin = (2,6);
scale = (-1,1);
type = Corner;
},
{
name = _cap.end_md;
options = 10;
origin = (2,7);
type = Cap;
}
);
layerId = m002;
shapes = (
{
closed = 1;
nodes = (
(1251,-40,o),
(1605,313,o),
(1605,750,cs),
(1605,1186,o),
(1251,1540,o),
(815,1540,cs),
(378,1540,o),
(25,1186,o),
(25,750,cs),
(25,313,o),
(378,-40,o),
(815,-40,cs)
);
},
{
closed = 1;
nodes = (
(475,135,o),
(200,410,o),
(200,750,cs),
(200,1090,o),
(475,1365,o),
(815,1365,cs),
(1155,1365,o),
(1430,1090,o),
(1430,750,cs),
(1430,410,o),
(1155,135,o),
(815,135,cs)
);
},
{
closed = 1;
nodes = (
(1154,1200,l),
(395,1200,l),
(395,300,l),
(1154,300,l),
(1154,470,l),
(570,470,l),
(570,1030,l),
(1154,1030,l)
);
}
);
width = 1630;
}
);
metricRight = "=|copyright";
unicode = 169;
}
{
glyphname = ordfeminine;
layers = (
{
hints = (
{
name = _corner.outside_sm;
options = 2;
origin = (0,1);
scale = (-0.85,0.85);
type = Corner;
},
{
name = _corner.outside_sm;
origin = (0,2);
scale = (0.85,0.85);
type = Corner;
},
{
name = _cap.shoulder_sm;
options = 10;
origin = (0,3);
type = Cap;
},
{
name = _corner.inside_sm;
origin = (0,5);
type = Corner;
},
{
name = _corner.inside_sm;
options = 2;
origin = (0,6);
scale = (-1,1);
type = Corner;
},
{
name = _cap.shoulder_sm;
options = 10;
origin = (0,7);
scale = (0.97059,-1);
type = Cap;
},
{
name = _corner.outside_md;
origin = (1,1);
scale = (0.75,0.75);
type = Corner;
},
{
name = _cap.end_md;
options = 10;
origin = (1,2);
scale = (0.94118,-1);
type = Cap;
},
{
name = _corner.inside_md;
origin = (1,4);
scale = (0.75,0.75);
type = Corner;
}
);
layerId = m01;
shapes = (
{
closed = 1;
nodes = (
(669,1170,l),
(190,1170,l),
(190,670,l),
(669,670,l),
(669,730,l),
(250,730,l),
(250,1110,l),
(669,1110,l)
);
},
{
closed = 1;
nodes = (
(789,670,l),
(789,1500,l),
(180,1500,l),
(180,1440,l),
(729,1440,l),
(729,670,l)
);
}
);
width = 969;
},
{
hints = (
{
name = _corner.outside_sm;
options = 2;
origin = (0,1);
scale = (-0.75,0.75);
type = Corner;
},
{
name = _corner.outside_sm;
origin = (0,2);
scale = (0.75,0.75);
type = Corner;
},
{
name = _cap.shoulder_sm;
options = 10;
origin = (0,3);
type = Cap;
},
{
name = _corner.inside_sm;
origin = (0,5);
scale = (0.6,0.6);
type = Corner;
},
{
name = _corner.inside_sm;
options = 2;
origin = (0,6);
scale = (-0.6,0.6);
type = Corner;
},
{
name = _cap.shoulder_sm;
options = 10;
origin = (0,7);
scale = (0.97059,-1);
type = Cap;
},
{
name = _corner.outside_md;
origin = (1,1);
scale = (0.75,0.75);
type = Corner;
},
{
name = _cap.end_md;
options = 10;
origin = (1,2);
scale = (0.94118,-1);
type = Cap;
},
{
name = _corner.inside_md;
origin = (1,4);
scale = (0.6,0.6);
type = Corner;
}
);
layerId = m002;
shapes = (
{
closed = 1;
nodes = (
(669,1170,l),
(190,1170,l),
(190,670,l),
(669,670,l),
(669,830,l),
(365,830,l),
(365,1015,l),
(669,1015,l)
);
},
{
closed = 1;
nodes = (
(904,670,l),
(904,1500,l),
(180,1500,l),
(180,1340,l),
(729,1340,l),
(729,670,l)
);
}
);
width = 1084;
}
);
metricLeft = "=ordmasculine";
metricRight = "=ordmasculine";
unicode = 170;
}
{
glyphname = logicalnot;
layers = (
{
layerId = m01;
shapes = (
{
closed = 1;
nodes = (
(100,620,l),
(1285,620,l),
(1285,87,l),
(1345,87,l),
(1345,680,l),
(100,680,l)
);
}
);
width = 1445;
},
{
layerId = m002;
shapes = (
{
closed = 1;
nodes = (
(100,563,l),
(1230,563,l),
(1230,87,l),
(1400,87,l),
(1400,737,l),
(100,737,l)
);
}
);
width = 1500;
}
);
metricLeft = "=minus";
metricRight = "=minus";
unicode = 172;
}
{
glyphname = registered;
kernLeft = quote;
kernRight = quote;
layers = (
{
hints = (
{
name = _corner.inside_sm;
origin = (2,2);
scale = (0.8,0.8);
type = Corner;
},
{
name = _corner.inside_sm;
options = 2;
origin = (2,3);
scale = (-0.8,0.8);
type = Corner;
},
{
name = _corner.outside_sm;
options = 2;
origin = (2,6);
scale = (-0.7,0.7);
type = Corner;
},
{
name = _corner.outside_sm;
origin = (2,7);
scale = (0.7,0.7);
type = Corner;
}
);
layerId = m01;
shapes = (
{
closed = 1;
nodes = (
(893,640,o),
(1120,867,o),
(1120,1150,cs),
(1120,1433,o),
(893,1660,o),
(610,1660,cs),
(327,1660,o),
(100,1433,o),
(100,1150,cs),
(100,867,o),
(327,640,o),
(610,640,cs)
);
},
{
closed = 1;
nodes = (
(365,700,o),
(160,905,o),
(160,1150,cs),
(160,1400,o),
(365,1600,o),
(610,1600,cs),
(860,1600,o),
(1060,1400,o),
(1060,1150,cs),
(1060,905,o),
(860,700,o),
(610,700,cs)
);
},
{
closed = 1;
nodes = (
(460,860,l),
(460,1390,l),
(795,1390,l),
(795,1140,l),
(429,1140,l),
(429,1080,l),
(855,1080,l),
(855,1450,l),
(400,1450,l),
(400,860,l)
);
},
{
closed = 1;
nodes = (
(767,860,l),
(830,860,l),
(734,1110,l),
(671,1110,l)
);
}
);
width = 1220;
},
{
hints = (
{
name = _corner.inside_sm;
origin = (2,2);
scale = (0.8,0.8);
type = Corner;
},
{
name = _corner.inside_sm;
options = 2;
origin = (2,3);
scale = (-0.8,0.8);
type = Corner;
},
{
name = _corner.outside_sm;
options = 2;
origin = (2,6);
scale = (-0.7,0.7);
type = Corner;
},
{
name = _corner.outside_sm;
origin = (2,7);
scale = (0.7,0.7);
type = Corner;
}
);
layerId = m002;
shapes = (
{
closed = 1;
nodes = (
(986,580,o),
(1240,834,o),
(1240,1150,cs),
(1240,1466,o),
(986,1720,o),
(670,1720,cs),
(354,1720,o),
(100,1466,o),
(100,1150,cs),
(100,834,o),
(354,580,o),
(670,580,cs)
);
},
{
closed = 1;
nodes = (
(436,720,o),
(240,916,o),
(240,1150,cs),
(240,1389,o),
(436,1580,o),
(670,1580,cs),
(909,1580,o),
(1100,1389,o),
(1100,1150,cs),
(1100,916,o),
(909,720,o),
(670,720,cs)
);
},
{
closed = 1;
nodes = (
(600,860,l),
(600,1315,l),
(775,1315,l),
(775,1180,l),
(569,1180,l),
(569,1050,l),
(915,1050,l),
(915,1450,l),
(460,1450,l),
(460,860,l)
);
},
{
closed = 1;
nodes = (
(744,860,l),
(890,860,l),
(824,1100,l),
(678,1100,l)
);
}
);
width = 1340;
},
{
hints = (
{
name = _corner.inside_sm;
origin = (2,2);
scale = (0.5,0.5);
type = Corner;
},
{
name = _corner.inside_sm;
options = 2;
origin = (2,3);
scale = (-0.5,0.5);
type = Corner;
},
{
name = _corner.outside_sm;
options = 2;
origin = (2,6);
scale = (-0.7,0.7);
type = Corner;
},
{
name = _corner.outside_sm;
origin = (2,7);
scale = (0.7,0.7);
type = Corner;
}
);
layerId = m003;
shapes = (
{
closed = 1;
nodes = (
(1033,550,o),
(1300,817,o),
(1300,1150,cs),
(1300,1483,o),
(1033,1750,o),
(700,1750,cs),
(367,1750,o),
(100,1483,o),
(100,1150,cs),
(100,817,o),
(367,550,o),
(700,550,cs)
);
},
{
closed = 1;
nodes = (
(482,750,o),
(300,932,o),
(300,1150,cs),
(300,1372,o),
(482,1550,o),
(700,1550,cs),
(922,1550,o),
(1100,1372,o),
(1100,1150,cs),
(1100,932,o),
(922,750,o),
(700,750,cs)
);
},
{
closed = 1;
nodes = (
(670,860,l),
(670,1285,l),
(795,1285,l),
(795,1200,l),
(599,1200,l),
(599,1050,l),
(965,1050,l),
(965,1450,l),
(490,1450,l),
(490,860,l)
);
},
{
closed = 1;
nodes = (
(764,860,l),
(940,860,l),
(884,1100,l),
(708,1100,l)
);
}
);
width = 1400;
}
);
metricLeft = "=trademark";
metricRight = "=trademark";
unicode = 174;
}
{
glyphname = degree;
kernLeft = quote;
kernRight = quote;
layers = (
{
layerId = m01;
shapes = (
{
closed = 1;
nodes = (
(634,953,o),
(750,1069,o),
(750,1213,cs),
(750,1357,o),
(634,1473,o),
(490,1473,cs),
(346,1473,o),
(230,1357,o),
(230,1213,cs),
(230,1069,o),
(346,953,o),
(490,953,cs)
);
},
{
closed = 1;
nodes = (
(381,1013,o),
(290,1104,o),
(290,1213,cs),
(290,1324,o),
(381,1413,o),
(490,1413,cs),
(601,1413,o),
(690,1324,o),
(690,1213,cs),
(690,1104,o),
(601,1013,o),
(490,1013,cs)
);
}
);
width = 980;
},
{
layerId = m002;
shapes = (
{
closed = 1;
nodes = (
(621,923,o),
(750,1052,o),
(750,1213,cs),
(750,1374,o),
(621,1503,o),
(460,1503,cs),
(299,1503,o),
(170,1374,o),
(170,1213,cs),
(170,1052,o),
(299,923,o),
(460,923,cs)
);
},
{
closed = 1;
nodes = (
(389,1083,o),
(330,1142,o),
(330,1213,cs),
(330,1285,o),
(389,1343,o),
(460,1343,cs),
(532,1343,o),
(590,1285,o),
(590,1213,cs),
(590,1142,o),
(532,1083,o),
(460,1083,cs)
);
}
);
width = 920;
}
);
metricLeft = "=period";
metricRight = "=period";
unicode = 176;
}
{
glyphname = micro;
kernLeft = n;
kernRight = n;
layers = (
{
layerId = m01;
shapes = (
{
ref = u;
},
{
closed = 1;
nodes = (
(224,-420,l),
(224,480,l),
(160,480,l),
(160,-420,l)
);
}
);
width = 950;
},
{
layerId = m002;
shapes = (
{
ref = u;
},
{
closed = 1;
nodes = (
(334,-420,l),
(334,480,l),
(160,480,l),
(160,-420,l)
);
}
);
width = 1210;
}
);
metricLeft = "=u";
metricRight = "=u";
unicode = 181;
}
{
glyphname = paragraph;
kernRight = H;
layers = (
{
hints = (
{
name = _corner.outside_md;
options = 2;
origin = (0,2);
scale = (-1,1);
type = Corner;
},
{
name = _corner.outside_md;
origin = (0,1);
type = Corner;
}
);
layerId = m01;
shapes = (
{
closed = 1;
nodes = (
(871,1500,l),
(150,1500,l),
(150,610,l),
(621,610,l),
(621,1440,l),
(811,1440,l),
(811,0,l),
(871,0,l)
);
}
);
width = 1051;
},
{
hints = (
{
name = _corner.outside_md;
options = 2;
origin = (0,2);
scale = (-1,1);
type = Corner;
},
{
name = _corner.outside_md;
origin = (0,1);
type = Corner;
}
);
layerId = m002;
shapes = (
{
closed = 1;
nodes = (
(931,1500,l),
(130,1500,l),
(130,610,l),
(601,610,l),
(601,1330,l),
(751,1330,l),
(751,0,l),
(931,0,l)
);
}
);
width = 1111;
},
{
hints = (
{
name = _corner.outside_md;
options = 2;
origin = (0,2);
scale = (-1,1);
type = Corner;
},
{
name = _corner.outside_md;
origin = (0,1);
type = Corner;
}
);
layerId = m003;
shapes = (
{
closed = 1;
nodes = (
(891,1500,l),
(90,1500,l),
(90,610,l),
(561,610,l),
(561,1330,l),
(711,1330,l),
(711,0,l),
(891,0,l)
);
}
);
width = 1011;
}
);
metricLeft = "=|P";
metricRight = "=|P";
unicode = 182;
}
{
glyphname = ordmasculine;
layers = (
{
hints = (
{
name = _corner.outside_md;
origin = (0,0);
scale = (0.85,0.85);
type = Corner;
},
{
name = _corner.outside_md;
options = 2;
origin = (0,1);
scale = (-0.85,0.85);
type = Corner;
},
{
name = _corner.outside_md;
origin = (0,2);
scale = (0.85,0.85);
type = Corner;
},
{
name = _corner.outside_md;
options = 2;
origin = (0,3);
scale = (-0.85,0.85);
type = Corner;
},
{
name = _corner.inside_md;
origin = (1,2);
scale = (0.9,0.9);
type = Corner;
},
{
name = _corner.inside_md;
options = 2;
origin = (1,1);
scale = (-0.9,0.9);
type = Corner;
},
{
name = _corner.inside_md;
origin = (1,0);
scale = (0.9,0.9);
type = Corner;
},
{
name = _corner.inside_md;
options = 2;
origin = (1,3);
scale = (-0.9,0.9);
type = Corner;
}
);
layerId = m01;
shapes = (
{
closed = 1;
nodes = (
(180,670,l),
(860,670,l),
(860,1500,l),
(180,1500,l)
);
},
{
closed = 1;
nodes = (
(800,1440,l),
(800,730,l),
(240,730,l),
(240,1440,l)
);
}
);
width = 1040;
},
{
hints = (
{
name = _corner.outside_md;
origin = (0,0);
scale = (0.85,0.85);
type = Corner;
},
{
name = _corner.outside_md;
options = 2;
origin = (0,1);
scale = (-0.85,0.85);
type = Corner;
},
{
name = _corner.outside_md;
origin = (0,2);
scale = (0.85,0.85);
type = Corner;
},
{
name = _corner.outside_md;
options = 2;
origin = (0,3);
scale = (-0.85,0.85);
type = Corner;
},
{
name = _corner.inside_md;
origin = (1,2);
scale = (0.7,0.7);
type = Corner;
},
{
name = _corner.inside_md;
options = 2;
origin = (1,1);
scale = (-0.7,0.7);
type = Corner;
},
{
name = _corner.inside_md;
origin = (1,0);
scale = (0.7,0.7);
type = Corner;
},
{
name = _corner.inside_md;
options = 2;
origin = (1,3);
scale = (-0.7,0.7);
type = Corner;
}
);
layerId = m002;
shapes = (
{
closed = 1;
nodes = (
(180,670,l),
(860,670,l),
(860,1500,l),
(180,1500,l)
);
},
{
closed = 1;
nodes = (
(695,1335,l),
(695,835,l),
(345,835,l),
(345,1335,l)
);
}
);
width = 1040;
},
{
hints = (
{
name = _corner.outside_md;
origin = (0,0);
scale = (0.85,0.85);
type = Corner;
},
{
name = _corner.outside_md;
options = 2;
origin = (0,1);
scale = (-0.85,0.85);
type = Corner;
},
{
name = _corner.outside_md;
origin = (0,2);
scale = (0.85,0.85);
type = Corner;
},
{
name = _corner.outside_md;
options = 2;
origin = (0,3);
scale = (-0.85,0.85);
type = Corner;
},
{
name = _corner.inside_md;
origin = (1,2);
scale = (0.7,0.7);
type = Corner;
},
{
name = _corner.inside_md;
options = 2;
origin = (1,1);
scale = (-0.7,0.7);
type = Corner;
},
{
name = _corner.inside_md;
origin = (1,0);
scale = (0.7,0.7);
type = Corner;
},
{
name = _corner.inside_md;
options = 2;
origin = (1,3);
scale = (-0.7,0.7);
type = Corner;
}
);
layerId = m003;
shapes = (
{
closed = 1;
nodes = (
(180,670,l),
(860,670,l),
(860,1500,l),
(180,1500,l)
);
},
{
closed = 1;
nodes = (
(595,1235,l),
(595,935,l),
(445,935,l),
(445,1235,l)
);
}
);
width = 1040;
}
);
metricRight = "=180";
unicode = 186;
}
{
glyphname = AE;
kernLeft = A;
kernRight = H;
layers = (
{
layerId = m01;
shapes = (
{
closed = 1;
nodes = (
(980,0,l),
(1040,0,l),
(1040,1500,l),
(980,1500,l)
);
},
{
closed = 1;
nodes = (
(1018,725,l),
(1704,725,l),
(1704,785,l),
(1018,785,l)
);
},
{
closed = 1;
nodes = (
(1018,0,l),
(1754,0,l),
(1754,60,l),
(1018,60,l)
);
},
{
closed = 1;
nodes = (
(1018,1440,l),
(1754,1440,l),
(1754,1500,l),
(1018,1500,l)
);
},
{
closed = 1;
nodes = (
(80,0,l),
(145,0,l),
(694,1440,l),
(986,1440,l),
(986,1500,l),
(653,1500,l)
);
},
{
closed = 1;
nodes = (
(358,635,l),
(1014,635,l),
(1014,695,l),
(388,695,l)
);
}
);
width = 1894;
},
{
layerId = m002;
shapes = (
{
closed = 1;
nodes = (
(960,0,l),
(1140,0,l),
(1140,1500,l),
(960,1500,l)
);
},
{
closed = 1;
nodes = (
(1078,675,l),
(1764,675,l),
(1764,845,l),
(1078,845,l)
);
},
{
closed = 1;
nodes = (
(1078,0,l),
(1814,0,l),
(1814,170,l),
(1078,170,l)
);
},
{
closed = 1;
nodes = (
(1078,1330,l),
(1814,1330,l),
(1814,1500,l),
(1078,1500,l)
);
},
{
closed = 1;
nodes = (
(40,0,l),
(232,0,l),
(734,1330,l),
(986,1330,l),
(986,1500,l),
(613,1500,l)
);
},
{
closed = 1;
nodes = (
(338,525,l),
(1014,525,l),
(1014,695,l),
(408,695,l)
);
}
);
width = 1954;
}
);
metricLeft = "=A";
metricRight = "=E";
unicode = 198;
}
{
glyphname = Thorn;
kernLeft = H;
kernRight = H;
layers = (
{
hints = (
{
name = _corner.inside_md;
origin = (0,1);
type = Corner;
},
{
name = _corner.inside_md;
options = 2;
origin = (0,2);
scale = (-1,1);
type = Corner;
},
{
name = _corner.outside_md;
options = 2;
origin = (0,5);
scale = (-1,1);
type = Corner;
},
{
name = _corner.outside_md;
origin = (0,6);
type = Corner;
}
);
layerId = m01;
shapes = (
{
closed = 1;
nodes = (
(200,1070,l),
(1010,1070,l),
(1010,430,l),
(200,430,l),
(200,370,l),
(1070,370,l),
(1070,1130,l),
(200,1130,l)
);
},
{
closed = 1;
nodes = (
(180,0,l),
(240,0,l),
(240,1500,l),
(180,1500,l)
);
}
);
width = 1220;
},
{
hints = (
{
name = _corner.inside_md;
origin = (0,1);
type = Corner;
},
{
name = _corner.inside_md;
options = 2;
origin = (0,2);
scale = (-1,1);
type = Corner;
},
{
name = _corner.outside_md;
options = 2;
origin = (0,5);
scale = (-1,1);
type = Corner;
},
{
name = _corner.outside_md;
origin = (0,6);
type = Corner;
}
);
layerId = m002;
shapes = (
{
closed = 1;
nodes = (
(200,1030,l),
(1010,1030,l),
(1010,470,l),
(200,470,l),
(200,300,l),
(1180,300,l),
(1180,1200,l),
(200,1200,l)
);
},
{
closed = 1;
nodes = (
(180,0,l),
(360,0,l),
(360,1500,l),
(180,1500,l)
);
}
);
width = 1310;
},
{
hints = (
{
name = _corner.inside_md;
origin = (0,1);
type = Corner;
},
{
name = _corner.inside_md;
options = 2;
origin = (0,2);
scale = (-1,1);
type = Corner;
},
{
name = _corner.outside_md;
options = 2;
origin = (0,5);
scale = (-1,1);
type = Corner;
},
{
name = _corner.outside_md;
origin = (0,6);
type = Corner;
}
);
layerId = m003;
shapes = (
{
closed = 1;
nodes = (
(160,930,l),
(960,930,l),
(960,570,l),
(160,570,l),
(160,250,l),
(1280,250,l),
(1280,1250,l),
(160,1250,l)
);
},
{
closed = 1;
nodes = (
(140,0,l),
(460,0,l),
(460,1500,l),
(140,1500,l)
);
}
);
width = 1400;
}
);
metricLeft = "=H";
metricRight = "=P";
unicode = 222;
}
{
glyphname = germandbls;
kernLeft = H;
kernRight = O;
layers = (
{
hints = (
{
name = _corner.inside_md;
origin = (0,3);
type = Corner;
},
{
name = _corner.inside_md;
options = 2;
origin = (0,4);
scale = (-0.8,0.8);
type = Corner;
},
{
name = _corner.inside_md;
origin = (0,7);
type = Corner;
},
{
name = _corner.inside_md;
options = 2;
origin = (0,8);
scale = (-1,1);
type = Corner;
},
{
name = _corner.outside_md;
options = 2;
origin = (0,11);
scale = (-1,1);
type = Corner;
},
{
name = _corner.outside_md;
origin = (0,19);
type = Corner;
},
{
name = _corner.inside_lg;
origin = (0,2);
type = Corner;
},
{
name = _corner.outside_lg;
origin = (0,20);
type = Corner;
}
);
layerId = m01;
shapes = (
{
closed = 1;
nodes = (
(180,0,l),
(240,0,l),
(240,1440,l),
(970,1440,l),
(970,845,l),
(465,845,l),
(465,785,l),
(980,785,l),
(980,60,l),
(385,60,l),
(385,0,l),
(1040,0,l),
(1040,515,ls),
(1040,653,o),
(951,734,o),
(850,805,c),
(955,859,o),
(1030,960,o),
(1030,1095,cs),
(1030,1500,l),
(180,1500,l)
);
}
);
width = 1190;
},
{
hints = (
{
name = _corner.inside_md;
origin = (0,3);
type = Corner;
},
{
name = _corner.inside_md;
options = 2;
origin = (0,4);
scale = (-0.8,0.8);
type = Corner;
},
{
name = _corner.inside_md;
origin = (0,7);
type = Corner;
},
{
name = _corner.inside_md;
options = 2;
origin = (0,8);
scale = (-1,1);
type = Corner;
},
{
name = _corner.outside_md;
options = 2;
origin = (0,11);
scale = (-1,1);
type = Corner;
},
{
name = _corner.outside_md;
origin = (0,19);
type = Corner;
},
{
name = _corner.inside_lg;
origin = (0,2);
type = Corner;
},
{
name = _corner.outside_lg;
origin = (0,20);
type = Corner;
}
);
layerId = m002;
shapes = (
{
closed = 1;
nodes = (
(180,0,l),
(360,0,l),
(360,1330,l),
(980,1330,l),
(980,895,l),
(585,895,l),
(585,725,l),
(990,725,l),
(990,170,l),
(505,170,l),
(505,0,l),
(1160,0,l),
(1160,545,l),
(1156,651,o),
(1149,726,o),
(1040,810,c),
(1145,894,o),
(1146,970,o),
(1150,1075,c),
(1150,1500,l),
(180,1500,l)
);
}
);
width = 1290;
}
);
metricLeft = "=D";
metricRight = "=B";
unicode = 223;
}
{
glyphname = ae;
kernLeft = o;
kernRight = o;
layers = (
{
hints = (
{
name = _corner.outside_md;
options = 2;
origin = (0,1);
scale = (-0.75,0.75);
type = Corner;
},
{
name = _corner.outside_md;
origin = (0,2);
scale = (0.75,0.75);
type = Corner;
},
{
name = _corner.inside_md;
origin = (0,9);
scale = (0.6,0.6);
type = Corner;
},
{
name = _corner.inside_md;
options = 2;
origin = (0,10);
scale = (-0.6,0.6);
type = Corner;
},
{
name = _corner.outside_md;
origin = (0,4);
type = Corner;
},
{
name = _cap.end_md;
options = 10;
origin = (0,5);
scale = (1,-1);
type = Cap;
},
{
name = _corner.inside_md;
origin = (0,7);
type = Corner;
},
{
name = _corner.inside_md;
origin = (0,8);
scale = (0.6,0.6);
type = Corner;
},
{
name = _corner.outside_md;
origin = (0,3);
scale = (0.75,0.75);
type = Corner;
}
);
layerId = m01;
shapes = (
{
closed = 1;
nodes = (
(840,590,l),
(125,590,l),
(125,0,l),
(880,0,l),
(880,1100,l),
(135,1100,l),
(135,1040,l),
(820,1040,l),
(820,60,l),
(185,60,l),
(185,530,l),
(840,530,l)
);
},
{
pos = (-10,0);
ref = _part.e_small;
}
);
width = 1710;
},
{
hints = (
{
name = _corner.outside_md;
options = 2;
origin = (0,1);
scale = (-0.75,0.75);
type = Corner;
},
{
name = _corner.outside_md;
origin = (0,2);
scale = (0.75,0.75);
type = Corner;
},
{
name = _corner.inside_md;
origin = (0,9);
scale = (0.6,0.6);
type = Corner;
},
{
name = _corner.inside_md;
options = 2;
origin = (0,10);
scale = (-0.6,0.6);
type = Corner;
},
{
name = _corner.outside_md;
origin = (0,4);
type = Corner;
},
{
name = _cap.end_md;
options = 10;
origin = (0,5);
scale = (0.94118,-1);
type = Cap;
},
{
name = _corner.inside_md;
origin = (0,7);
type = Corner;
},
{
name = _corner.inside_md;
origin = (0,8);
scale = (0.6,0.6);
type = Corner;
},
{
name = _corner.outside_md;
origin = (0,3);
scale = (0.75,0.75);
type = Corner;
}
);
layerId = m002;
shapes = (
{
closed = 1;
nodes = (
(860,645,l),
(125,645,l),
(125,0,l),
(995,0,l),
(995,1100,l),
(135,1100,l),
(135,940,l),
(820,940,l),
(820,170,l),
(300,170,l),
(300,480,l),
(860,480,l)
);
},
{
pos = (-10,0);
ref = _part.e_small;
}
);
width = 1825;
},
{
hints = (
{
name = _corner.outside_md;
options = 2;
origin = (0,1);
scale = (-0.75,0.75);
type = Corner;
},
{
name = _corner.outside_md;
origin = (0,2);
scale = (0.75,0.75);
type = Corner;
},
{
name = _corner.inside_md;
origin = (0,9);
scale = (0.5,0.5);
type = Corner;
},
{
name = _corner.inside_md;
options = 2;
origin = (0,10);
scale = (-0.5,0.5);
type = Corner;
},
{
name = _corner.outside_md;
origin = (0,4);
type = Corner;
},
{
name = _corner.inside_md;
origin = (0,7);
type = Corner;
},
{
name = _corner.inside_md;
origin = (0,8);
scale = (0.6,0.6);
type = Corner;
},
{
name = _corner.outside_md;
origin = (0,3);
scale = (0.75,0.75);
type = Corner;
},
{
name = _cap.end_md;
options = 10;
origin = (0,5);
scale = (0.96875,-0.9);
type = Cap;
}
);
layerId = m003;
shapes = (
{
closed = 1;
nodes = (
(786,695,l),
(91,695,l),
(91,0,l),
(1061,0,l),
(1061,1100,l),
(101,1100,l),
(101,790,l),
(746,790,l),
(746,320,l),
(416,320,l),
(416,430,l),
(786,430,l)
);
},
{
pos = (97,0);
ref = _part.e_small;
}
);
width = 1727;
}
);
metricLeft = "=a";
metricRight = "=e";
unicode = 230;
}
{
glyphname = eth;
layers = (
{
hints = (
{
name = _corner.inside_md;
origin = (0,7);
type = Corner;
},
{
name = _corner.inside_md;
origin = (0,6);
type = Corner;
},
{
name = _corner.outside_md;
origin = (0,11);
type = Corner;
},
{
name = _corner.outside_md;
origin = (0,10);
type = Corner;
},
{
name = _cap.shoulder_md;
options = 10;
origin = (0,8);
scale = (1,-1);
type = Cap;
},
{
name = _corner.inside_md;
origin = (0,5);
type = Corner;
},
{
name = _corner.outside_md;
origin = (0,12);
type = Corner;
}
);
layerId = m01;
shapes = (
{
closed = 1;
nodes = (
(281,1626,l),
(762,1270,ls),
(830,1219,o),
(860,1161,o),
(860,1075,cs),
(860,175,l),
(300,175,l),
(300,930,l),
(760,930,l),
(760,1100,l),
(125,1100,l),
(125,0,l),
(1035,0,l),
(1035,1095,ls),
(1035,1228,o),
(989,1320,o),
(882,1399,cs),
(387,1767,l)
);
},
{
pos = (263,670);
ref = _part.Lslash;
}
);
width = 1195;
}
);
metricLeft = "=d";
metricRight = "=d";
unicode = 240;
}
{
glyphname = thorn;
kernLeft = H;
kernRight = o;
layers = (
{
hints = (
{
name = _corner.inside_md;
origin = (1,1);
type = Corner;
},
{
name = _corner.inside_md;
origin = (1,2);
type = Corner;
},
{
name = _cap.shoulder_md;
options = 10;
origin = (1,3);
scale = (1.02941,-1);
type = Cap;
},
{
name = _corner.outside_md;
origin = (1,5);
type = Corner;
},
{
name = _corner.outside_md;
origin = (1,6);
type = Corner;
},
{
name = _cap.shoulder_md;
options = 9;
origin = (1,7);
type = Cap;
}
);
layerId = m01;
shapes = (
{
closed = 1;
nodes = (
(160,-420,l),
(220,-420,l),
(220,1500,l),
(160,1500,l)
);
},
{
closed = 1;
nodes = (
(320,1040,l),
(895,1040,l),
(895,65,l),
(320,65,l),
(320,0,l),
(955,0,l),
(955,1100,l),
(320,1100,l)
);
}
);
width = 1080;
},
{
hints = (
{
name = _corner.inside_md;
origin = (1,1);
type = Corner;
},
{
name = _corner.inside_md;
origin = (1,2);
type = Corner;
},
{
name = _cap.shoulder_md;
options = 10;
origin = (1,3);
scale = (1,-1);
type = Cap;
},
{
name = _corner.outside_md;
origin = (1,5);
type = Corner;
},
{
name = _corner.outside_md;
origin = (1,6);
type = Corner;
},
{
name = _cap.shoulder_md;
options = 9;
origin = (1,7);
type = Cap;
}
);
layerId = m002;
shapes = (
{
closed = 1;
nodes = (
(160,-420,l),
(340,-420,l),
(340,1500,l),
(160,1500,l)
);
},
{
closed = 1;
nodes = (
(440,930,l),
(900,930,l),
(900,175,l),
(440,175,l),
(440,0,l),
(1075,0,l),
(1075,1100,l),
(440,1100,l)
);
}
);
width = 1200;
}
);
metricLeft = "=p";
metricRight = "=p";
unicode = 254;
}
{
glyphname = dcroat;
kernLeft = o;
kernRight = H;
layers = (
{
layerId = m01;
shapes = (
{
ref = d;
},
{
closed = 1;
nodes = (
(594,1270,l),
(1144,1270,l),
(1144,1330,l),
(594,1330,l)
);
}
);
width = 1256;
},
{
layerId = m002;
shapes = (
{
ref = d;
},
{
closed = 1;
nodes = (
(594,1196,l),
(1144,1196,l),
(1144,1350,l),
(594,1350,l)
);
}
);
width = 1256;
},
{
layerId = m003;
shapes = (
{
ref = d;
},
{
closed = 1;
nodes = (
(594,1156,l),
(1334,1156,l),
(1334,1410,l),
(594,1410,l)
);
}
);
width = 1411;
}
);
metricLeft = "=d";
metricRight = "=d*0.7";
unicode = 273;
}
{
glyphname = hbar;
kernLeft = H;
kernRight = o;
layers = (
{
layerId = m01;
shapes = (
{
pos = (92,0);
ref = h;
},
{
closed = 1;
nodes = (
(112,1270,l),
(662,1270,l),
(662,1330,l),
(112,1330,l)
);
}
);
width = 1187;
},
{
layerId = m002;
shapes = (
{
pos = (62,0);
ref = h;
},
{
closed = 1;
nodes = (
(112,1196,l),
(662,1196,l),
(662,1350,l),
(112,1350,l)
);
}
);
width = 1272;
},
{
layerId = m003;
shapes = (
{
pos = (66,0);
ref = h;
},
{
closed = 1;
nodes = (
(56,1146,l),
(706,1146,l),
(706,1400,l),
(56,1400,l)
);
}
);
width = 1286;
}
);
metricLeft = "=h*0.7";
metricRight = "=h";
unicode = 295;
}
{
glyphname = idotless;
layers = (
{
anchors = (
{
name = bottom;
pos = (190,0);
},
{
name = ogonek;
pos = (220,0);
},
{
name = top;
pos = (190,1100);
}
);
layerId = m01;
shapes = (
{
closed = 1;
nodes = (
(160,0,l),
(220,0,l),
(220,1100,l),
(160,1100,l)
);
}
);
width = 380;
},
{
anchors = (
{
name = bottom;
pos = (250,0);
},
{
name = ogonek;
pos = (340,0);
},
{
name = top;
pos = (250,1100);
}
);
layerId = m002;
shapes = (
{
closed = 1;
nodes = (
(160,0,l),
(340,0,l),
(340,1100,l),
(160,1100,l)
);
}
);
width = 500;
},
{
anchors = (
{
name = bottom;
pos = (270,0);
},
{
name = ogonek;
pos = (360,0);
},
{
name = top;
pos = (270,1100);
}
);
layerId = m003;
shapes = (
{
closed = 1;
nodes = (
(110,0,l),
(430,0,l),
(430,1060,l),
(110,1060,l)
);
}
);
width = 540;
}
);
metricLeft = "=n";
metricRight = "=n";
unicode = 305;
}
{
glyphname = OE;
kernLeft = O;
kernRight = E;
layers = (
{
hints = (
{
name = _corner.outside_lg;
origin = (0,2);
type = Corner;
},
{
name = _corner.outside_lg;
options = 2;
origin = (0,1);
scale = (-1,1);
type = Corner;
},
{
name = _corner.inside_lg;
origin = (0,5);
type = Corner;
},
{
name = _corner.inside_lg;
options = 2;
origin = (0,6);
scale = (-1,1);
type = Corner;
},
{
name = _cap.shoulder_md;
options = 10;
origin = (0,3);
type = Cap;
},
{
name = _cap.shoulder_md;
options = 10;
origin = (0,7);
scale = (1,-1);
type = Cap;
}
);
layerId = m01;
shapes = (
{
closed = 1;
nodes = (
(870,1500,l),
(130,1500,l),
(130,0,l),
(870,0,l),
(870,170,l),
(310,170,l),
(310,1330,l),
(870,1330,l)
);
},
{
closed = 1;
nodes = (
(970,0,l),
(1150,0,l),
(1150,1500,l),
(970,1500,l)
);
},
{
closed = 1;
nodes = (
(988,675,l),
(1774,675,l),
(1774,845,l),
(988,845,l)
);
},
{
closed = 1;
nodes = (
(988,0,l),
(1824,0,l),
(1824,170,l),
(988,170,l)
);
},
{
closed = 1;
nodes = (
(988,1330,l),
(1824,1330,l),
(1824,1500,l),
(988,1500,l)
);
}
);
width = 1964;
}
);
metricLeft = "=O";
metricRight = "=E";
unicode = 338;
}
{
glyphname = oe;
kernLeft = o;
kernRight = o;
layers = (
{
hints = (
{
name = _corner.outside_md;
origin = (0,0);
type = Corner;
},
{
name = _corner.outside_md;
options = 2;
origin = (0,1);
scale = (-1,1);
type = Corner;
},
{
name = _corner.outside_md;
origin = (0,2);
type = Corner;
},
{
name = _corner.outside_md;
options = 2;
origin = (0,3);
scale = (-1,1);
type = Corner;
},
{
name = _corner.inside_md;
origin = (1,0);
type = Corner;
},
{
name = _corner.inside_md;
options = 2;
origin = (1,1);
scale = (-1,1);
type = Corner;
},
{
name = _corner.inside_md;
origin = (1,2);
type = Corner;
},
{
name = _corner.inside_md;
options = 2;
origin = (1,3);
scale = (-1,1);
type = Corner;
}
);
layerId = m01;
shapes = (
{
closed = 1;
nodes = (
(125,0,l),
(890,0,l),
(890,1100,l),
(125,1100,l)
);
},
{
closed = 1;
nodes = (
(830,1040,l),
(830,60,l),
(185,60,l),
(185,1040,l)
);
},
{
ref = _part.e_small;
}
);
width = 1720;
},
{
hints = (
{
name = _corner.outside_md;
origin = (0,0);
type = Corner;
},
{
name = _corner.outside_md;
options = 2;
origin = (0,1);
scale = (-1,1);
type = Corner;
},
{
name = _corner.outside_md;
origin = (0,2);
type = Corner;
},
{
name = _corner.outside_md;
options = 2;
origin = (0,3);
scale = (-1,1);
type = Corner;
},
{
name = _corner.inside_md;
origin = (1,0);
type = Corner;
},
{
name = _corner.inside_md;
options = 2;
origin = (1,1);
scale = (-1,1);
type = Corner;
},
{
name = _corner.inside_md;
origin = (1,2);
type = Corner;
},
{
name = _corner.inside_md;
options = 2;
origin = (1,3);
scale = (-1,1);
type = Corner;
}
);
layerId = m002;
shapes = (
{
closed = 1;
nodes = (
(125,0,l),
(1005,0,l),
(1005,1100,l),
(125,1100,l)
);
},
{
closed = 1;
nodes = (
(830,930,l),
(830,170,l),
(300,170,l),
(300,930,l)
);
},
{
ref = _part.e_small;
}
);
width = 1835;
},
{
hints = (
{
name = _corner.outside_md;
origin = (0,0);
type = Corner;
},
{
name = _corner.outside_md;
options = 2;
origin = (0,1);
scale = (-1,1);
type = Corner;
},
{
name = _corner.outside_md;
origin = (0,2);
type = Corner;
},
{
name = _corner.outside_md;
options = 2;
origin = (0,3);
scale = (-1,1);
type = Corner;
},
{
name = _corner.inside_md;
origin = (1,0);
type = Corner;
},
{
name = _corner.inside_md;
options = 2;
origin = (1,1);
scale = (-1,1);
type = Corner;
},
{
name = _corner.inside_md;
origin = (1,2);
type = Corner;
},
{
name = _corner.inside_md;
options = 2;
origin = (1,3);
scale = (-1,1);
type = Corner;
}
);
layerId = m003;
shapes = (
{
closed = 1;
nodes = (
(80,0,l),
(985,0,l),
(985,1100,l),
(80,1100,l)
);
},
{
closed = 1;
nodes = (
(660,790,l),
(660,310,l),
(400,310,l),
(400,790,l)
);
},
{
pos = (10,0);
ref = _part.e_small;
}
);
width = 1650;
}
);
metricLeft = "=c";
metricRight = "=e";
unicode = 339;
}
{
glyphname = Schwa;
kernLeft = O;
kernRight = O;
layers = (
{
hints = (
{
name = _corner.outside_lg;
origin = (0,3);
type = Corner;
},
{
name = _corner.outside_lg;
options = 2;
origin = (0,4);
scale = (-1,1);
type = Corner;
},
{
name = _corner.outside_lg;
origin = (0,5);
type = Corner;
},
{
name = _cap.end_lg;
options = 10;
origin = (0,6);
scale = (1,-1);
type = Cap;
},
{
name = _corner.inside_lg;
origin = (0,8);
type = Corner;
},
{
name = _corner.inside_lg;
options = 2;
origin = (0,9);
scale = (-1,1);
type = Corner;
},
{
name = _corner.inside_lg;
origin = (0,10);
type = Corner;
}
);
layerId = m01;
shapes = (
{
closed = 1;
nodes = (
(1207,768,l),
(1207,828,l),
(150,828,l),
(150,0,l),
(1250,0,l),
(1250,1500,l),
(157,1500,l),
(157,1440,l),
(1190,1440,l),
(1190,60,l),
(210,60,l),
(210,768,l)
);
}
);
width = 1400;
},
{
hints = (
{
name = _corner.outside_lg;
origin = (0,3);
type = Corner;
},
{
name = _corner.outside_lg;
options = 2;
origin = (0,4);
scale = (-1,1);
type = Corner;
},
{
name = _corner.outside_lg;
origin = (0,5);
type = Corner;
},
{
name = _cap.end_lg;
options = 10;
origin = (0,6);
scale = (1,-1);
type = Cap;
},
{
name = _corner.inside_lg;
origin = (0,8);
type = Corner;
},
{
name = _corner.inside_lg;
options = 2;
origin = (0,9);
scale = (-1,1);
type = Corner;
},
{
name = _corner.inside_lg;
origin = (0,10);
type = Corner;
}
);
layerId = m002;
shapes = (
{
closed = 1;
nodes = (
(1137,663,l),
(1137,828,l),
(130,828,l),
(130,0,l),
(1230,0,l),
(1230,1500,l),
(137,1500,l),
(137,1330,l),
(1055,1330,l),
(1055,170,l),
(305,170,l),
(305,663,l)
);
}
);
width = 1360;
},
{
hints = (
{
name = _corner.outside_lg;
origin = (0,3);
type = Corner;
},
{
name = _corner.outside_lg;
options = 2;
origin = (0,4);
scale = (-1,1);
type = Corner;
},
{
name = _corner.outside_lg;
origin = (0,5);
type = Corner;
},
{
name = _cap.end_lg;
options = 10;
origin = (0,6);
scale = (1,-1);
type = Cap;
},
{
name = _corner.inside_lg;
origin = (0,8);
type = Corner;
},
{
name = _corner.inside_lg;
options = 2;
origin = (0,9);
scale = (-1,1);
type = Corner;
},
{
name = _corner.inside_lg;
origin = (0,10);
type = Corner;
}
);
layerId = m003;
shapes = (
{
closed = 1;
nodes = (
(1072,593,l),
(1072,913,l),
(65,913,l),
(65,0,l),
(1165,0,l),
(1165,1500,l),
(72,1500,l),
(72,1180,l),
(845,1180,l),
(845,320,l),
(385,320,l),
(385,593,l)
);
}
);
width = 1230;
}
);
metricLeft = "=O";
metricRight = "=O";
unicode = 399;
}
{
glyphname = florin;
layers = (
{
hints = (
{
name = _corner.inside_md;
origin = (0,0);
type = Corner;
},
{
name = _corner.outside_md;
origin = (0,3);
type = Corner;
},
{
name = _corner.inside_md;
origin = (0,4);
type = Corner;
},
{
name = _corner.outside_md;
origin = (0,7);
type = Corner;
}
);
layerId = m01;
shapes = (
{
closed = 1;
nodes = (
(247,1440,l),
(613,1440,l),
(613,1500,l),
(187,1500,l),
(187,-360,l),
(-154,-360,l),
(-154,-420,l),
(247,-420,l)
);
},
{
closed = 1;
nodes = (
(70,1040,l),
(553,1040,l),
(553,1100,l),
(70,1100,l)
);
}
);
width = 673;
},
{
hints = (
{
name = _corner.inside_md;
origin = (0,0);
type = Corner;
},
{
name = _corner.outside_md;
origin = (0,3);
type = Corner;
},
{
name = _corner.inside_md;
origin = (0,4);
type = Corner;
},
{
name = _corner.outside_md;
origin = (0,7);
type = Corner;
}
);
layerId = m002;
shapes = (
{
closed = 1;
nodes = (
(362,1330,l),
(723,1330,l),
(723,1500,l),
(187,1500,l),
(187,-250,l),
(-154,-250,l),
(-154,-420,l),
(362,-420,l)
);
},
{
closed = 1;
nodes = (
(70,930,l),
(663,930,l),
(663,1100,l),
(70,1100,l)
);
}
);
width = 783;
},
{
hints = (
{
name = _corner.inside_md;
origin = (0,0);
type = Corner;
},
{
name = _corner.outside_md;
origin = (0,3);
type = Corner;
},
{
name = _corner.inside_md;
origin = (0,4);
type = Corner;
},
{
name = _corner.outside_md;
origin = (0,7);
type = Corner;
}
);
layerId = m003;
shapes = (
{
closed = 1;
nodes = (
(512,1180,l),
(773,1180,l),
(773,1500,l),
(187,1500,l),
(187,-100,l),
(-154,-100,l),
(-154,-420,l),
(512,-420,l)
);
},
{
closed = 1;
nodes = (
(70,780,l),
(773,780,l),
(773,1100,l),
(70,1100,l)
);
}
);
width = 788;
}
);
metricRight = "=f";
unicode = 402;
}
{
glyphname = jdotless;
layers = (
{
anchors = (
{
name = top;
pos = (190,1100);
}
);
hints = (
{
name = _corner.inside_md;
origin = (0,0);
type = Corner;
},
{
name = _corner.outside_md;
origin = (0,3);
type = Corner;
}
);
layerId = m01;
shapes = (
{
closed = 1;
nodes = (
(160,-340,l),
(-201,-340,l),
(-201,-400,l),
(220,-400,l),
(220,1100,l),
(160,1100,l)
);
}
);
width = 380;
},
{
anchors = (
{
name = top;
pos = (250,1100);
}
);
hints = (
{
name = _corner.inside_md;
origin = (0,0);
type = Corner;
},
{
name = _corner.outside_md;
origin = (0,3);
type = Corner;
}
);
layerId = m002;
shapes = (
{
closed = 1;
nodes = (
(165,-230,l),
(-196,-230,l),
(-196,-400,l),
(340,-400,l),
(340,1100,l),
(165,1100,l)
);
}
);
width = 500;
},
{
anchors = (
{
name = top;
pos = (240,1100);
}
);
hints = (
{
name = _corner.inside_md;
origin = (0,0);
type = Corner;
},
{
name = _corner.outside_md;
origin = (0,3);
type = Corner;
}
);
layerId = m003;
shapes = (
{
closed = 1;
nodes = (
(80,-130,l),
(-281,-130,l),
(-281,-450,l),
(400,-450,l),
(400,1100,l),
(80,1100,l)
);
}
);
width = 480;
}
);
metricRight = "=idotless";
metricWidth = "=idotless";
unicode = 567;
}
{
glyphname = gravecomb;
layers = (
{
anchors = (
{
name = _top;
pos = (600,1500);
}
);
layerId = m01;
shapes = (
{
closed = 1;
nodes = (
(553,1640,l),
(619,1640,l),
(473,1926,l),
(419,1899,l)
);
}
);
width = 1200;
},
{
anchors = (
{
name = _top;
pos = (600,1500);
}
);
layerId = m002;
shapes = (
{
closed = 1;
nodes = (
(520,1640,l),
(650,1640,l),
(520,1990,l),
(360,1914,l)
);
}
);
width = 1200;
}
);
unicode = 768;
}
{
glyphname = circumflexcomb;
layers = (
{
anchors = (
{
name = _top;
pos = (600,1500);
}
);
layerId = m01;
shapes = (
{
closed = 1;
nodes = (
(600,1863,l),
(890,1723,l),
(865,1669,l),
(600,1796,l),
(335,1669,l),
(310,1723,l)
);
}
);
width = 1200;
},
{
anchors = (
{
name = _top;
pos = (600,1500);
}
);
layerId = m002;
shapes = (
{
closed = 1;
nodes = (
(600,1957,l),
(927,1766,l),
(861,1645,l),
(600,1776,l),
(339,1645,l),
(273,1766,l)
);
}
);
width = 1200;
},
{
anchors = (
{
name = _top;
pos = (600,1500);
}
);
layerId = m003;
shapes = (
{
closed = 1;
nodes = (
(600,1997,l),
(1107,1816,l),
(961,1555,l),
(600,1676,l),
(239,1555,l),
(93,1816,l)
);
}
);
width = 1200;
}
);
unicode = 770;
}
{
glyphname = tildecomb;
layers = (
{
anchors = (
{
name = _top;
pos = (600,1500);
}
);
layerId = m01;
shapes = (
{
closed = 1;
nodes = (
(264,1648,l),
(369,1782,o),
(477,1800,o),
(585,1726,cs),
(725,1631,o),
(877,1672,o),
(983,1819,c),
(936,1856,l),
(831,1722,o),
(723,1704,o),
(615,1778,cs),
(475,1873,o),
(323,1832,o),
(217,1685,c)
);
}
);
width = 1200;
},
{
anchors = (
{
name = _top;
pos = (600,1500);
}
);
layerId = m002;
shapes = (
{
closed = 1;
nodes = (
(288,1630,l),
(374,1740,o),
(471,1748,o),
(560,1687,cs),
(731,1571,o),
(878,1602,o),
(1023,1787,c),
(912,1874,l),
(826,1764,o),
(729,1756,o),
(640,1817,cs),
(469,1933,o),
(322,1902,o),
(177,1717,c)
);
}
);
width = 1200;
},
{
anchors = (
{
name = _top;
pos = (600,1500);
}
);
layerId = m003;
shapes = (
{
closed = 1;
nodes = (
(248,1570,l),
(344,1680,o),
(450,1692,o),
(560,1617,cs),
(731,1501,o),
(998,1592,o),
(1143,1777,c),
(952,1934,l),
(856,1824,o),
(750,1812,o),
(640,1887,cs),
(469,2003,o),
(202,1912,o),
(57,1727,c)
);
}
);
width = 1200;
}
);
unicode = 771;
}
{
glyphname = macroncomb;
layers = (
{
anchors = (
{
name = _top;
pos = (600,1500);
},
{
name = top;
pos = (600,1720);
}
);
layerId = m01;
shapes = (
{
closed = 1;
nodes = (
(325,1650,l),
(875,1650,l),
(875,1710,l),
(325,1710,l)
);
}
);
width = 1200;
},
{
anchors = (
{
name = _top;
pos = (600,1500);
},
{
name = top;
pos = (600,1800);
}
);
layerId = m002;
shapes = (
{
closed = 1;
nodes = (
(285,1650,l),
(915,1650,l),
(915,1815,l),
(285,1815,l)
);
}
);
width = 1200;
}
);
unicode = 772;
}
{
glyphname = brevecomb;
layers = (
{
anchors = (
{
name = _top;
pos = (600,1500);
}
);
layerId = m01;
shapes = (
{
closed = 1;
nodes = (
(354,1886,l),
(403,1790,o),
(465,1719,o),
(600,1719,cs),
(735,1719,o),
(797,1790,o),
(846,1886,c),
(903,1865,l),
(831,1704,o),
(721,1659,o),
(600,1659,cs),
(479,1659,o),
(369,1704,o),
(297,1865,c)
);
}
);
width = 1200;
},
{
anchors = (
{
name = _top;
pos = (600,1500);
}
);
layerId = m002;
shapes = (
{
closed = 1;
nodes = (
(401,1944,l),
(438,1852,o),
(490,1804,o),
(600,1804,cs),
(710,1804,o),
(762,1852,o),
(799,1944,c),
(958,1893,l),
(901,1724,o),
(779,1645,o),
(600,1645,cs),
(421,1645,o),
(299,1724,o),
(242,1893,c)
);
}
);
width = 1200;
},
{
anchors = (
{
name = _top;
pos = (600,1500);
}
);
layerId = m003;
shapes = (
{
closed = 1;
nodes = (
(461,1994,l),
(480,1948,o),
(530,1904,o),
(600,1904,cs),
(670,1904,o),
(720,1948,o),
(739,1994,c),
(1048,1923,l),
(991,1754,o),
(879,1585,o),
(600,1585,cs),
(321,1585,o),
(209,1754,o),
(152,1923,c)
);
}
);
width = 1200;
}
);
unicode = 774;
}
{
glyphname = dotaccentcomb;
layers = (
{
anchors = (
{
name = _top;
pos = (600,1500);
}
);
layerId = m01;
shapes = (
{
closed = 1;
nodes = (
(510,1650,l),
(690,1650,l),
(690,1830,l),
(510,1830,l)
);
}
);
width = 1200;
}
);
unicode = 775;
}
{
glyphname = ringcomb;
layers = (
{
anchors = (
{
name = _top;
pos = (600,1500);
}
);
layerId = m01;
shapes = (
{
closed = 1;
nodes = (
(685,1610,o),
(755,1680,o),
(755,1765,cs),
(755,1850,o),
(685,1920,o),
(600,1920,cs),
(515,1920,o),
(445,1850,o),
(445,1765,cs),
(445,1680,o),
(515,1610,o),
(600,1610,cs)
);
},
{
closed = 1;
nodes = (
(549,1670,o),
(505,1714,o),
(505,1765,cs),
(505,1818,o),
(549,1860,o),
(600,1860,cs),
(653,1860,o),
(695,1818,o),
(695,1765,cs),
(695,1714,o),
(653,1670,o),
(600,1670,cs)
);
}
);
width = 1200;
},
{
anchors = (
{
name = _top;
pos = (600,1500);
}
);
layerId = m002;
shapes = (
{
closed = 1;
nodes = (
(710,1595,o),
(800,1685,o),
(800,1795,cs),
(800,1905,o),
(710,1995,o),
(600,1995,cs),
(490,1995,o),
(400,1905,o),
(400,1795,cs),
(400,1685,o),
(490,1595,o),
(600,1595,cs)
);
},
{
closed = 1;
nodes = (
(557,1715,o),
(520,1752,o),
(520,1795,cs),
(520,1840,o),
(557,1875,o),
(600,1875,cs),
(645,1875,o),
(680,1840,o),
(680,1795,cs),
(680,1752,o),
(645,1715,o),
(600,1715,cs)
);
}
);
width = 1200;
},
{
anchors = (
{
name = _top;
pos = (600,1500);
}
);
layerId = m003;
shapes = (
{
closed = 1;
nodes = (
(732,1545,o),
(840,1653,o),
(840,1785,cs),
(840,1917,o),
(732,2025,o),
(600,2025,cs),
(468,2025,o),
(360,1917,o),
(360,1785,cs),
(360,1653,o),
(468,1545,o),
(600,1545,cs)
);
},
{
closed = 1;
nodes = (
(569,1725,o),
(540,1754,o),
(540,1785,cs),
(540,1820,o),
(569,1845,o),
(600,1845,cs),
(635,1845,o),
(660,1820,o),
(660,1785,cs),
(660,1754,o),
(635,1725,o),
(600,1725,cs)
);
}
);
width = 1200;
}
);
unicode = 778;
}
{
glyphname = hungarumlautcomb;
layers = (
{
anchors = (
{
name = _top;
pos = (600,1500);
}
);
layerId = m01;
shapes = (
{
closed = 1;
nodes = (
(480,1950,l),
(365,1640,l),
(495,1640,l),
(676,1950,l)
);
},
{
closed = 1;
nodes = (
(800,1950,l),
(685,1640,l),
(815,1640,l),
(996,1950,l)
);
}
);
width = 1200;
}
);
unicode = 779;
}
{
glyphname = commaaccentcomb;
layers = (
{
anchors = (
{
name = _bottom;
pos = (600,0);
}
);
layerId = m01;
shapes = (
{
closed = 1;
nodes = (
(580,-267,o),
(570,-375,o),
(530,-500,c),
(557,-500,l),
(640,-300,l),
(640,-150,l),
(580,-150,l)
);
}
);
width = 1200;
},
{
anchors = (
{
name = _bottom;
pos = (600,0);
}
);
layerId = m002;
shapes = (
{
closed = 1;
nodes = (
(520,-287,o),
(520,-423,o),
(520,-560,c),
(607,-560,l),
(680,-330,l),
(680,-150,l),
(520,-150,l)
);
}
);
width = 1200;
}
);
unicode = 806;
}
{
glyphname = cedillacomb;
layers = (
{
anchors = (
{
name = _bottom;
pos = (600,0);
}
);
guides = (
{
angle = 249.9739;
pos = (498,-214);
}
);
layerId = m01;
shapes = (
{
closed = 1;
nodes = (
(510,-180,l),
(539,-172,o),
(575,-167,o),
(621,-167,cs),
(708,-167,o),
(776,-188,o),
(776,-276,cs),
(776,-346,o),
(736,-388,o),
(589,-388,cs),
(536,-388,o),
(484,-385,o),
(442,-370,c),
(422,-424,l),
(461,-445,o),
(526,-448,o),
(602,-448,cs),
(727,-448,o),
(836,-407,o),
(836,-276,cs),
(836,-171,o),
(748,-106,o),
(655,-106,cs),
(627,-106,o),
(602,-107,o),
(584,-109,c),
(632,18,l),
(583,18,l)
);
}
);
width = 1200;
},
{
anchors = (
{
name = _bottom;
pos = (600,0);
}
);
guides = (
{
angle = 249.9739;
pos = (468,-214);
}
);
layerId = m002;
shapes = (
{
closed = 1;
nodes = (
(468,-214,l),
(511,-208,o),
(559,-206,o),
(621,-206,cs),
(682,-206,o),
(731,-221,o),
(731,-276,cs),
(731,-343,o),
(707,-373,o),
(569,-373,cs),
(516,-373,o),
(461,-367,o),
(419,-352,c),
(372,-479,l),
(422,-504,o),
(490,-518,o),
(602,-518,cs),
(801,-518,o),
(901,-421,o),
(901,-276,cs),
(901,-171,o),
(806,-85,o),
(713,-85,cs),
(682,-85,o),
(652,-86,o),
(622,-88,c),
(682,72,l),
(573,72,l)
);
}
);
width = 1200;
},
{
anchors = (
{
name = _bottom;
pos = (600,0);
}
);
guides = (
{
angle = 249.9739;
pos = (532,70);
}
);
layerId = m003;
shapes = (
{
closed = 1;
nodes = (
(415,-253,l),
(458,-247,o),
(489,-242,o),
(551,-242,cs),
(590,-242,o),
(606,-246,o),
(606,-274,cs),
(606,-298,o),
(587,-304,o),
(548,-304,cs),
(495,-304,o),
(438,-303,o),
(399,-294,c),
(308,-545,l),
(367,-570,o),
(435,-580,o),
(602,-580,cs),
(836,-580,o),
(921,-461,o),
(921,-276,cs),
(921,-129,o),
(812,-65,o),
(719,-65,cs),
(708,-65,o),
(687,-65,o),
(671,-67,c),
(722,72,l),
(533,72,l)
);
}
);
width = 1200;
}
);
unicode = 807;
}
{
glyphname = ogonekcomb;
layers = (
{
anchors = (
{
name = _ogonek;
pos = (600,0);
}
);
layerId = m01;
shapes = (
{
closed = 1;
nodes = (
(363,81,o),
(274,-49,o),
(274,-143,cs),
(274,-290,o),
(373,-420,o),
(540,-420,cs),
(618,-420,o),
(651,-417,o),
(709,-406,c),
(680,-253,l),
(644,-261,o),
(609,-264,o),
(575,-264,cs),
(490,-264,o),
(442,-218,o),
(442,-145,cs),
(442,-87,o),
(496,-22,o),
(600,0,c),
(495,118,l)
);
}
);
width = 1200;
}
);
unicode = 808;
}
{
glyphname = Delta;
kernLeft = A;
kernRight = A;
layers = (
{
anchors = (
{
name = bottom;
pos = (700,0);
},
{
name = top;
pos = (700,1500);
}
);
layerId = m01;
shapes = (
{
pos = (0,1500);
ref = V;
scale = (1,-1);
},
{
closed = 1;
nodes = (
(107,0,l),
(1293,0,l),
(1263,60,l),
(137,60,l)
);
}
);
width = 1400;
},
{
anchors = (
{
name = bottom;
pos = (700,0);
},
{
name = top;
pos = (700,1500);
}
);
layerId = m002;
shapes = (
{
pos = (0,1500);
ref = V;
scale = (1,-1);
},
{
closed = 1;
nodes = (
(107,0,l),
(1293,0,l),
(1233,180,l),
(167,180,l)
);
}
);
width = 1400;
},
{
anchors = (
{
name = bottom;
pos = (680,0);
},
{
name = top;
pos = (680,1500);
}
);
layerId = m003;
shapes = (
{
pos = (-20,1500);
ref = V;
scale = (1,-1);
},
{
closed = 1;
nodes = (
(87,0,l),
(1353,0,l),
(1243,320,l),
(197,320,l)
);
}
);
width = 1460;
}
);
metricLeft = "=A";
metricRight = "=A";
unicode = 916;
}
{
glyphname = Omega;
layers = (
{
hints = (
{
name = _corner.outside_sm;
options = 2;
origin = (0,16);
scale = (-0.6,0.6);
type = Corner;
},
{
name = _corner.outside_lg;
origin = (0,17);
type = Corner;
},
{
name = _corner.inside_lg;
origin = (0,9);
type = Corner;
},
{
name = _corner.inside_sm;
options = 2;
origin = (0,10);
scale = (-1,1);
type = Corner;
},
{
name = _corner.inside_lg;
origin = (0,8);
type = Corner;
},
{
name = _corner.inside_sm;
options = 2;
origin = (0,7);
scale = (-1,1);
type = Corner;
},
{
name = _corner.outside_sm;
options = 2;
origin = (0,1);
scale = (-0.6,0.6);
type = Corner;
},
{
name = _corner.outside_lg;
origin = (0,0);
type = Corner;
}
);
layerId = m01;
shapes = (
{
closed = 1;
nodes = (
(130,1500,l),
(130,450,l),
(369,170,l),
(139,170,l),
(139,0,l),
(592,0,l),
(592,180,l),
(310,512,l),
(310,1330,l),
(1070,1330,l),
(1070,512,l),
(788,180,l),
(788,0,l),
(1241,0,l),
(1241,170,l),
(1011,170,l),
(1250,450,l),
(1250,1500,l)
);
}
);
width = 1380;
}
);
metricLeft = "=O";
metricRight = "=O";
unicode = 937;
}
{
glyphname = pi;
kernLeft = n;
kernRight = n;
layers = (
{
hints = (
{
name = _corner.outside_sm;
origin = (2,1);
scale = (0.9,0.9);
type = Corner;
},
{
name = _corner.inside_sm;
origin = (2,4);
type = Corner;
}
);
layerId = m01;
shapes = (
{
closed = 1;
nodes = (
(342,0,l),
(402,0,l),
(402,1080,l),
(342,1080,l)
);
},
{
closed = 1;
nodes = (
(160,1040,l),
(1100,1040,l),
(1100,1100,l),
(160,1100,l)
);
},
{
closed = 1;
nodes = (
(847,1080,l),
(847,0,l),
(1068,0,l),
(1068,60,l),
(907,60,l),
(907,1080,l)
);
}
);
width = 1260;
},
{
hints = (
{
name = _corner.outside_sm;
origin = (2,1);
type = Corner;
},
{
name = _corner.inside_sm;
origin = (2,4);
type = Corner;
}
);
layerId = m002;
shapes = (
{
closed = 1;
nodes = (
(342,0,l),
(518,0,l),
(518,1000,l),
(342,1000,l)
);
},
{
closed = 1;
nodes = (
(160,930,l),
(1300,930,l),
(1300,1100,l),
(160,1100,l)
);
},
{
closed = 1;
nodes = (
(932,1000,l),
(932,0,l),
(1268,0,l),
(1268,170,l),
(1107,170,l),
(1107,1000,l)
);
}
);
width = 1460;
},
{
hints = (
{
name = _corner.outside_sm;
origin = (2,1);
type = Corner;
},
{
name = _corner.inside_sm;
origin = (2,4);
type = Corner;
}
);
layerId = m003;
shapes = (
{
closed = 1;
nodes = (
(292,0,l),
(612,0,l),
(612,1000,l),
(292,1000,l)
);
},
{
closed = 1;
nodes = (
(110,780,l),
(1394,780,l),
(1394,1100,l),
(110,1100,l)
);
},
{
closed = 1;
nodes = (
(881,1000,l),
(881,0,l),
(1362,0,l),
(1362,320,l),
(1201,320,l),
(1201,1000,l)
);
}
);
width = 1504;
}
);
metricLeft = "=n";
metricRight = "=n";
unicode = 960;
}
{
glyphname = baht;
layers = (
{
layerId = m01;
shapes = (
{
closed = 1;
nodes = (
(603,-200,l),
(603,1700,l),
(543,1700,l),
(543,-200,l)
);
},
{
ref = B;
}
);
width = 1200;
},
{
layerId = m002;
shapes = (
{
closed = 1;
nodes = (
(730,-200,l),
(730,1700,l),
(556,1700,l),
(556,-200,l)
);
},
{
ref = B;
}
);
width = 1200;
}
);
unicode = 3647;
}
{
glyphname = Germandbls;
kernLeft = H;
kernRight = O;
layers = (
{
hints = (
{
name = _corner.inside_md;
origin = (0,6);
type = Corner;
},
{
name = _corner.inside_md;
options = 2;
origin = (0,7);
scale = (-1,1);
type = Corner;
},
{
name = _corner.outside_md;
options = 2;
origin = (0,10);
scale = (-1,1);
type = Corner;
},
{
name = _corner.outside_md;
options = 2;
origin = (0,11);
scale = (-1,1);
type = Corner;
},
{
name = _cap.end_md;
options = 2;
origin = (0,8);
type = Cap;
}
);
layerId = m01;
shapes = (
{
closed = 1;
nodes = (
(180,0,l),
(240,0,l),
(240,1440,l),
(1106,1440,l),
(621,880,l),
(621,800,l),
(1190,800,l),
(1190,60,l),
(455,60,l),
(455,0,l),
(1250,0,l),
(1250,860,l),
(680,860,l),
(1165,1420,l),
(1165,1500,l),
(180,1500,l)
);
}
);
width = 1400;
},
{
hints = (
{
name = _corner.inside_md;
origin = (0,6);
type = Corner;
},
{
name = _corner.inside_md;
options = 2;
origin = (0,7);
scale = (-1,1);
type = Corner;
},
{
name = _corner.outside_md;
options = 2;
origin = (0,10);
scale = (-1,1);
type = Corner;
},
{
name = _corner.outside_md;
options = 2;
origin = (0,11);
scale = (-1,1);
type = Corner;
},
{
name = _cap.end_md;
options = 2;
origin = (0,8);
type = Cap;
}
);
layerId = m002;
shapes = (
{
closed = 1;
nodes = (
(180,0,l),
(360,0,l),
(360,1330,l),
(1000,1330,l),
(615,880,l),
(615,695,l),
(1130,695,l),
(1130,170,l),
(505,170,l),
(505,0,l),
(1300,0,l),
(1300,860,l),
(830,860,l),
(1215,1310,l),
(1215,1500,l),
(180,1500,l)
);
}
);
width = 1430;
},
{
hints = (
{
name = _corner.inside_md;
origin = (0,6);
type = Corner;
},
{
name = _corner.inside_md;
options = 2;
origin = (0,7);
scale = (-1,1);
type = Corner;
},
{
name = _corner.outside_md;
options = 2;
origin = (0,10);
scale = (-1,1);
type = Corner;
},
{
name = _corner.outside_md;
options = 2;
origin = (0,11);
scale = (-0.9,0.9);
type = Corner;
},
{
name = _cap.end_md;
options = 10;
origin = (0,8);
type = Cap;
}
);
layerId = m003;
shapes = (
{
closed = 1;
nodes = (
(140,0,l),
(460,0,l),
(460,1180,l),
(890,1180,l),
(655,870,l),
(655,555,l),
(1130,555,l),
(1130,320,l),
(585,320,l),
(585,0,l),
(1450,0,l),
(1450,870,l),
(1060,870,l),
(1415,1310,l),
(1415,1500,l),
(140,1500,l)
);
}
);
width = 1570;
}
);
metricLeft = "=D";
metricRight = "=B";
unicode = 7838;
}
{
glyphname = quoteleft;
kernLeft = quoteleft;
kernRight = quote;
layers = (
{
layerId = m01;
shapes = (
{
closed = 1;
nodes = (
(210,1327,o),
(220,1463,o),
(250,1600,c),
(213,1600,l),
(120,1370,l),
(120,1190,l),
(210,1190,l)
);
}
);
width = 370;
},
{
layerId = m002;
shapes = (
{
closed = 1;
nodes = (
(300,1327,o),
(300,1463,o),
(300,1600,c),
(223,1600,l),
(120,1370,l),
(120,1190,l),
(300,1190,l)
);
}
);
width = 420;
}
);
metricLeft = "=quotesingle";
metricRight = "=quotesingle";
unicode = 8216;
}
{
glyphname = dagger;
layers = (
{
layerId = m01;
shapes = (
{
alignment = -1;
attr = {
identifier = 58E4C84E;
};
piece = {
Width = 940;
};
pos = (70,300);
ref = _part.dash;
},
{
closed = 1;
nodes = (
(570,0,l),
(570,1500,l),
(510,1500,l),
(510,0,l)
);
}
);
width = 1080;
},
{
layerId = m002;
shapes = (
{
alignment = -1;
attr = {
identifier = 58E4C84E;
};
piece = {
Width = 940;
};
pos = (70,300);
ref = _part.dash;
},
{
closed = 1;
nodes = (
(627,0,l),
(627,1500,l),
(453,1500,l),
(453,0,l)
);
}
);
width = 1080;
},
{
layerId = m003;
shapes = (
{
alignment = -1;
attr = {
identifier = 58E4C84E;
};
piece = {
Width = 1040;
};
pos = (60,300);
ref = _part.dash;
},
{
closed = 1;
nodes = (
(740,0,l),
(740,1500,l),
(420,1500,l),
(420,0,l)
);
}
);
width = 1160;
}
);
metricLeft = "=T";
metricRight = "=T";
unicode = 8224;
}
{
glyphname = bullet;
layers = (
{
layerId = m01;
shapes = (
{
closed = 1;
nodes = (
(230,530,l),
(470,530,l),
(470,770,l),
(230,770,l)
);
}
);
width = 700;
},
{
layerId = m002;
shapes = (
{
closed = 1;
nodes = (
(170,490,l),
(490,490,l),
(490,810,l),
(170,810,l)
);
}
);
width = 660;
}
);
metricLeft = "=period";
metricRight = "=period";
unicode = 8226;
}
{
glyphname = guilsinglleft;
layers = (
{
layerId = m01;
shapes = (
{
closed = 1;
nodes = (
(70,650,l),
(418,308,l),
(457,352,l),
(155,650,l),
(457,948,l),
(418,992,l)
);
}
);
width = 527;
},
{
layerId = m002;
shapes = (
{
closed = 1;
nodes = (
(70,650,l),
(418,308,l),
(620,338,l),
(313,650,l),
(600,962,l),
(418,992,l)
);
}
);
width = 690;
}
);
metricRight = "=|guilsinglleft";
unicode = 8249;
}
{
glyphname = fraction;
kernLeft = fraction;
kernRight = fraction;
layers = (
{
layerId = m01;
shapes = (
{
closed = 1;
nodes = (
(-120,11,l),
(-71,-21,l),
(850,1469,l),
(801,1501,l)
);
}
);
width = 730;
},
{
layerId = m002;
shapes = (
{
closed = 1;
nodes = (
(-100,50,l),
(53,-40,l),
(974,1450,l),
(821,1540,l)
);
}
);
width = 874;
},
{
layerId = m003;
shapes = (
{
closed = 1;
nodes = (
(-100,90,l),
(173,-80,l),
(1094,1410,l),
(821,1580,l)
);
}
);
width = 994;
}
);
metricRight = "=|fraction";
unicode = 8260;
}
{
glyphname = trademark;
kernLeft = quote;
kernRight = quote;
layers = (
{
anchors = (
{
name = bottom;
pos = (670,0);
},
{
name = top;
pos = (670,1500);
}
);
layerId = m01;
shapes = (
{
closed = 1;
nodes = (
(380,800,l),
(555,800,l),
(555,1500,l),
(380,1500,l)
);
},
{
closed = 1;
nodes = (
(100,1330,l),
(835,1330,l),
(835,1500,l),
(100,1500,l)
);
},
{
closed = 1;
nodes = (
(1110,800,l),
(1110,1206,l),
(1275,952,l),
(1425,952,l),
(1590,1206,l),
(1590,800,l),
(1765,800,l),
(1765,1500,l),
(1570,1500,l),
(1350,1145,l),
(1130,1500,l),
(935,1500,l),
(935,800,l)
);
}
);
width = 1865;
}
);
metricRight = "=|trademark";
unicode = 8482;
}
{
glyphname = partialdiff;
layers = (
{
hints = (
{
name = _corner.inside_md;
origin = (0,5);
type = Corner;
},
{
name = _corner.inside_md;
origin = (0,6);
type = Corner;
},
{
name = _corner.inside_md;
origin = (0,7);
type = Corner;
},
{
name = _cap.shoulder_md;
options = 10;
origin = (0,8);
scale = (1,-1);
type = Cap;
},
{
name = _corner.outside_md;
origin = (0,10);
type = Corner;
},
{
name = _corner.outside_md;
origin = (0,11);
type = Corner;
},
{
name = _corner.outside_md;
origin = (0,12);
type = Corner;
},
{
name = _cap.end_lg;
options = 10;
origin = (0,17);
scale = (1,-1);
type = Cap;
}
);
layerId = m01;
shapes = (
{
closed = 1;
nodes = (
(349,1522,l),
(740,1168,ls),
(825,1091,o),
(860,1012,o),
(860,897,cs),
(860,65,l),
(185,65,l),
(185,840,l),
(760,840,l),
(760,900,l),
(125,900,l),
(125,0,l),
(920,0,l),
(920,901,ls),
(920,1031,o),
(881,1120,o),
(784,1208,cs),
(387,1567,l)
);
}
);
width = 1045;
},
{
hints = (
{
name = _corner.inside_md;
origin = (0,5);
type = Corner;
},
{
name = _corner.inside_md;
origin = (0,6);
type = Corner;
},
{
name = _corner.inside_md;
origin = (0,7);
type = Corner;
},
{
name = _cap.shoulder_md;
options = 10;
origin = (0,8);
scale = (1,-1);
type = Cap;
},
{
name = _corner.outside_md;
origin = (0,10);
type = Corner;
},
{
name = _corner.outside_md;
origin = (0,11);
type = Corner;
},
{
name = _corner.outside_md;
origin = (0,12);
type = Corner;
},
{
name = _cap.end_lg;
options = 10;
origin = (0,17);
scale = (1,-1);
type = Cap;
}
);
layerId = m002;
shapes = (
{
closed = 1;
nodes = (
(281,1426,l),
(762,1070,ls),
(830,1019,o),
(860,961,o),
(860,875,cs),
(860,175,l),
(300,175,l),
(300,730,l),
(760,730,l),
(760,900,l),
(125,900,l),
(125,0,l),
(1035,0,l),
(1035,895,ls),
(1035,1028,o),
(989,1120,o),
(882,1199,cs),
(387,1567,l)
);
}
);
width = 1160;
}
);
metricLeft = "=o";
metricRight = "=o";
unicode = 8706;
}
{
glyphname = product;
kernLeft = H;
kernRight = H;
layers = (
{
layerId = m01;
shapes = (
{
closed = 1;
nodes = (
(310,0,l),
(370,0,l),
(370,1460,l),
(310,1460,l)
);
},
{
closed = 1;
nodes = (
(70,1440,l),
(1310,1440,l),
(1310,1500,l),
(70,1500,l)
);
},
{
closed = 1;
nodes = (
(1010,0,l),
(1070,0,l),
(1070,1460,l),
(1010,1460,l)
);
}
);
width = 1380;
},
{
layerId = m002;
shapes = (
{
closed = 1;
nodes = (
(252,0,l),
(428,0,l),
(428,1400,l),
(252,1400,l)
);
},
{
closed = 1;
nodes = (
(70,1330,l),
(1410,1330,l),
(1410,1500,l),
(70,1500,l)
);
},
{
closed = 1;
nodes = (
(1052,0,l),
(1228,0,l),
(1228,1400,l),
(1052,1400,l)
);
}
);
width = 1480;
},
{
layerId = m003;
shapes = (
{
closed = 1;
nodes = (
(242,0,l),
(562,0,l),
(562,1400,l),
(242,1400,l)
);
},
{
closed = 1;
nodes = (
(60,1180,l),
(1538,1180,l),
(1538,1500,l),
(60,1500,l)
);
},
{
closed = 1;
nodes = (
(1036,0,l),
(1356,0,l),
(1356,1400,l),
(1036,1400,l)
);
}
);
width = 1598;
}
);
metricLeft = "=T";
metricRight = "=T";
unicode = 8719;
}
{
glyphname = summation;
layers = (
{
layerId = m01;
shapes = (
{
closed = 1;
nodes = (
(580,750,l),
(180,0,l),
(384,0,l),
(784,750,l),
(384,1500,l),
(180,1500,l)
);
},
{
closed = 1;
nodes = (
(298,0,l),
(1234,0,l),
(1234,170,l),
(298,170,l)
);
},
{
closed = 1;
nodes = (
(298,1330,l),
(1234,1330,l),
(1234,1500,l),
(298,1500,l)
);
}
);
width = 1374;
}
);
metricLeft = "=E";
metricRight = "=E";
unicode = 8721;
}
{
glyphname = radical;
kernLeft = v;
kernRight = V;
layers = (
{
layerId = m01;
shapes = (
{
closed = 1;
nodes = (
(886,1500,l),
(368,73,l),
(137,670,l),
(80,648,l),
(331,0,l),
(405,0,l),
(928,1440,l),
(1252,1440,l),
(1252,1500,l)
);
}
);
width = 1332;
},
{
layerId = m002;
shapes = (
{
closed = 1;
nodes = (
(846,1500,l),
(378,261,l),
(232,648,l),
(40,648,l),
(291,0,l),
(465,0,l),
(973,1330,l),
(1212,1330,l),
(1212,1500,l)
);
}
);
width = 1252;
},
{
layerId = m003;
shapes = (
{
closed = 1;
nodes = (
(916,1500,l),
(488,381,l),
(382,648,l),
(40,648,l),
(291,0,l),
(685,0,l),
(1137,1180,l),
(1372,1180,l),
(1372,1500,l)
);
}
);
width = 1412;
}
);
metricLeft = "=V";
metricRight = "=V";
unicode = 8730;
}
{
glyphname = infinity;
layers = (
{
hints = (
{
name = _corner.outside_lg;
options = 2;
origin = (0,20);
scale = (-1,1);
type = Corner;
},
{
name = _corner.inside_lg;
options = 2;
origin = (1,0);
scale = (-1,1);
type = Corner;
},
{
name = _corner.inside_lg;
options = 2;
origin = (1,10);
scale = (-1,1);
type = Corner;
},
{
name = _corner.outside_lg;
options = 2;
origin = (0,21);
scale = (-1,1);
type = Corner;
},
{
name = _corner.outside_lg;
options = 2;
origin = (0,10);
scale = (-1,1);
type = Corner;
},
{
name = _corner.outside_lg;
options = 2;
origin = (0,9);
scale = (-1,1);
type = Corner;
},
{
name = _corner.inside_lg;
options = 2;
origin = (2,9);
scale = (-1,1);
type = Corner;
},
{
name = _corner.inside_lg;
options = 2;
origin = (2,10);
scale = (-1,1);
type = Corner;
}
);
layerId = m01;
shapes = (
{
closed = 1;
nodes = (
(621,290,ls),
(744,290,o),
(831,326,o),
(918,413,cs),
(1203,698,l),
(1488,413,ls),
(1575,326,o),
(1662,290,o),
(1785,290,cs),
(2306,290,l),
(2306,1210,l),
(1785,1210,ls),
(1662,1210,o),
(1576,1175,o),
(1488,1087,cs),
(1203,802,l),
(918,1087,ls),
(831,1174,o),
(744,1210,o),
(621,1210,cs),
(100,1210,l),
(100,290,l)
);
},
{
closed = 1;
nodes = (
(160,1150,l),
(633,1150,ls),
(730,1150,o),
(798,1122,o),
(867,1053,cs),
(1170,750,l),
(867,447,ls),
(798,378,o),
(730,350,o),
(633,350,cs),
(160,350,l)
);
},
{
closed = 1;
nodes = (
(1773,350,ls),
(1676,350,o),
(1608,378,o),
(1539,447,cs),
(1236,750,l),
(1539,1053,ls),
(1608,1122,o),
(1676,1150,o),
(1773,1150,cs),
(2246,1150,l),
(2246,350,l)
);
}
);
width = 2406;
},
{
hints = (
{
name = _corner.outside_lg;
options = 2;
origin = (0,20);
scale = (-1,1);
type = Corner;
},
{
name = _corner.inside_lg;
options = 2;
origin = (1,0);
scale = (-1,1);
type = Corner;
},
{
name = _corner.inside_lg;
options = 2;
origin = (1,10);
scale = (-1,1);
type = Corner;
},
{
name = _corner.outside_lg;
options = 2;
origin = (0,21);
scale = (-1,1);
type = Corner;
},
{
name = _corner.outside_lg;
options = 2;
origin = (0,9);
scale = (-1,1);
type = Corner;
},
{
name = _corner.outside_lg;
options = 2;
origin = (0,10);
scale = (-1,1);
type = Corner;
},
{
name = _corner.inside_lg;
options = 2;
origin = (2,9);
scale = (-1,1);
type = Corner;
},
{
name = _corner.inside_lg;
options = 2;
origin = (2,10);
scale = (-1,1);
type = Corner;
}
);
layerId = m002;
shapes = (
{
closed = 1;
nodes = (
(707,290,ls),
(830,290,o),
(917,326,o),
(1004,413,cs),
(1229,638,l),
(1455,413,ls),
(1542,326,o),
(1629,290,o),
(1752,290,cs),
(2359,290,l),
(2359,1210,l),
(1752,1210,ls),
(1629,1210,o),
(1542,1174,o),
(1455,1087,cs),
(1229,862,l),
(1004,1087,ls),
(917,1174,o),
(830,1210,o),
(707,1210,cs),
(100,1210,l),
(100,290,l)
);
},
{
closed = 1;
nodes = (
(280,1040,l),
(723,1040,ls),
(784,1040,o),
(828,1022,o),
(871,979,cs),
(1100,750,l),
(871,521,ls),
(828,478,o),
(784,460,o),
(723,460,cs),
(280,460,l)
);
},
{
closed = 1;
nodes = (
(1736,460,ls),
(1675,460,o),
(1631,478,o),
(1588,521,cs),
(1359,750,l),
(1588,979,ls),
(1631,1022,o),
(1675,1040,o),
(1736,1040,cs),
(2179,1040,l),
(2179,460,l)
);
}
);
width = 2459;
},
{
hints = (
{
name = _corner.outside_lg;
options = 2;
origin = (0,20);
scale = (-1,1);
type = Corner;
},
{
name = _corner.inside_lg;
options = 2;
origin = (1,0);
scale = (-1,1);
type = Corner;
},
{
name = _corner.inside_lg;
options = 2;
origin = (1,10);
scale = (-1,1);
type = Corner;
},
{
name = _corner.outside_lg;
options = 2;
origin = (0,21);
scale = (-1,1);
type = Corner;
},
{
name = _corner.outside_lg;
options = 2;
origin = (0,10);
scale = (-1,1);
type = Corner;
},
{
name = _corner.outside_lg;
options = 2;
origin = (0,9);
scale = (-1,1);
type = Corner;
},
{
name = _corner.inside_lg;
options = 2;
origin = (2,9);
scale = (-1,1);
type = Corner;
},
{
name = _corner.inside_lg;
options = 2;
origin = (2,10);
scale = (-1,1);
type = Corner;
}
);
layerId = m003;
shapes = (
{
closed = 1;
nodes = (
(707,250,ls),
(830,250,o),
(917,286,o),
(1004,373,cs),
(1189,558,l),
(1375,373,ls),
(1463,285,o),
(1549,250,o),
(1672,250,cs),
(2279,250,l),
(2279,1250,l),
(1672,1250,ls),
(1549,1250,o),
(1462,1214,o),
(1375,1127,cs),
(1190,942,l),
(1004,1127,ls),
(918,1213,o),
(830,1250,o),
(707,1250,cs),
(100,1250,l),
(100,250,l)
);
},
{
closed = 1;
nodes = (
(410,910,l),
(712,910,ls),
(753,910,o),
(782,898,o),
(811,869,cs),
(930,750,l),
(811,631,ls),
(782,602,o),
(753,590,o),
(712,590,cs),
(410,590,l)
);
},
{
closed = 1;
nodes = (
(1667,590,ls),
(1626,590,o),
(1597,602,o),
(1568,631,cs),
(1449,750,l),
(1568,869,ls),
(1597,898,o),
(1626,910,o),
(1667,910,cs),
(1969,910,l),
(1969,590,l)
);
}
);
width = 2379;
}
);
metricRight = "=|infinity";
unicode = 8734;
}
{
glyphname = integral;
layers = (
{
hints = (
{
name = _corner.outside_sm;
options = 2;
origin = (0,1);
scale = (-1.2,1.2);
type = Corner;
},
{
name = _corner.inside_sm;
options = 2;
origin = (0,6);
scale = (-1.8,1.8);
type = Corner;
},
{
name = _corner.outside_sm;
options = 2;
origin = (0,5);
scale = (-1.2,1.2);
type = Corner;
},
{
name = _corner.inside_sm;
options = 2;
origin = (0,2);
scale = (-1.8,1.8);
type = Corner;
},
{
name = _cap.end_md;
options = 10;
origin = (0,7);
type = Cap;
},
{
name = _cap.end_md;
options = 10;
origin = (0,3);
type = Cap;
}
);
layerId = m01;
shapes = (
{
closed = 1;
nodes = (
(1425,1870,l),
(760,1870,l),
(560,-310,l),
(-50,-310,l),
(-50,-370,l),
(615,-370,l),
(815,1810,l),
(1425,1810,l)
);
}
);
width = 1375;
},
{
hints = (
{
name = _corner.outside_sm;
options = 2;
origin = (0,1);
scale = (-1.4,1.4);
type = Corner;
},
{
name = _corner.inside_sm;
options = 2;
origin = (0,6);
scale = (-2.5,2.5);
type = Corner;
},
{
name = _corner.outside_sm;
options = 2;
origin = (0,5);
scale = (-1.4,1.4);
type = Corner;
},
{
name = _corner.inside_sm;
options = 2;
origin = (0,2);
scale = (-2.5,2.5);
type = Corner;
},
{
name = _cap.end_md;
options = 2;
origin = (0,7);
type = Cap;
},
{
name = _cap.end_md;
options = 2;
origin = (0,3);
type = Cap;
}
);
layerId = m002;
shapes = (
{
closed = 1;
nodes = (
(1490,1870,l),
(760,1870,l),
(560,-200,l),
(-10,-200,l),
(-10,-370,l),
(720,-370,l),
(920,1700,l),
(1490,1700,l)
);
}
);
width = 1480;
},
{
hints = (
{
name = _corner.outside_sm;
options = 2;
origin = (0,1);
scale = (-1.4,1.4);
type = Corner;
},
{
name = _corner.inside_sm;
options = 2;
origin = (0,6);
scale = (-2.5,2.5);
type = Corner;
},
{
name = _corner.outside_sm;
options = 2;
origin = (0,5);
scale = (-1.4,1.4);
type = Corner;
},
{
name = _corner.inside_sm;
options = 2;
origin = (0,2);
scale = (-2.5,2.5);
type = Corner;
},
{
name = _cap.end_md;
options = 10;
origin = (0,7);
scale = (1.00049,1);
type = Cap;
},
{
name = _cap.end_md;
options = 10;
origin = (0,3);
type = Cap;
}
);
layerId = m003;
shapes = (
{
closed = 1;
nodes = (
(1674,1870,l),
(814,1870,l),
(614,-50,l),
(44,-50,l),
(44,-370,l),
(904,-370,l),
(1104,1550,l),
(1674,1550,l)
);
}
);
width = 1718;
}
);
metricRight = "=|integral";
unicode = 8747;
}
{
glyphname = notequal;
layers = (
{
layerId = m01;
shapes = (
{
alignment = 1;
attr = {
identifier = 5AE1FB50;
};
ref = equal;
},
{
closed = 1;
nodes = (
(263,120,l),
(316,90,l),
(938,1180,l),
(885,1210,l)
);
}
);
width = 1200;
},
{
layerId = m002;
shapes = (
{
alignment = 1;
attr = {
identifier = 5AE1FB50;
};
ref = equal;
},
{
closed = 1;
nodes = (
(213,150,l),
(366,60,l),
(988,1150,l),
(835,1240,l)
);
}
);
width = 1200;
},
{
layerId = m003;
shapes = (
{
alignment = 1;
attr = {
identifier = 5AE1FB50;
};
ref = equal;
},
{
closed = 1;
nodes = (
(213,0,l),
(566,-190,l),
(1388,1300,l),
(1035,1490,l)
);
}
);
width = 1600;
}
);
metricLeft = "=equal";
metricRight = "=equal";
unicode = 8800;
}
{
glyphname = lozenge;
layers = (
{
layerId = m01;
shapes = (
{
closed = 1;
nodes = (
(638,-8,l),
(690,-8,l),
(1178,750,l),
(690,1508,l),
(638,1508,l),
(150,750,l)
);
},
{
closed = 1;
nodes = (
(664,60,l),
(222,750,l),
(664,1440,l),
(1106,750,l)
);
}
);
width = 1328;
},
{
layerId = m002;
shapes = (
{
closed = 1;
nodes = (
(628,-18,l),
(760,-18,l),
(1258,750,l),
(760,1518,l),
(628,1518,l),
(130,750,l)
);
},
{
closed = 1;
nodes = (
(694,208,l),
(342,750,l),
(694,1292,l),
(1046,750,l)
);
}
);
width = 1388;
},
{
layerId = m003;
shapes = (
{
closed = 1;
nodes = (
(563,-18,l),
(795,-18,l),
(1293,750,l),
(795,1518,l),
(563,1518,l),
(65,750,l)
);
},
{
closed = 1;
nodes = (
(679,358,l),
(427,750,l),
(679,1142,l),
(941,750,l)
);
}
);
width = 1358;
}
);
metricLeft = "=O";
metricRight = "=O";
unicode = 9674;
}
{
export = 0;
glyphname = _cap.end_lg;
layers = (
{
anchors = (
{
name = node1;
pos = (0,1040);
},
{
name = node2;
pos = (0,1100);
}
);
layerId = m01;
shapes = (
{
closed = 0;
nodes = (
(-425,1040,l),
(-235,1040,o),
(-204,1005,o),
(-81,860,c),
(-30,894,l),
(-95,978,o),
(-148,1030,o),
(-206,1060,cs),
(-264,1091,o),
(-328,1100,o),
(-415,1100,c)
);
}
);
width = 400;
},
{
anchors = (
{
name = node1;
pos = (0,930);
},
{
name = node2;
pos = (0,1100);
}
);
layerId = m002;
shapes = (
{
closed = 0;
nodes = (
(-425,920,l),
(-288,920,o),
(-276,923,o),
(-141,770,c),
(0,864,l),
(-86,970,o),
(-147,1029,o),
(-208,1061,cs),
(-268,1094,o),
(-329,1100,o),
(-415,1100,c)
);
}
);
width = 400;
},
{
anchors = (
{
name = node1;
pos = (0,780);
},
{
name = node2;
pos = (0,1100);
}
);
layerId = m003;
shapes = (
{
closed = 0;
nodes = (
(-425,770,l),
(-367,770,o),
(-326,756,o),
(-283,700,c),
(-5,858,l),
(-137,1021,o),
(-147,1029,o),
(-208,1061,cs),
(-268,1094,o),
(-329,1100,o),
(-415,1100,c)
);
}
);
width = 400;
}
);
}
{
export = 0;
glyphname = _cap.end_lg_close;
layers = (
{
anchors = (
{
name = node1;
pos = (0,1040);
},
{
name = node2;
pos = (0,1100);
}
);
layerId = m01;
shapes = (
{
closed = 0;
nodes = (
(-425,1040,l),
(-235,1040,o),
(-204,1005,o),
(-81,860,c),
(-30,894,l),
(-95,978,o),
(-148,1030,o),
(-206,1060,cs),
(-264,1091,o),
(-328,1100,o),
(-415,1100,c)
);
}
);
width = 400;
},
{
anchors = (
{
name = node1;
pos = (0,930);
},
{
name = node2;
pos = (0,1100);
}
);
layerId = m002;
shapes = (
{
closed = 0;
nodes = (
(-425,920,l),
(-288,920,o),
(-276,923,o),
(-141,770,c),
(0,864,l),
(-86,970,o),
(-147,1029,o),
(-208,1061,cs),
(-268,1094,o),
(-329,1100,o),
(-415,1100,c)
);
}
);
width = 400;
},
{
anchors = (
{
name = node1;
pos = (0,780);
},
{
name = node2;
pos = (0,1100);
}
);
layerId = m003;
shapes = (
{
closed = 0;
nodes = (
(-485,780,l),
(-365,780,o),
(-344,746,o),
(-322,662,c),
(3,662,l),
(3,800,o),
(-22,856,o),
(-115,957,cs),
(-239,1091,o),
(-304,1100,o),
(-475,1100,c)
);
}
);
width = 400;
}
);
}
{
export = 0;
glyphname = _cap.end_md;
layers = (
{
anchors = (
{
name = node1;
pos = (0,1040);
},
{
name = node2;
pos = (0,1100);
}
);
layerId = m01;
shapes = (
{
closed = 0;
nodes = (
(-321,1040,l),
(-191,1040,o),
(-138,1020,o),
(-51,891,c),
(0,924,l),
(-115,1086,o),
(-178,1100,o),
(-331,1100,c)
);
}
);
width = 400;
},
{
anchors = (
{
name = node1;
pos = (0,930);
},
{
name = node2;
pos = (0,1100);
}
);
layerId = m002;
shapes = (
{
closed = 0;
nodes = (
(-321,930,l),
(-247,930,o),
(-221,920,o),
(-152,841,c),
(0,924,l),
(-115,1086,o),
(-178,1100,o),
(-331,1100,c)
);
}
);
width = 400;
},
{
anchors = (
{
name = node1;
pos = (0,780);
},
{
name = node2;
pos = (0,1100);
}
);
layerId = m003;
shapes = (
{
closed = 0;
nodes = (
(-321,780,l),
(-257,780,o),
(-237,754,o),
(-205,717,c),
(34,882,l),
(-81,1044,o),
(-158,1100,o),
(-331,1100,c)
);
}
);
width = 400;
}
);
}
{
export = 0;
glyphname = _cap.letter_m;
layers = (
{
anchors = (
{
name = node1;
pos = (0,1100);
},
{
name = node2;
pos = (0,1044);
}
);
layerId = m01;
shapes = (
{
closed = 0;
nodes = (
(190,1100,l),
(83,1100,o),
(24,1092,o),
(-150,902,c),
(-100,802,l),
(-100,872,o),
(-88,895,o),
(-12,961,cs),
(50,1015,o),
(88,1040,o),
(150,1040,c)
);
}
);
width = 400;
},
{
anchors = (
{
name = node1;
pos = (0,1100);
},
{
name = node2;
pos = (0,930);
}
);
layerId = m002;
shapes = (
{
closed = 0;
nodes = (
(130,1100,l),
(-4,1100,o),
(-48,1068,o),
(-217,890,c),
(-100,732,l),
(-100,802,o),
(-92,820,o),
(-27,872,cs),
(36,922,o),
(58,930,o),
(120,930,c)
);
}
);
width = 400;
},
{
anchors = (
{
name = node1;
pos = (0,1100);
},
{
name = node2;
pos = (0,780);
}
);
layerId = m003;
shapes = (
{
closed = 0;
nodes = (
(130,1100,l),
(-4,1100,o),
(-48,1068,o),
(-217,890,c),
(-100,582,l),
(-100,652,o),
(-92,670,o),
(-27,722,cs),
(36,772,o),
(58,780,o),
(120,780,c)
);
}
);
width = 400;
}
);
}
{
export = 0;
glyphname = _cap.letter_n;
layers = (
{
anchors = (
{
name = node1;
pos = (0,1100);
},
{
name = node2;
pos = (0,1040);
}
);
layerId = m01;
shapes = (
{
closed = 0;
nodes = (
(190,1100,l),
(83,1100,o),
(24,1092,o),
(-150,902,c),
(-100,802,l),
(-100,872,o),
(-88,895,o),
(-12,961,cs),
(50,1015,o),
(88,1040,o),
(150,1040,c)
);
}
);
width = 400;
},
{
anchors = (
{
name = node1;
pos = (0,1100);
},
{
name = node2;
pos = (0,930);
}
);
layerId = m002;
shapes = (
{
closed = 0;
nodes = (
(190,1100,l),
(56,1100,o),
(24,1082,o),
(-187,860,c),
(-100,702,l),
(-100,772,o),
(-88,795,o),
(-12,861,cs),
(50,915,o),
(88,930,o),
(150,930,c)
);
}
);
width = 400;
},
{
anchors = (
{
name = node1;
pos = (0,1100);
},
{
name = node2;
pos = (0,780);
}
);
layerId = m003;
shapes = (
{
closed = 0;
nodes = (
(190,1100,l),
(56,1100,o),
(24,1082,o),
(-187,860,c),
(-100,622,l),
(-100,663,o),
(-90,682,o),
(-34,730,cs),
(15,772,o),
(35,780,o),
(80,780,c)
);
}
);
width = 400;
}
);
}
{
export = 0;
glyphname = _cap.letter_r;
layers = (
{
anchors = (
{
name = node1;
pos = (0,1040);
},
{
name = node2;
pos = (0,1100);
}
);
layerId = m01;
shapes = (
{
closed = 0;
nodes = (
(-135,1040,l),
(-37,1040,o),
(23,1022,o),
(90,965,c),
(130,1010,l),
(42,1091,o),
(-35,1100,o),
(-155,1100,c)
);
}
);
width = 400;
},
{
anchors = (
{
name = node1;
pos = (0,930);
},
{
name = node2;
pos = (0,1100);
}
);
layerId = m002;
shapes = (
{
closed = 0;
nodes = (
(-135,930,l),
(-63,930,o),
(-13,920,o),
(26,878,c),
(130,1010,l),
(42,1091,o),
(-35,1100,o),
(-155,1100,c)
);
}
);
width = 400;
},
{
anchors = (
{
name = node1;
pos = (0,780);
},
{
name = node2;
pos = (0,1100);
}
);
layerId = m003;
shapes = (
{
closed = 0;
nodes = (
(-135,780,l),
(-93,780,o),
(-50,765,o),
(-18,721,c),
(113,983,l),
(51,1045,o),
(-23,1100,o),
(-125,1100,c)
);
}
);
width = 400;
}
);
}
{
export = 0;
glyphname = _cap.shoulder_md;
layers = (
{
anchors = (
{
name = node1;
pos = (0,1100);
},
{
name = node2;
pos = (0,1040);
}
);
layerId = m01;
shapes = (
{
closed = 0;
nodes = (
(160,1100,l),
(43,1100,o),
(20,1092,o),
(-86,981,c),
(-100,986,l),
(-100,792,l),
(-100,869,o),
(-87,886,o),
(-21,958,cs),
(18,1000,o),
(68,1040,o),
(140,1040,c)
);
}
);
width = 400;
},
{
anchors = (
{
name = node1;
pos = (0,1100);
},
{
name = node2;
pos = (0,930);
}
);
layerId = m002;
shapes = (
{
closed = 0;
nodes = (
(160,1100,l),
(43,1100,o),
(20,1092,o),
(-86,981,c),
(-100,986,l),
(-100,712,l),
(-100,789,o),
(-87,806,o),
(-21,878,cs),
(18,920,o),
(68,930,o),
(140,930,c)
);
}
);
width = 400;
},
{
anchors = (
{
name = node1;
pos = (0,1100);
},
{
name = node2;
pos = (0,780);
}
);
layerId = m003;
shapes = (
{
closed = 0;
nodes = (
(160,1100,l),
(43,1100,o),
(20,1092,o),
(-86,981,c),
(-100,986,l),
(-100,662,l),
(-100,699,o),
(-91,714,o),
(-53,743,cs),
(-14,772,o),
(7,780,o),
(60,780,c)
);
}
);
width = 400;
}
);
}
{
export = 0;
glyphname = _cap.shoulder_sm;
layers = (
{
anchors = (
{
name = node1;
pos = (0,1100);
},
{
name = node2;
pos = (0,1040);
}
);
layerId = m01;
shapes = (
{
closed = 0;
nodes = (
(60,1100,l),
(8,1100,o),
(-18,1095,o),
(-46,1081,c),
(-60,1088,l),
(-60,972,l),
(-60,1009,o),
(-21,1040,o),
(30,1040,c)
);
}
);
width = 400;
},
{
anchors = (
{
name = node1;
pos = (0,1100);
},
{
name = node2;
pos = (0,930);
}
);
layerId = m002;
shapes = (
{
closed = 0;
nodes = (
(60,1100,l),
(8,1100,o),
(-18,1095,o),
(-46,1081,c),
(-60,1088,l),
(-60,862,l),
(-60,899,o),
(-31,930,o),
(20,930,c)
);
}
);
width = 400;
},
{
anchors = (
{
name = node1;
pos = (0,1100);
},
{
name = node2;
pos = (0,930);
}
);
layerId = m003;
shapes = (
{
closed = 0;
nodes = (
(60,1100,l),
(8,1100,o),
(-18,1095,o),
(-46,1081,c),
(-60,1088,l),
(-60,862,l),
(-60,899,o),
(-31,930,o),
(20,930,c)
);
}
);
width = 400;
}
);
}
{
export = 0;
glyphname = _corner.inside_lg;
layers = (
{
layerId = m01;
shapes = (
{
closed = 0;
nodes = (
(354,0,l),
(249,0,o),
(195,35,o),
(115,115,cs),
(35,195,o),
(0,249,o),
(0,354,c)
);
}
);
width = 420;
},
{
layerId = m002;
shapes = (
{
closed = 0;
nodes = (
(260,0,l),
(175,0,o),
(138,18,o),
(78,78,cs),
(18,138,o),
(0,175,o),
(0,260,c)
);
}
);
width = 420;
}
);
}
{
export = 0;
glyphname = _corner.inside_md;
layers = (
{
layerId = m01;
shapes = (
{
closed = 0;
nodes = (
(280,0,l),
(210,0,o),
(162,24,o),
(93,93,cs),
(24,162,o),
(0,210,o),
(0,280,c)
);
}
);
width = 420;
},
{
layerId = m002;
shapes = (
{
closed = 0;
nodes = (
(210,0,l),
(140,0,o),
(109,11,o),
(60,60,cs),
(11,109,o),
(0,140,o),
(0,210,c)
);
}
);
width = 420;
}
);
}
{
export = 0;
glyphname = _corner.inside_sm;
layers = (
{
layerId = m01;
shapes = (
{
closed = 0;
nodes = (
(140,0,l),
(56,0,o),
(0,56,o),
(0,140,c)
);
}
);
width = 420;
},
{
layerId = m002;
shapes = (
{
closed = 0;
nodes = (
(75,0,l),
(25,0,o),
(0,25,o),
(0,75,c)
);
}
);
width = 420;
},
{
layerId = m003;
shapes = (
{
closed = 0;
nodes = (
(75,0,l),
(25,0,o),
(0,25,o),
(0,75,c)
);
}
);
width = 420;
}
);
}
{
glyphname = _corner.letter_v;
kernLeft = v;
kernRight = v;
layers = (
{
anchors = (
{
name = corner;
}
);
layerId = m01;
shapes = (
{
closed = 0;
nodes = (
(111,372,l),
(60,195,o),
(37,112,o),
(0,-40,c),
(-37,112,o),
(-60,195,o),
(-111,372,c)
);
}
);
width = 1140;
}
);
}
{
export = 0;
glyphname = _corner.outside_md;
layers = (
{
layerId = m01;
shapes = (
{
closed = 0;
nodes = (
(0,380,l),
(0,270,o),
(10,210,o),
(110,110,cs),
(210,10,o),
(270,0,o),
(380,0,c)
);
}
);
width = 420;
},
{
layerId = m002;
shapes = (
{
closed = 0;
nodes = (
(0,380,l),
(0,270,o),
(10,210,o),
(110,110,cs),
(210,10,o),
(270,0,o),
(380,0,c)
);
}
);
width = 420;
},
{
layerId = m003;
shapes = (
{
closed = 0;
nodes = (
(0,390,l),
(0,260,o),
(3,197,o),
(100,100,cs),
(197,3,o),
(260,0,o),
(390,0,c)
);
}
);
width = 420;
}
);
}
{
export = 0;
glyphname = _corner.outside_sm;
layers = (
{
layerId = m01;
shapes = (
{
closed = 0;
nodes = (
(0,265,l),
(0,95,o),
(95,0,o),
(265,0,c)
);
}
);
width = 420;
},
{
layerId = m002;
shapes = (
{
closed = 0;
nodes = (
(0,265,l),
(0,95,o),
(95,0,o),
(265,0,c)
);
}
);
width = 420;
},
{
layerId = m003;
shapes = (
{
closed = 0;
nodes = (
(0,265,l),
(0,95,o),
(95,0,o),
(265,0,c)
);
}
);
width = 420;
}
);
}
{
export = 0;
glyphname = _part.Lslash;
layers = (
{
anchors = (
{
name = _top;
pos = (270,1500);
}
);
layerId = m01;
shapes = (
{
closed = 1;
nodes = (
(34,722,l),
(60,668,l),
(650,943,l),
(624,997,l)
);
}
);
width = 1194;
},
{
anchors = (
{
name = _top;
pos = (270,1500);
}
);
layerId = m002;
shapes = (
{
closed = 1;
nodes = (
(10,779,l),
(82,620,l),
(672,895,l),
(600,1054,l)
);
}
);
width = 1194;
}
);
}
{
export = 0;
glyphname = _part.Oslash;
layers = (
{
anchors = (
{
name = _top;
pos = (670,1500);
}
);
layerId = m01;
shapes = (
{
closed = 1;
nodes = (
(61,-67,l),
(109,-103,l),
(1279,1567,l),
(1231,1603,l)
);
}
);
width = 1340;
},
{
anchors = (
{
name = _top;
pos = (670,1500);
}
);
layerId = m002;
shapes = (
{
closed = 1;
nodes = (
(14,-34,l),
(156,-136,l),
(1326,1534,l),
(1184,1636,l)
);
}
);
width = 1340;
}
);
}
{
export = 0;
glyphname = _part.arrow_head;
layers = (
{
layerId = m01;
shapes = (
{
closed = 1;
nodes = (
(976,750,l),
(425,199,l),
(552,72,l),
(1230,750,l),
(552,1428,l),
(425,1301,l)
);
}
);
width = 1350;
}
);
}
{
glyphname = _part.dash;
kernLeft = hyphen;
kernRight = hyphen;
layers = (
{
layerId = m01;
partSelection = {
Width = 2;
};
shapes = (
{
closed = 1;
nodes = (
(0,720,l),
(2048,720,l),
(2048,780,l),
(0,780,l)
);
}
);
width = 2048;
},
{
associatedMasterId = m01;
layerId = "5FFD179F-2455-4998-91E6-6EA6A7A61CA5";
name = Narrow;
partSelection = {
Width = 1;
};
shapes = (
{
closed = 1;
nodes = (
(0,720,l),
(256,720,l),
(256,780,l),
(0,780,l)
);
}
);
width = 256;
},
{
layerId = m002;
partSelection = {
Width = 2;
};
shapes = (
{
closed = 1;
nodes = (
(0,663,l),
(2048,663,l),
(2048,837,l),
(0,837,l)
);
}
);
width = 2048;
},
{
associatedMasterId = m002;
layerId = "F6541317-D5E8-40A3-9797-14EB7F9BEC75";
name = Narrow;
partSelection = {
Width = 1;
};
shapes = (
{
closed = 1;
nodes = (
(0,663,l),
(256,663,l),
(256,837,l),
(0,837,l)
);
}
);
width = 256;
},
{
layerId = m003;
partSelection = {
Width = 2;
};
shapes = (
{
closed = 1;
nodes = (
(0,590,l),
(2048,590,l),
(2048,910,l),
(0,910,l)
);
}
);
width = 2048;
},
{
associatedMasterId = m003;
layerId = "75DC28F0-9A9C-4814-BD60-DC1F8BC067F1";
name = Narrow;
partSelection = {
Width = 1;
};
shapes = (
{
closed = 1;
nodes = (
(0,590,l),
(256,590,l),
(256,910,l),
(0,910,l)
);
}
);
width = 256;
}
);
partsSettings = (
{
bottomValue = 256;
name = Width;
topValue = 2048;
}
);
}
{
export = 0;
glyphname = _part.e_small;
layers = (
{
hints = (
{
name = _corner.outside_md;
origin = (0,3);
type = Corner;
},
{
name = _corner.outside_md;
options = 2;
origin = (0,4);
scale = (-1,1);
type = Corner;
},
{
name = _corner.outside_md;
origin = (0,5);
type = Corner;
},
{
name = _cap.end_sm;
options = 10;
origin = (0,6);
scale = (1,-1);
type = Cap;
},
{
name = _corner.inside_md;
origin = (0,8);
type = Corner;
},
{
name = _corner.inside_md;
options = 2;
origin = (0,9);
scale = (-1,1);
type = Corner;
},
{
name = _corner.inside_md;
origin = (0,10);
type = Corner;
}
);
layerId = m01;
shapes = (
{
closed = 1;
nodes = (
(843,587,l),
(843,527,l),
(1595,527,l),
(1595,1100,l),
(830,1100,l),
(830,0,l),
(1588,0,l),
(1588,60,l),
(890,60,l),
(890,1040,l),
(1535,1040,l),
(1535,587,l)
);
}
);
width = 1720;
},
{
hints = (
{
name = _corner.outside_md;
origin = (0,3);
type = Corner;
},
{
name = _corner.outside_md;
options = 2;
origin = (0,4);
scale = (-1,1);
type = Corner;
},
{
name = _corner.outside_md;
origin = (0,5);
type = Corner;
},
{
name = _cap.end_sm;
options = 10;
origin = (0,6);
scale = (1,-1);
type = Cap;
},
{
name = _corner.inside_md;
origin = (0,8);
type = Corner;
},
{
name = _corner.inside_md;
options = 2;
origin = (0,9);
scale = (-1,1);
type = Corner;
},
{
name = _corner.inside_md;
origin = (0,10);
type = Corner;
}
);
layerId = m002;
shapes = (
{
closed = 1;
nodes = (
(923,637,l),
(923,472,l),
(1710,472,l),
(1710,1100,l),
(830,1100,l),
(830,0,l),
(1703,0,l),
(1703,170,l),
(1005,170,l),
(1005,930,l),
(1535,930,l),
(1535,637,l)
);
}
);
width = 1835;
},
{
hints = (
{
name = _corner.outside_md;
origin = (0,3);
type = Corner;
},
{
name = _corner.outside_md;
options = 2;
origin = (0,4);
scale = (-1,1);
type = Corner;
},
{
name = _corner.outside_md;
origin = (0,5);
type = Corner;
},
{
name = _cap.end_sm;
options = 10;
origin = (0,6);
scale = (0.96875,-1);
type = Cap;
},
{
name = _corner.inside_md;
origin = (0,8);
type = Corner;
},
{
name = _corner.inside_md;
options = 2;
origin = (0,9);
scale = (-1,1);
type = Corner;
},
{
name = _corner.inside_md;
origin = (0,10);
type = Corner;
}
);
layerId = m003;
shapes = (
{
closed = 1;
nodes = (
(743,667,l),
(743,416,l),
(1560,416,l),
(1560,1100,l),
(650,1100,l),
(650,0,l),
(1553,0,l),
(1553,310,l),
(975,310,l),
(975,790,l),
(1245,790,l),
(1245,667,l)
);
}
);
width = 1630;
}
);
}
{
export = 0;
glyphname = _part.oslash;
layers = (
{
anchors = (
{
name = _top;
pos = (575,1100);
}
);
layerId = m01;
shapes = (
{
closed = 1;
nodes = (
(117,-68,l),
(163,-102,l),
(1033,1168,l),
(987,1202,l)
);
}
);
width = 1150;
},
{
anchors = (
{
name = _top;
pos = (575,1100);
}
);
layerId = m002;
shapes = (
{
closed = 1;
nodes = (
(69,-34,l),
(211,-136,l),
(1081,1134,l),
(939,1236,l)
);
}
);
width = 1150;
},
{
anchors = (
{
name = _top;
pos = (575,1100);
}
);
layerId = m003;
shapes = (
{
closed = 1;
nodes = (
(69,-34,l),
(211,-136,l),
(1081,1134,l),
(939,1236,l)
);
}
);
width = 1150;
}
);
}
{
export = 0;
glyphname = _part.percent_circle;
layers = (
{
hints = (
{
name = _corner.outside_md;
origin = (0,0);
scale = (0.7,0.7);
type = Corner;
},
{
name = _corner.outside_md;
options = 2;
origin = (0,1);
scale = (-0.7,0.7);
type = Corner;
},
{
name = _corner.outside_md;
origin = (0,2);
scale = (0.7,0.7);
type = Corner;
},
{
name = _corner.outside_md;
options = 2;
origin = (0,3);
scale = (-0.7,0.7);
type = Corner;
},
{
name = _corner.inside_md;
origin = (1,2);
scale = (0.65,0.65);
type = Corner;
},
{
name = _corner.inside_md;
options = 2;
origin = (1,1);
scale = (-0.65,0.65);
type = Corner;
},
{
name = _corner.inside_md;
origin = (1,0);
scale = (0.65,0.65);
type = Corner;
},
{
name = _corner.inside_md;
options = 2;
origin = (1,3);
scale = (-0.65,0.65);
type = Corner;
}
);
layerId = m01;
shapes = (
{
closed = 1;
nodes = (
(310,400,l),
(890,400,l),
(890,1100,l),
(310,1100,l)
);
},
{
closed = 1;
nodes = (
(830,1040,l),
(830,460,l),
(370,460,l),
(370,1040,l)
);
}
);
width = 1200;
},
{
hints = (
{
name = _corner.outside_md;
origin = (0,0);
scale = (0.7,0.7);
type = Corner;
},
{
name = _corner.outside_md;
options = 2;
origin = (0,1);
scale = (-0.7,0.7);
type = Corner;
},
{
name = _corner.outside_md;
origin = (0,2);
scale = (0.7,0.7);
type = Corner;
},
{
name = _corner.outside_md;
options = 2;
origin = (0,3);
scale = (-0.7,0.7);
type = Corner;
},
{
name = _corner.inside_md;
origin = (1,2);
scale = (0.5,0.5);
type = Corner;
},
{
name = _corner.inside_md;
options = 2;
origin = (1,1);
scale = (-0.5,0.5);
type = Corner;
},
{
name = _corner.inside_md;
origin = (1,0);
scale = (0.5,0.5);
type = Corner;
},
{
name = _corner.inside_md;
options = 2;
origin = (1,3);
scale = (-0.5,0.5);
type = Corner;
}
);
layerId = m002;
shapes = (
{
closed = 1;
nodes = (
(310,400,l),
(890,400,l),
(890,1100,l),
(310,1100,l)
);
},
{
closed = 1;
nodes = (
(725,935,l),
(725,565,l),
(475,565,l),
(475,935,l)
);
}
);
width = 1200;
}
);
}
{
export = 0;
glyphname = _part.section_s;
layers = (
{
hints = (
{
name = _corner.outside_lg;
options = 2;
origin = (0,1);
scale = (-0.9,0.9);
type = Corner;
},
{
name = _corner.outside_sm;
origin = (0,2);
scale = (0.8,0.8);
type = Corner;
},
{
name = _corner.inside_sm;
origin = (0,3);
scale = (1.4,1.4);
type = Corner;
},
{
name = _corner.outside_sm;
origin = (0,8);
type = Corner;
},
{
name = _corner.inside_sm;
origin = (0,9);
type = Corner;
},
{
name = _corner.inside_lg;
options = 2;
origin = (0,10);
scale = (-0.9,0.9);
type = Corner;
},
{
name = _cap.end_md;
options = 10;
origin = (0,11);
type = Cap;
},
{
name = _corner.inside_sm;
origin = (0,4);
scale = (1.4,1.4);
type = Corner;
},
{
name = _corner.outside_sm;
origin = (0,7);
scale = (0.6,0.6);
type = Corner;
}
);
layerId = m01;
shapes = (
{
closed = 1;
nodes = (
(1036,1500,l),
(93,1500,l),
(93,845,l),
(923,659,l),
(923,431,l),
(749,281,l),
(961,232,l),
(1103,354,l),
(1103,805,l),
(273,991,l),
(273,1330,l),
(1036,1330,l)
);
}
);
width = 1200;
}
);
}
{
glyphname = eight.dnom;
kernLeft = dnom;
kernRight = dnom;
layers = (
{
hints = (
{
name = _corner.inside_md;
options = 2;
origin = (0,0);
scale = (-0.8,0.8);
type = Corner;
},
{
name = _corner.inside_md;
origin = (0,1);
scale = (0.8,0.8);
type = Corner;
},
{
name = _corner.inside_md;
options = 2;
origin = (0,2);
scale = (-0.8,0.8);
type = Corner;
},
{
name = _corner.inside_md;
origin = (0,3);
scale = (0.8,0.8);
type = Corner;
},
{
name = _corner.outside_md;
origin = (1,12);
scale = (0.8,0.8);
type = Corner;
},
{
name = _corner.outside_md;
origin = (1,4);
scale = (0.8,0.8);
type = Corner;
},
{
name = _corner.outside_md;
origin = (1,3);
scale = (0.8,0.8);
type = Corner;
},
{
name = _corner.outside_md;
origin = (1,13);
scale = (0.8,0.8);
type = Corner;
},
{
name = _corner.inside_md;
options = 2;
origin = (2,0);
scale = (-0.8,0.8);
type = Corner;
},
{
name = _corner.inside_md;
origin = (2,1);
scale = (0.8,0.8);
type = Corner;
},
{
name = _corner.inside_md;
options = 2;
origin = (2,2);
scale = (-0.8,0.8);
type = Corner;
},
{
name = _corner.inside_md;
origin = (2,3);
scale = (0.8,0.8);
type = Corner;
}
);
layerId = m01;
shapes = (
{
closed = 1;
nodes = (
(150,1040,l),
(750,1040,l),
(750,580,l),
(150,580,l)
);
},
{
closed = 1;
nodes = (
(159,496,o),
(94,410,o),
(90,325,c),
(90,0,l),
(810,0,l),
(810,325,l),
(806,410,o),
(741,496,o),
(645,550,c),
(741,604,o),
(806,690,o),
(810,775,c),
(810,1100,l),
(90,1100,l),
(90,775,l),
(94,690,o),
(159,604,o),
(255,550,c)
);
},
{
closed = 1;
nodes = (
(150,520,l),
(750,520,l),
(750,60,l),
(150,60,l)
);
}
);
width = 900;
},
{
hints = (
{
name = _corner.inside_md;
options = 2;
origin = (0,0);
scale = (-0.6,0.6);
type = Corner;
},
{
name = _corner.inside_md;
origin = (0,1);
scale = (0.6,0.6);
type = Corner;
},
{
name = _corner.inside_md;
options = 2;
origin = (0,2);
scale = (-0.6,0.6);
type = Corner;
},
{
name = _corner.inside_md;
origin = (0,3);
scale = (0.6,0.6);
type = Corner;
},
{
name = _corner.outside_md;
origin = (1,12);
scale = (0.8,0.8);
type = Corner;
},
{
name = _corner.outside_md;
origin = (1,4);
scale = (0.8,0.8);
type = Corner;
},
{
name = _corner.outside_md;
origin = (1,3);
scale = (0.8,0.8);
type = Corner;
},
{
name = _corner.outside_md;
origin = (1,13);
scale = (0.8,0.8);
type = Corner;
},
{
name = _corner.inside_md;
options = 2;
origin = (2,0);
scale = (-0.6,0.6);
type = Corner;
},
{
name = _corner.inside_md;
origin = (2,1);
scale = (0.6,0.6);
type = Corner;
},
{
name = _corner.inside_md;
options = 2;
origin = (2,2);
scale = (-0.6,0.6);
type = Corner;
},
{
name = _corner.inside_md;
origin = (2,3);
scale = (0.6,0.6);
type = Corner;
}
);
layerId = m002;
shapes = (
{
closed = 1;
nodes = (
(257,933,l),
(733,933,l),
(733,634,l),
(257,634,l)
);
},
{
closed = 1;
nodes = (
(119,506,o),
(94,420,o),
(90,335,c),
(90,0,l),
(910,0,l),
(910,335,l),
(906,420,o),
(881,506,o),
(785,550,c),
(881,594,o),
(906,680,o),
(910,765,c),
(910,1100,l),
(90,1100,l),
(90,765,l),
(94,680,o),
(119,594,o),
(215,550,c)
);
},
{
closed = 1;
nodes = (
(257,466,l),
(733,466,l),
(733,167,l),
(257,167,l)
);
}
);
width = 900;
},
{
hints = (
{
name = _corner.inside_md;
options = 2;
origin = (0,0);
scale = (-0.6,0.6);
type = Corner;
},
{
name = _corner.inside_md;
origin = (0,1);
scale = (0.6,0.6);
type = Corner;
},
{
name = _corner.inside_md;
options = 2;
origin = (0,2);
scale = (-0.6,0.6);
type = Corner;
},
{
name = _corner.inside_md;
origin = (0,3);
scale = (0.6,0.6);
type = Corner;
},
{
name = _corner.outside_md;
origin = (1,12);
scale = (0.8,0.8);
type = Corner;
},
{
name = _corner.outside_md;
origin = (1,4);
scale = (0.8,0.8);
type = Corner;
},
{
name = _corner.outside_md;
origin = (1,3);
scale = (0.8,0.8);
type = Corner;
},
{
name = _corner.outside_md;
origin = (1,13);
scale = (0.8,0.8);
type = Corner;
},
{
name = _corner.inside_md;
options = 2;
origin = (2,0);
scale = (-0.6,0.6);
type = Corner;
},
{
name = _corner.inside_md;
origin = (2,1);
scale = (0.6,0.6);
type = Corner;
},
{
name = _corner.inside_md;
options = 2;
origin = (2,2);
scale = (-0.6,0.6);
type = Corner;
},
{
name = _corner.inside_md;
origin = (2,3);
scale = (0.6,0.6);
type = Corner;
}
);
layerId = m003;
shapes = (
{
closed = 1;
nodes = (
(357,833,l),
(633,833,l),
(633,684,l),
(357,684,l)
);
},
{
closed = 1;
nodes = (
(119,506,o),
(94,420,o),
(90,335,c),
(90,0,l),
(910,0,l),
(910,335,l),
(906,420,o),
(881,506,o),
(785,550,c),
(881,594,o),
(906,680,o),
(910,765,c),
(910,1100,l),
(90,1100,l),
(90,765,l),
(94,680,o),
(119,594,o),
(215,550,c)
);
},
{
closed = 1;
nodes = (
(357,416,l),
(633,416,l),
(633,267,l),
(357,267,l)
);
}
);
width = 1000;
}
);
}
{
glyphname = five.dnom;
kernLeft = dnom;
kernRight = dnom;
layers = (
{
hints = (
{
name = _corner.inside_md;
origin = (0,4);
scale = (0.7,0.7);
type = Corner;
},
{
name = _corner.inside_md;
options = 2;
origin = (0,5);
scale = (-0.7,0.7);
type = Corner;
},
{
name = _cap.end_md;
options = 10;
origin = (0,6);
type = Cap;
},
{
name = _corner.outside_md;
options = 2;
origin = (0,8);
scale = (-0.8,0.8);
type = Corner;
},
{
name = _corner.outside_md;
origin = (0,9);
scale = (0.8,0.8);
type = Corner;
}
);
layerId = m01;
shapes = (
{
closed = 1;
nodes = (
(770,1040,l),
(770,1100,l),
(160,1100,l),
(160,560,l),
(740,560,l),
(740,60,l),
(100,60,l),
(100,0,l),
(800,0,l),
(800,620,l),
(220,620,l),
(220,1040,l)
);
}
);
width = 900;
},
{
hints = (
{
name = _corner.inside_md;
origin = (0,4);
scale = (0.7,0.7);
type = Corner;
},
{
name = _corner.inside_md;
options = 2;
origin = (0,5);
scale = (-0.7,0.7);
type = Corner;
},
{
name = _cap.end_md;
options = 2;
origin = (0,6);
type = Cap;
},
{
name = _corner.outside_md;
options = 2;
origin = (0,8);
scale = (-0.8,0.8);
type = Corner;
},
{
name = _corner.outside_md;
origin = (0,9);
scale = (0.8,0.8);
type = Corner;
}
);
layerId = m002;
shapes = (
{
closed = 1;
nodes = (
(800,933,l),
(800,1100,l),
(150,1100,l),
(150,502,l),
(650,502,l),
(650,168,l),
(110,168,l),
(110,0,l),
(820,0,l),
(820,670,l),
(320,670,l),
(320,933,l)
);
}
);
width = 900;
},
{
hints = (
{
name = _corner.inside_md;
origin = (0,4);
scale = (0.7,0.7);
type = Corner;
},
{
name = _corner.inside_md;
options = 2;
origin = (0,5);
scale = (-0.7,0.7);
type = Corner;
},
{
name = _cap.end_md;
options = 10;
origin = (0,6);
scale = (0.8375,0.8);
type = Cap;
},
{
name = _corner.outside_md;
options = 2;
origin = (0,8);
scale = (-0.8,0.8);
type = Corner;
},
{
name = _corner.outside_md;
origin = (0,9);
scale = (0.8,0.8);
type = Corner;
}
);
layerId = m003;
shapes = (
{
closed = 1;
nodes = (
(880,833,l),
(880,1100,l),
(140,1100,l),
(140,462,l),
(640,462,l),
(640,268,l),
(110,268,l),
(110,0,l),
(910,0,l),
(910,710,l),
(410,710,l),
(410,833,l)
);
}
);
width = 1000;
}
);
}
{
glyphname = four.dnom;
kernLeft = dnom;
kernRight = dnom;
layers = (
{
layerId = m01;
shapes = (
{
closed = 1;
nodes = (
(640,0,l),
(810,0,l),
(810,710,l),
(640,710,l)
);
},
{
closed = 1;
nodes = (
(910,370,l),
(288,370,l),
(670,1100,l),
(477,1100,l),
(100,380,l),
(100,203,l),
(910,203,l)
);
}
);
width = 1000;
}
);
}
{
glyphname = one.dnom;
kernLeft = dnom;
kernRight = dnom;
layers = (
{
layerId = m01;
shapes = (
{
closed = 1;
nodes = (
(238,1040,l),
(508,1040,l),
(508,0,l),
(568,0,l),
(568,1100,l),
(238,1100,l)
);
}
);
width = 900;
},
{
layerId = m002;
shapes = (
{
closed = 1;
nodes = (
(188,933,l),
(458,933,l),
(458,0,l),
(628,0,l),
(628,1100,l),
(188,1100,l)
);
}
);
width = 900;
},
{
layerId = m003;
shapes = (
{
closed = 1;
nodes = (
(198,833,l),
(458,833,l),
(458,0,l),
(728,0,l),
(728,1100,l),
(198,1100,l)
);
}
);
width = 1000;
}
);
}
